<svg width="280" height="280" viewBox="0 0 280 280" fill="none" xmlns="http://www.w3.org/2000/svg">
<path d="M140 280C217.32 280 280 217.32 280 140C280 62.6801 217.32 0 140 0C62.6801 0 0 62.6801 0 140C0 217.32 62.6801 280 140 280Z" fill="#F2F4F4"/>
<mask id="mask0_34_2784" style="mask-type:alpha" maskUnits="userSpaceOnUse" x="0" y="0" width="280" height="280">
<path d="M140 280C217.32 280 280 217.32 280 140C280 62.6801 217.32 0 140 0C62.6801 0 0 62.6801 0 140C0 217.32 62.6801 280 140 280Z" fill="#F2F4F4"/>
</mask>
<g mask="url(#mask0_34_2784)">
<mask id="mask1_34_2784" style="mask-type:alpha" maskUnits="userSpaceOnUse" x="48" y="111" width="5" height="18">
<path d="M48.7378 111.866H52.5978V128.184H48.7378V111.866Z" fill="white"/>
</mask>
<g mask="url(#mask1_34_2784)">
<path d="M51.6414 128.184H49.6943C49.1655 128.184 48.7378 127.755 48.7378 127.228V112.822C48.7378 112.294 49.1655 111.867 49.6943 111.867H51.6414C52.169 111.867 52.5978 112.296 52.5978 112.823V127.229C52.5978 127.757 52.169 128.185 51.6414 128.185" fill="#D8D8D8"/>
</g>
<path d="M51.3246 169.287H50.0111C49.308 169.287 48.7378 168.718 48.7378 168.015V141.66C48.7378 140.958 49.308 140.388 50.0111 140.388H51.3246C52.0276 140.388 52.5978 140.958 52.5978 141.661V168.015C52.5978 168.718 52.0276 169.287 51.3246 169.287ZM231.758 193.855H230.188C229.556 193.855 229.043 193.343 229.043 192.71V148.658C229.043 148.024 229.556 147.512 230.188 147.512H231.758C232.391 147.512 232.903 148.024 232.903 148.658V192.712C232.903 193.344 232.391 193.857 231.758 193.857V193.855ZM51.3246 205.832H50.0111C49.308 205.832 48.7378 205.262 48.7378 204.559V178.205C48.7378 177.502 49.308 176.933 50.0111 176.933H51.3246C52.0276 176.933 52.5978 177.502 52.5978 178.205V204.56C52.5978 205.262 52.0276 205.832 51.3246 205.832Z" fill="#D8D8D8"/>
<mask id="mask2_34_2784" style="mask-type:alpha" maskUnits="userSpaceOnUse" x="50" y="54" width="182" height="372">
<path d="M50.3779 54.9858H231.074V425.435H50.3779V54.9858Z" fill="white"/>
</mask>
<g mask="url(#mask2_34_2784)">
<path d="M206.478 425.435H74.9709C61.39 425.435 50.3789 414.424 50.3789 400.839V79.5803C50.3789 65.997 61.3888 54.9858 74.9721 54.9858H206.48C220.063 54.9858 231.074 65.997 231.074 79.5803V400.839C231.074 414.424 220.063 425.435 206.478 425.435Z" fill="#DDDDDD"/>
</g>
<path d="M206.576 423.683H74.909C62.6733 423.683 52.7539 413.764 52.7539 401.527V79.2369C52.7539 67.0012 62.6721 57.083 74.909 57.083H206.575C218.812 57.083 228.731 67.0012 228.731 79.2369V401.528C228.731 413.765 218.812 423.683 206.576 423.683Z" fill="#CCCCCC"/>
<path fill-rule="evenodd" clip-rule="evenodd" d="M206.576 423.683H74.909C62.6733 423.683 52.7539 413.764 52.7539 401.527V79.2369C52.7539 67.0012 62.6721 57.083 74.909 57.083H206.575C218.812 57.083 228.731 67.0012 228.731 79.2369V401.528C228.731 413.765 218.812 423.683 206.576 423.683Z" stroke="#DADADA" stroke-width="0.3"/>
<path d="M150.056 69.8657H130.804C129.959 69.8657 129.274 69.1809 129.274 68.3353C129.274 67.4897 129.959 66.8049 130.804 66.8049H150.056C150.901 66.8049 151.586 67.4897 151.586 68.3353C151.586 69.1809 150.901 69.8657 150.056 69.8657Z" fill="#E1E1E1"/>
<path d="M205.638 63.5054H186.673C185.703 63.5663 182.77 64.2206 182.033 69.8657C181.012 77.676 172.642 77.6589 172.642 77.6589H115.098C101.866 77.9842 98.2143 75.116 97.4978 68.01C97.1237 64.3156 95.2193 63.615 94.2141 63.5054H75.1478C65.611 63.5054 57.8799 71.2377 57.8799 80.7745V400.553C57.8799 410.09 65.611 417.821 75.1478 417.821H205.638C215.176 417.821 222.907 410.09 222.907 400.553V80.7745C222.907 71.2377 215.176 63.5054 205.638 63.5054Z" fill="white"/>
<path d="M58.9727 83.2542H219.253V291.609H58.9727V83.2542Z" fill="white"/>
<path d="M209.462 86.4121H69.5524C67.1978 86.4121 65.2891 88.3209 65.2891 90.6755V96.3608C65.2891 98.7153 67.1978 100.624 69.5524 100.624H209.462C211.817 100.624 213.726 98.7153 213.726 96.3608V90.6755C213.726 88.3209 211.817 86.4121 209.462 86.4121Z" fill="#FAFAFA"/>
<path d="M93.4062 117.336H73.8866C70.495 117.336 67.7456 120.086 67.7456 123.477V142.997C67.7456 146.389 70.495 149.138 73.8866 149.138H93.4062C96.7978 149.138 99.5472 146.389 99.5472 142.997V123.477C99.5472 120.086 96.7978 117.336 93.4062 117.336Z" fill="#FAFAFA"/>
<path d="M93.4062 156.814H73.8866C70.495 156.814 67.7456 159.564 67.7456 162.955V182.475C67.7456 185.866 70.495 188.616 73.8866 188.616H93.4062C96.7978 188.616 99.5472 185.866 99.5472 182.475V162.955C99.5472 159.564 96.7978 156.814 93.4062 156.814Z" fill="#FAFAFA"/>
<path d="M93.4062 196.292H73.8866C70.495 196.292 67.7456 199.042 67.7456 202.433V221.953C67.7456 225.345 70.495 228.094 73.8866 228.094H93.4062C96.7978 228.094 99.5472 225.345 99.5472 221.953V202.433C99.5472 199.042 96.7978 196.292 93.4062 196.292Z" fill="#FAFAFA"/>
<path d="M130.691 117.336H111.171C107.78 117.336 105.03 120.086 105.03 123.477V142.997C105.03 146.389 107.78 149.138 111.171 149.138H130.691C134.082 149.138 136.832 146.389 136.832 142.997V123.477C136.832 120.086 134.082 117.336 130.691 117.336Z" fill="#FAFAFA"/>
<path d="M130.691 156.814H111.171C107.78 156.814 105.03 159.564 105.03 162.955V182.475C105.03 185.866 107.78 188.616 111.171 188.616H130.691C134.082 188.616 136.832 185.866 136.832 182.475V162.955C136.832 159.564 134.082 156.814 130.691 156.814Z" fill="#FAFAFA"/>
<path d="M130.691 196.292H111.171C107.78 196.292 105.03 199.042 105.03 202.433V221.953C105.03 225.345 107.78 228.094 111.171 228.094H130.691C134.082 228.094 136.832 225.345 136.832 221.953V202.433C136.832 199.042 134.082 196.292 130.691 196.292Z" fill="#FAFAFA"/>
<path d="M169.072 117.336H149.553C146.161 117.336 143.412 120.086 143.412 123.477V142.997C143.412 146.389 146.161 149.138 149.553 149.138H169.072C172.464 149.138 175.213 146.389 175.213 142.997V123.477C175.213 120.086 172.464 117.336 169.072 117.336Z" fill="#FAFAFA"/>
<path d="M169.072 156.814H149.553C146.161 156.814 143.412 159.564 143.412 162.955V182.475C143.412 185.866 146.161 188.616 149.553 188.616H169.072C172.464 188.616 175.213 185.866 175.213 182.475V162.955C175.213 159.564 172.464 156.814 169.072 156.814Z" fill="#FAFAFA"/>
<path d="M169.072 196.292H149.553C146.161 196.292 143.412 199.042 143.412 202.433V221.953C143.412 225.345 146.161 228.094 149.553 228.094H169.072C172.464 228.094 175.213 225.345 175.213 221.953V202.433C175.213 199.042 172.464 196.292 169.072 196.292Z" fill="#FAFAFA"/>
<path d="M207.454 117.336H187.934C184.542 117.336 181.793 120.086 181.793 123.477V142.997C181.793 146.389 184.542 149.138 187.934 149.138H207.454C210.845 149.138 213.595 146.389 213.595 142.997V123.477C213.595 120.086 210.845 117.336 207.454 117.336Z" fill="#FAFAFA"/>
<path d="M207.454 156.814H187.934C184.542 156.814 181.793 159.564 181.793 162.955V182.475C181.793 185.866 184.542 188.616 187.934 188.616H207.454C210.845 188.616 213.595 185.866 213.595 182.475V162.955C213.595 159.564 210.845 156.814 207.454 156.814Z" fill="#FAFAFA"/>
<path d="M207.454 196.292H187.934C184.542 196.292 181.793 199.042 181.793 202.433V221.953C181.793 225.345 184.542 228.094 187.934 228.094H207.454C210.845 228.094 213.595 225.345 213.595 221.953V202.433C213.595 199.042 210.845 196.292 207.454 196.292Z" fill="#FAFAFA"/>
<g filter="url(#filter0_d_34_2784)">
<path d="M231.447 85.5347H48.7964C44.7265 85.5347 41.4272 88.834 41.4272 92.9039V119.836C41.4272 123.906 44.7265 127.206 48.7964 127.206H231.447C235.517 127.206 238.816 123.906 238.816 119.836V92.9039C238.816 88.834 235.517 85.5347 231.447 85.5347Z" fill="black"/>
</g>
<path d="M231.447 85.5347H48.7964C44.7265 85.5347 41.4272 88.834 41.4272 92.9039V119.836C41.4272 123.906 44.7265 127.206 48.7964 127.206H231.447C235.517 127.206 238.816 123.906 238.816 119.836V92.9039C238.816 88.834 235.517 85.5347 231.447 85.5347Z" fill="white"/>
<path d="M216.95 98.6943H97.2885C95.5079 98.6943 94.0645 100.138 94.0645 101.918V102.05C94.0645 103.831 95.5079 105.274 97.2885 105.274H216.95C218.731 105.274 220.174 103.831 220.174 102.05V101.918C220.174 100.138 218.731 98.6943 216.95 98.6943Z" fill="#F3F3F3"/>
<path d="M185.149 109.66H97.2885C95.5079 109.66 94.0645 111.104 94.0645 112.884V113.016C94.0645 114.797 95.5079 116.24 97.2885 116.24H185.149C186.929 116.24 188.373 114.797 188.373 113.016V112.884C188.373 111.104 186.929 109.66 185.149 109.66Z" fill="#F3F3F3"/>
</g>
<path fill-rule="evenodd" clip-rule="evenodd" d="M73.1072 92.6023C81.1824 92.6023 87.7287 99.1485 87.7287 107.224C87.7287 115.299 81.1824 121.845 73.1072 121.845C65.0321 121.845 58.4858 115.299 58.4858 107.224C58.4858 99.1485 65.0321 92.6023 73.1072 92.6023Z" fill="#1A31DC"/>
<defs>
<filter id="filter0_d_34_2784" x="21.4272" y="67.5347" width="237.389" height="81.6709" filterUnits="userSpaceOnUse" color-interpolation-filters="sRGB">
<feFlood flood-opacity="0" result="BackgroundImageFix"/>
<feColorMatrix in="SourceAlpha" type="matrix" values="0 0 0 0 0 0 0 0 0 0 0 0 0 0 0 0 0 0 127 0" result="hardAlpha"/>
<feOffset dy="2"/>
<feGaussianBlur stdDeviation="10"/>
<feColorMatrix type="matrix" values="0 0 0 0 0 0 0 0 0 0 0 0 0 0 0 0 0 0 0.2 0"/>
<feBlend mode="normal" in2="BackgroundImageFix" result="effect1_dropShadow_34_2784"/>
<feBlend mode="normal" in="SourceGraphic" in2="effect1_dropShadow_34_2784" result="shape"/>
</filter>
</defs>
</svg>
