<svg width="375" height="812" viewBox="0 0 375 812" fill="none" xmlns="http://www.w3.org/2000/svg">
<g clip-path="url(#clip0_4635_7328)">
<rect width="375" height="812" fill="white"/>
<rect x="99.1952" y="-292.27" width="876.68" height="876.68" rx="438.34" fill="white"/>
<g filter="url(#filter0_i_4635_7328)">
<path fill-rule="evenodd" clip-rule="evenodd" d="M1241 694.082V139.939C1241 139.626 1241 139.313 1241 139C1241 138.687 1241 138.374 1241 138.061V133.157C1241 131.481 1240.97 129.812 1240.92 128.15C1235.12 -257.312 920.842 -568 534 -568C143.535 -568 -173 -251.465 -173 139C-173 529.465 143.535 846 534 846C684.7 846 824.388 798.85 939.116 718.496C950.795 790.791 1013.49 846 1089.08 846C1172.98 846 1241 777.984 1241 694.082ZM534 542.166C756.662 542.166 937.166 361.662 937.166 139C937.166 -83.6618 756.662 -264.165 534 -264.165C311.338 -264.165 130.835 -83.6618 130.835 139C130.835 361.662 311.338 542.166 534 542.166Z" fill="url(#paint0_linear_4635_7328)"/>
</g>
</g>
<defs>
<filter id="filter0_i_4635_7328" x="-173" y="-568" width="1414" height="1414" filterUnits="userSpaceOnUse" color-interpolation-filters="sRGB">
<feFlood flood-opacity="0" result="BackgroundImageFix"/>
<feBlend mode="normal" in="SourceGraphic" in2="BackgroundImageFix" result="shape"/>
<feColorMatrix in="SourceAlpha" type="matrix" values="0 0 0 0 0 0 0 0 0 0 0 0 0 0 0 0 0 0 127 0" result="hardAlpha"/>
<feOffset/>
<feGaussianBlur stdDeviation="30"/>
<feComposite in2="hardAlpha" operator="arithmetic" k2="-1" k3="1"/>
<feColorMatrix type="matrix" values="0 0 0 0 0 0 0 0 0 0 0 0 0 0 0 0 0 0 0.1 0"/>
<feBlend mode="normal" in2="shape" result="effect1_innerShadow_4635_7328"/>
</filter>
<linearGradient id="paint0_linear_4635_7328" x1="620.266" y1="846.004" x2="620.266" y2="-511.353" gradientUnits="userSpaceOnUse">
<stop offset="0.109375" stop-color="#32E0A1"/>
<stop offset="1" stop-color="#F0FE0A"/>
</linearGradient>
<clipPath id="clip0_4635_7328">
<rect width="375" height="812" fill="white"/>
</clipPath>
</defs>
</svg>
