<svg width="90" height="90" viewBox="0 0 90 90" fill="none" xmlns="http://www.w3.org/2000/svg">
<g filter="url(#filter0_d_25_11307)">
<rect x="14" y="14" width="62" height="62" rx="31" fill="black"/>
<path d="M37.5131 37.7211C37.5131 38.1568 37.5172 39.9051 37.4961 40.3722C37.4916 40.5315 37.4437 40.6852 37.359 40.8119C37.2743 40.9386 37.1571 41.0321 37.0237 41.0792C36.7325 41.2011 36.4462 41.1559 36.2464 40.8882C36.1143 40.7181 36.0335 40.5043 36.0158 40.278C35.9932 39.1436 35.9996 38.0073 36.0077 36.8719C36.0061 36.7596 36.0242 36.648 36.0609 36.5437C36.0975 36.4395 36.1521 36.3446 36.2214 36.2647C36.2906 36.1848 36.3731 36.1216 36.4641 36.0786C36.5551 36.0356 36.6527 36.0138 36.7511 36.0144C37.7526 36.0002 38.7545 36.0002 39.7571 36.0144C39.9551 36.0161 40.1444 36.1075 40.2833 36.2685C40.4223 36.4295 40.4995 36.6469 40.498 36.8728C40.4965 37.0988 40.4164 37.3148 40.2753 37.4734C40.1343 37.632 39.9438 37.7201 39.7457 37.7184C39.0865 37.7285 37.6223 37.7211 37.5131 37.7211Z" fill="white"/>
<path d="M52.495 37.7265C52.1132 37.7265 50.5819 37.7265 50.1726 37.7062C50.0329 37.7014 49.898 37.6469 49.7869 37.5502C49.6758 37.4535 49.594 37.3195 49.553 37.1671C49.4454 36.8357 49.4858 36.509 49.7196 36.281C49.8687 36.1303 50.056 36.0379 50.2543 36.017C51.2493 35.992 52.245 35.9994 53.24 36.0087C53.3384 36.0068 53.4361 36.0274 53.5274 36.0692C53.6188 36.111 53.7018 36.1732 53.7718 36.2521C53.8418 36.331 53.8973 36.4251 53.935 36.5288C53.9727 36.6325 53.9919 36.7437 53.9915 36.856C54.0039 38 54.0039 39.1437 53.9915 40.2871C53.9907 40.3989 53.9706 40.5096 53.9323 40.6126C53.8941 40.7156 53.8384 40.809 53.7685 40.8875C53.6986 40.9659 53.6159 41.0279 53.525 41.0699C53.4341 41.1119 53.3368 41.133 53.2388 41.1321C53.1408 41.1312 53.0438 41.1083 52.9535 41.0646C52.8633 41.021 52.7814 40.9574 52.7126 40.8777C52.6439 40.7979 52.5895 40.7035 52.5527 40.5998C52.516 40.4961 52.4974 40.3851 52.4982 40.2732C52.4893 39.5218 52.495 37.8502 52.495 37.7265Z" fill="white"/>
<path d="M52.4876 52.273C52.4876 51.8373 52.4876 50.089 52.5046 49.6229C52.509 49.4634 52.5568 49.3095 52.6415 49.1826C52.7262 49.0557 52.8435 48.9621 52.977 48.9149C53.2674 48.7931 53.5538 48.8392 53.7544 49.106C53.8859 49.2763 53.9667 49.49 53.9849 49.7161C54.0068 50.8515 54.0011 51.9869 53.993 53.1231C53.9944 53.2354 53.9762 53.3469 53.9394 53.4511C53.9027 53.5552 53.8481 53.65 53.7789 53.7298C53.7097 53.8096 53.6272 53.8729 53.5364 53.916C53.4455 53.9591 53.348 53.9811 53.2496 53.9807C52.2471 53.9936 51.2449 53.9936 50.2429 53.9807C50.1429 53.9834 50.0434 53.9631 49.9504 53.9211C49.8573 53.8791 49.7726 53.8162 49.7013 53.7361C49.63 53.656 49.5736 53.5603 49.5353 53.4548C49.497 53.3494 49.4777 53.2362 49.4785 53.122C49.4794 53.0078 49.5003 52.895 49.54 52.7902C49.5798 52.6855 49.6376 52.5909 49.7101 52.5122C49.7825 52.4334 49.8681 52.372 49.9617 52.3317C50.0553 52.2915 50.155 52.2731 50.255 52.2776C50.9143 52.2675 52.3784 52.273 52.4876 52.273Z" fill="white"/>
<path d="M37.505 52.273C37.8868 52.273 39.4189 52.273 39.8282 52.2933C39.9678 52.2983 40.1026 52.353 40.2137 52.4496C40.3247 52.5463 40.4066 52.6801 40.4478 52.8324C40.5546 53.1638 40.515 53.4905 40.2804 53.7185C40.1316 53.8692 39.9446 53.9617 39.7465 53.9825C38.7515 54.0074 37.7558 54.001 36.7608 53.9917C36.6624 53.9935 36.5646 53.9728 36.4733 53.9309C36.382 53.889 36.2989 53.8267 36.2289 53.7477C36.1589 53.6687 36.1035 53.5746 36.0658 53.4708C36.0281 53.3671 36.0089 53.2558 36.0093 53.1434C35.9969 51.9995 35.9969 50.8558 36.0093 49.7124C36.0109 49.4865 36.0911 49.2705 36.2323 49.112C36.3734 48.9535 36.564 48.8655 36.762 48.8674C36.96 48.8692 37.1493 48.9607 37.2882 49.1218C37.4271 49.2829 37.5042 49.5003 37.5026 49.7263C37.5115 50.4749 37.505 52.1456 37.505 52.273Z" fill="white"/>
<path d="M39.3073 40.7781C39.3073 40.2353 39.6155 39.8698 40.0548 39.8661C40.2414 39.8643 40.4218 39.9429 40.56 40.086C40.6982 40.2292 40.7841 40.4265 40.8006 40.6387C40.8006 40.6849 40.8006 46.3931 40.8006 49.202C40.8006 49.7318 40.5005 50.1047 40.0726 50.1149C39.9731 50.1199 39.8738 50.1017 39.7807 50.0616C39.6876 50.0214 39.6026 49.96 39.531 49.8812C39.4593 49.8023 39.4024 49.7077 39.3639 49.603C39.3253 49.4983 39.3058 49.3857 39.3065 49.2721C39.2992 48.7044 39.3033 42.1737 39.3073 40.7781Z" fill="white"/>
<path d="M49.2076 40.7781C49.2076 40.2353 49.5158 39.8698 49.9551 39.8661C50.1417 39.8641 50.3221 39.9426 50.4602 40.0859C50.5983 40.2291 50.684 40.4265 50.7001 40.6387C50.7001 40.6849 50.7049 46.3931 50.7001 49.202C50.7001 49.7318 50.4 50.1047 49.9721 50.1149C49.8726 50.1199 49.7733 50.1018 49.6802 50.0616C49.5871 50.0214 49.5021 49.96 49.4305 49.8812C49.3588 49.8024 49.3019 49.7077 49.2634 49.603C49.2248 49.4983 49.2053 49.3857 49.206 49.2721C49.2004 48.7044 49.2076 42.1738 49.2076 40.7781Z" fill="white"/>
<path d="M47.4044 44.9937C47.4044 46.3977 47.4044 47.8017 47.4044 49.2057C47.4044 49.8804 46.8762 50.3041 46.3626 50.0456C46.039 49.8813 45.9063 49.5684 45.9055 49.1752C45.9055 48.5537 45.9055 47.9321 45.9055 47.3106C45.9055 45.1636 45.9055 43.0159 45.9055 40.8676C45.9055 40.5556 45.9597 40.2732 46.1822 40.0655C46.2862 39.96 46.4151 39.8916 46.5528 39.8688C46.6905 39.846 46.8311 39.8698 46.9571 39.9372C47.0909 39.9942 47.2057 40.0976 47.2853 40.2328C47.365 40.3681 47.4055 40.5284 47.4012 40.6913C47.4061 41.6421 47.4061 42.5928 47.4069 43.5445L47.4044 44.9937Z" fill="white"/>
<path d="M44.1042 45.0094C44.1042 46.3986 44.1042 47.7869 44.1042 49.1752C44.1042 49.729 43.8114 50.0982 43.3762 50.1158C43.1827 50.1251 42.9938 50.0471 42.8503 49.8988C42.7068 49.7504 42.6202 49.5435 42.6093 49.3229C42.6093 49.2619 42.6045 49.2001 42.6045 49.1383C42.6045 46.3611 42.6045 43.5839 42.6045 40.8067C42.6045 40.2261 42.9224 39.8495 43.3875 39.867C43.8114 39.8827 44.1034 40.2658 44.1042 40.8205C44.1053 42.2168 44.1053 43.6131 44.1042 45.0094Z" fill="white"/>
</g>
<defs>
<filter id="filter0_d_25_11307" x="0" y="0" width="90" height="90" filterUnits="userSpaceOnUse" color-interpolation-filters="sRGB">
<feFlood flood-opacity="0" result="BackgroundImageFix"/>
<feColorMatrix in="SourceAlpha" type="matrix" values="0 0 0 0 0 0 0 0 0 0 0 0 0 0 0 0 0 0 127 0" result="hardAlpha"/>
<feOffset/>
<feGaussianBlur stdDeviation="7"/>
<feComposite in2="hardAlpha" operator="out"/>
<feColorMatrix type="matrix" values="0 0 0 0 0 0 0 0 0 0 0 0 0 0 0 0 0 0 0.25 0"/>
<feBlend mode="normal" in2="BackgroundImageFix" result="effect1_dropShadow_25_11307"/>
<feBlend mode="normal" in="SourceGraphic" in2="effect1_dropShadow_25_11307" result="shape"/>
</filter>
</defs>
</svg>
