<svg width="32" height="32" viewBox="0 0 32 32" fill="none" xmlns="http://www.w3.org/2000/svg">
<g clip-path="url(#clip0_5725_45414)">
<path d="M30.5664 27.4189H30.0078V0.75C30.0078 0.33594 29.6719 0 29.2578 0H26.2227C25.8086 0 25.4727 0.33594 25.4727 0.75V8.56738H23.8897V4.68652C23.8897 4.27246 23.5537 3.93652 23.1397 3.93652H19.6992C19.2852 3.93652 18.9492 4.27246 18.9492 4.68652V8.56738H18.1963V4.68652C18.1963 4.27246 17.8603 3.93652 17.4463 3.93652H14.0059C13.5918 3.93652 13.2559 4.27246 13.2559 4.68652V8.56738H12.3672V4.68652C12.3672 4.27246 12.0313 3.93652 11.6172 3.93652H8.17676C7.7627 3.93652 7.42676 4.27246 7.42676 4.68652V8.56738H5.84375V0.75C5.84375 0.33594 5.50781 0 5.09375 0H2.05859C1.64453 0 1.30859 0.33594 1.30859 0.75V27.4189H0.75C0.33594 27.4189 0 27.7549 0 28.1689V30.5254C0 30.9395 0.33594 31.2754 0.75 31.2754H30.5664C30.9805 31.2754 31.3164 30.9395 31.3164 30.5254V28.1689C31.3164 27.7549 30.9805 27.4189 30.5664 27.4189V27.4189ZM26.9727 1.5H28.5078V27.4189H26.9727V1.5ZM23.8897 27.4189V23.5371C23.8897 23.123 23.5537 22.7871 23.1397 22.7871H19.6992C19.2852 22.7871 18.9492 23.123 18.9492 23.5371V27.4189H18.1963V23.5371C18.1963 23.123 17.8603 22.7871 17.4463 22.7871H14.0059C13.5918 22.7871 13.2559 23.123 13.2559 23.5371V27.4189H12.3672V23.5371C12.3672 23.123 12.0313 22.7871 11.6172 22.7871H8.17676C7.7627 22.7871 7.42676 23.123 7.42676 23.5371V27.4189H5.84375V20.3516H25.4727V27.4189H23.8897ZM22.3897 27.4189H20.4492V24.2871H22.3897V27.4189ZM16.6963 27.4189H14.7559V24.2871H16.6963V27.4189ZM10.8672 27.4189H8.92676V24.2871H10.8672V27.4189ZM10.8672 18.8516H8.92676V13.2158H10.8672V18.8516ZM16.6963 18.8516H14.7559V13.2158H16.6963V18.8516ZM22.3897 18.8516H20.4492V13.2158H22.3897V18.8516ZM20.4492 5.43653H22.3897V8.56739H20.4492V5.43653ZM14.7559 5.43653H16.6963V8.56739H14.7559V5.43653V5.43653ZM8.92676 5.43653H10.8672V8.56739H8.92676V5.43653V5.43653ZM8.17676 10.0674H25.4727V18.8516H23.8897V12.4658C23.8897 12.0518 23.5537 11.7158 23.1397 11.7158H19.6992C19.2852 11.7158 18.9492 12.0518 18.9492 12.4658V18.8516H18.1963V12.4658C18.1963 12.0518 17.8603 11.7158 17.4463 11.7158H14.0059C13.5918 11.7158 13.2559 12.0518 13.2559 12.4658V18.8516H12.3672V12.4658C12.3672 12.0518 12.0313 11.7158 11.6172 11.7158H8.17676C7.7627 11.7158 7.42676 12.0518 7.42676 12.4658V18.8516H5.84375V10.0674H8.17676V10.0674ZM2.80859 1.5H4.34375V27.4189H2.80859V1.5V1.5ZM29.8164 29.7754H1.5V28.9189H29.8164V29.7754H29.8164Z" fill="black" fill-opacity="0.8"/>
</g>
<defs>
<clipPath id="clip0_5725_45414">
<rect width="31.3164" height="31.2754" fill="white"/>
</clipPath>
</defs>
</svg>
