<svg width="32" height="32" viewBox="0 0 32 32" fill="none" xmlns="http://www.w3.org/2000/svg">
<g clip-path="url(#clip0_5725_45396)">
<path d="M4.02028 20.4454C4.0598 20.5481 4.10709 20.643 4.14661 20.7379C3.24118 21.9663 2.98174 23.5553 3.44969 25.0077C3.91795 26.4601 5.0563 27.5985 6.50871 28.0668C7.96112 28.5347 9.55012 28.2753 10.7785 27.3698L11.071 27.4962C11.3029 29.0012 12.2433 30.3033 13.5993 30.9967C14.9551 31.6897 16.5613 31.6897 17.9171 30.9967C19.2732 30.3033 20.2136 29.0012 20.4454 27.4962L20.7379 27.3698C21.9663 28.2753 23.5553 28.5347 25.0077 28.0668C26.4601 27.5985 27.5985 26.4602 28.0668 25.0077C28.5347 23.5553 28.2753 21.9663 27.3698 20.7379C27.4094 20.643 27.4567 20.5481 27.4962 20.4454C29.0012 20.2136 30.3033 19.2731 30.9967 17.9171C31.6897 16.5613 31.6897 14.9551 30.9967 13.5993C30.3033 12.2432 29.0012 11.3028 27.4962 11.071C27.4567 10.9683 27.4094 10.8734 27.3698 10.7785C28.2753 9.55012 28.5347 7.96112 28.0668 6.50871C27.5985 5.0563 26.4602 3.91789 25.0077 3.44968C23.5553 2.98177 21.9663 3.24113 20.7379 4.1466L20.4454 4.02027C20.2136 2.51528 19.2731 1.21319 17.9171 0.51978C16.5614 -0.17326 14.9551 -0.17326 13.5993 0.51978C12.2432 1.21318 11.3028 2.51529 11.071 4.02027L10.7785 4.1466C9.55012 3.24117 7.96112 2.98173 6.50871 3.44968C5.0563 3.91794 3.91789 5.05629 3.44968 6.50871C2.98177 7.96112 3.24113 9.55012 4.1466 10.7785C4.1466 10.8734 4.05979 10.9683 4.02027 11.071C2.51528 11.3029 1.21319 12.2433 0.51978 13.5993C-0.17326 14.9551 -0.17326 16.5613 0.51978 17.9171C1.21318 19.2732 2.51529 20.2136 4.02027 20.4454L4.02028 20.4454ZM4.60535 12.5964C4.93211 12.5897 5.22111 12.3823 5.33227 12.0749C5.46248 11.7136 5.61281 11.36 5.78289 11.0155C5.9258 10.7213 5.87217 10.3691 5.64844 10.1302C4.96457 9.31576 4.73623 8.21165 5.04079 7.19249C5.34497 6.17342 6.14144 5.37558 7.16015 5.06961C8.1785 4.76332 9.28303 4.98986 10.0989 5.67232C10.3392 5.89957 10.6952 5.95321 10.992 5.80641C11.3399 5.64056 11.7111 5.49024 12.0827 5.35579V5.35614C12.3904 5.24498 12.5975 4.95563 12.6042 4.62887C12.6042 3.49932 13.2069 2.45549 14.1851 1.89063C15.1636 1.32603 16.3687 1.32603 17.3468 1.89063C18.3253 2.45558 18.9277 3.49941 18.9277 4.62887C18.9344 4.95563 19.1419 5.24498 19.4496 5.35614C19.8212 5.49059 20.1927 5.64055 20.5403 5.80676V5.80641C20.8367 5.9532 21.1931 5.89956 21.4334 5.67232C22.2493 4.98986 23.3538 4.76337 24.3721 5.06961C25.3908 5.37555 26.1873 6.17342 26.4915 7.19249C26.796 8.21156 26.5674 9.31573 25.8835 10.1302C25.6545 10.3656 25.5948 10.7181 25.7335 11.0155C25.9047 11.3702 26.055 11.7343 26.1841 12.1063C26.2953 12.414 26.5843 12.6214 26.9111 12.6281C28.0406 12.6281 29.0844 13.2305 29.6493 14.209C30.2142 15.1872 30.2142 16.3922 29.6493 17.3708C29.0843 18.3489 28.0405 18.9516 26.9111 18.9516C26.5843 18.9583 26.2953 19.1655 26.1841 19.4732C26.0514 19.8232 25.9011 20.1662 25.7335 20.5007C25.5906 20.795 25.6442 21.1472 25.868 21.3861C26.5518 22.2005 26.7802 23.3046 26.4756 24.3238C26.1714 25.3429 25.375 26.1407 24.3563 26.4467C23.3379 26.753 22.2334 26.5264 21.4176 25.844C21.1677 25.6139 20.7983 25.5694 20.5008 25.7335C20.1374 25.8994 19.7736 26.0574 19.402 26.1841C19.0947 26.2953 18.8872 26.5843 18.8805 26.911C18.8805 28.0406 18.2777 29.0844 17.2996 29.6493C16.3214 30.2142 15.116 30.2142 14.1378 29.6493C13.1597 29.0843 12.557 28.0405 12.557 26.911C12.5503 26.5843 12.3428 26.2953 12.0354 26.1841C11.6639 26.0578 11.3004 25.8997 10.9366 25.7335C10.8314 25.6795 10.7147 25.6524 10.5968 25.6545C10.3942 25.6531 10.1991 25.7296 10.0513 25.868C9.23541 26.5504 8.13126 26.7766 7.11255 26.4707C6.0942 26.1644 5.29771 25.3665 4.99319 24.3474C4.68901 23.3284 4.91732 22.2245 5.60119 21.4097C5.85173 21.1779 5.92512 20.8113 5.78292 20.5008C5.61319 20.1454 5.46286 19.7813 5.3323 19.4101C5.22114 19.1024 4.93214 18.8949 4.60538 18.8882C3.47583 18.8882 2.432 18.2858 1.86714 17.3073C1.30219 16.3291 1.30219 15.1241 1.86714 14.1456C2.43209 13.1674 3.47592 12.5647 4.60538 12.5647V12.5964H4.60535Z" fill="black" fill-opacity="0.8"/>
<path d="M10.1703 22.1365C10.3806 22.1375 10.5824 22.055 10.7317 21.9071L21.908 10.7308C22.2182 10.4207 22.2182 9.91816 21.908 9.60831C21.5982 9.29814 21.0957 9.29814 20.7855 9.60831L9.60919 20.7846C9.45958 20.9332 9.37524 21.1354 9.37524 21.346C9.37524 21.5567 9.45958 21.7589 9.60919 21.9071C9.75845 22.0549 9.9603 22.1375 10.1703 22.1364L10.1703 22.1365L10.1703 22.1365Z" fill="black" fill-opacity="0.8"/>
<path d="M12.5967 14.177C13.2255 14.177 13.829 13.9272 14.2735 13.4826C14.7181 13.038 14.968 12.4345 14.968 11.8058C14.968 11.177 14.7182 10.5735 14.2735 10.129C13.8289 9.68443 13.2255 9.43452 12.5967 9.43452C11.968 9.43452 11.3645 9.68435 10.9199 10.129C10.4754 10.5736 10.2255 11.177 10.2255 11.8058C10.2255 12.4345 10.4753 13.038 10.9199 13.4826C11.3645 13.9271 11.968 14.177 12.5967 14.177ZM12.5967 11.0153C12.9164 11.0153 13.2047 11.208 13.3268 11.5033C13.4493 11.7987 13.3819 12.1385 13.1557 12.3647C12.9295 12.5909 12.5897 12.6583 12.2943 12.5358C11.999 12.4137 11.8063 12.1254 11.8063 11.8057C11.8063 11.3692 12.1602 11.0153 12.5967 11.0153V11.0153Z" fill="black" fill-opacity="0.8"/>
<path d="M18.9202 17.3388C18.2914 17.3388 17.688 17.5886 17.2434 18.0332C16.7989 18.4778 16.549 19.0813 16.549 19.71C16.549 20.3388 16.7988 20.9423 17.2434 21.3868C17.688 21.8314 18.2915 22.0813 18.9202 22.0813C19.5489 22.0813 20.1525 21.8314 20.597 21.3868C21.0416 20.9422 21.2915 20.3388 21.2915 19.71C21.2915 19.0813 21.0416 18.4778 20.597 18.0332C20.1524 17.5887 19.5489 17.3388 18.9202 17.3388ZM18.9202 20.5005C18.6005 20.5005 18.3122 20.3078 18.1901 20.0125C18.0677 19.7171 18.1351 19.3773 18.3613 19.1511C18.5875 18.9249 18.9273 18.8575 19.2226 18.98C19.518 19.1021 19.7106 19.3904 19.7106 19.7101C19.7106 19.9197 19.6274 20.1208 19.4792 20.269C19.331 20.4172 19.1298 20.5005 18.9202 20.5005Z" fill="black" fill-opacity="0.8"/>
</g>
<defs>
<clipPath id="clip0_5725_45396">
<rect width="31.5164" height="31.5164" fill="white"/>
</clipPath>
</defs>
</svg>
