
<svg width="14" height="14" viewBox="0 0 14 14" fill="none" xmlns="http://www.w3.org/2000/svg">
<path d="M3.17843 0.82214C2.52756 0.171266 1.47228 0.171266 0.821407 0.82214C0.170534 1.47301 0.170534 2.52829 0.821407 3.17916L4.6429 7.00065L0.821407 10.8221C0.170533 11.473 0.170533 12.5283 0.821408 13.1792C1.47228 13.83 2.52756 13.83 3.17843 13.1792L6.99992 9.35767L10.8214 13.1792C11.4723 13.83 12.5276 13.83 13.1784 13.1792C13.8293 12.5283 13.8293 11.473 13.1784 10.8221L9.35694 7.00065L13.1784 3.17916C13.8293 2.52829 13.8293 1.47301 13.1784 0.82214C12.5276 0.171266 11.4723 0.171266 10.8214 0.82214L6.99992 4.64363L3.17843 0.82214Z" fill="#333333"/>
</svg>
