
<svg width="40" height="40" viewBox="0 0 40 40" fill="none" xmlns="http://www.w3.org/2000/svg">
<rect width="40" height="40" rx="20" fill="#F0F0F0"/>
<path d="M16.1784 13.8221C15.5276 13.1713 14.4723 13.1713 13.8214 13.8221C13.1705 14.473 13.1705 15.5283 13.8214 16.1792L17.6429 20.0007L13.8214 23.8221C13.1705 24.473 13.1705 25.5283 13.8214 26.1792C14.4723 26.83 15.5276 26.83 16.1784 26.1792L19.9999 22.3577L23.8214 26.1792C24.4723 26.83 25.5276 26.83 26.1784 26.1792C26.8293 25.5283 26.8293 24.473 26.1784 23.8221L22.3569 20.0007L26.1784 16.1792C26.8293 15.5283 26.8293 14.473 26.1784 13.8221C25.5276 13.1713 24.4723 13.1713 23.8214 13.8221L19.9999 17.6436L16.1784 13.8221Z" fill="#333333"/>
</svg>
