<svg width="215" height="215" viewBox="0 0 215 215" fill="none" xmlns="http://www.w3.org/2000/svg">
<path fill-rule="evenodd" clip-rule="evenodd" d="M107.501 0C108.226 0 108.945 0.142867 109.615 0.420444C110.285 0.698021 110.894 1.10487 111.407 1.61777C111.92 2.13066 112.326 2.73956 112.604 3.40969C112.882 4.07982 113.024 4.79806 113.024 5.52341V11.8982C113.024 13.3631 112.443 14.768 111.407 15.8039C110.371 16.8397 108.966 17.4216 107.501 17.4216C106.036 17.4216 104.631 16.8397 103.595 15.8039C102.56 14.768 101.978 13.3631 101.978 11.8982V5.52341C101.978 4.05851 102.56 2.65361 103.595 1.61777C104.631 0.581929 106.036 0 107.501 0ZM79.6777 3.65504C80.3784 3.46712 81.1094 3.41911 81.8287 3.51375C82.5481 3.60839 83.2417 3.84382 83.87 4.2066C84.4984 4.56939 85.0491 5.05241 85.4907 5.62807C85.9323 6.20374 86.2561 6.86076 86.4438 7.56163L88.0928 13.7171C88.2806 14.4178 88.3285 15.1485 88.2339 15.8677C88.1392 16.5869 87.9038 17.2803 87.5412 17.9085C87.1785 18.5367 86.6957 19.0873 86.1202 19.5289C85.5448 19.9705 84.888 20.2944 84.1873 20.4822C83.4867 20.6699 82.7559 20.7179 82.0368 20.6232C81.3176 20.5285 80.6241 20.2932 79.9959 19.9305C79.3678 19.5678 78.8171 19.085 78.3755 18.5096C77.934 17.9341 77.61 17.2773 77.4223 16.5767L75.7711 10.4276C75.3928 9.0129 75.5919 7.5059 76.3245 6.23792C77.057 4.96994 78.2631 4.04476 79.6777 3.66579V3.65504ZM135.325 3.65504C136.026 3.84262 136.684 4.16671 137.26 4.60875C137.836 5.0508 138.319 5.60212 138.682 6.23118C139.045 6.86023 139.28 7.55467 139.375 8.27474C139.469 8.99482 139.42 9.72639 139.231 10.4276L137.582 16.5831C137.203 17.9984 136.277 19.2051 135.008 19.9377C133.739 20.6703 132.231 20.8689 130.816 20.4897C129.401 20.1105 128.194 19.1846 127.461 17.9157C126.729 16.6468 126.53 15.1389 126.909 13.7236L128.561 7.56808C128.94 6.15389 129.866 4.94842 131.135 4.21667C132.403 3.48491 133.91 3.28677 135.325 3.66579V3.65504ZM161.252 14.4051C161.88 14.7679 162.431 15.2508 162.872 15.8264C163.314 16.402 163.638 17.059 163.825 17.7598C164.013 18.4606 164.061 19.1915 163.966 19.9107C163.871 20.63 163.636 21.3235 163.273 21.9517L160.086 27.4708C159.724 28.099 159.241 28.6497 158.665 29.0913C158.09 29.5329 157.433 29.8568 156.732 30.0446C156.032 30.2324 155.301 30.2803 154.582 30.1856C153.863 30.091 153.169 29.8556 152.541 29.4929C151.913 29.1302 151.362 28.6474 150.92 28.0719C150.479 27.4964 150.155 26.8396 149.967 26.139C149.779 25.4383 149.731 24.7075 149.826 23.9883C149.921 23.2691 150.156 22.5756 150.519 21.9474L153.705 16.4283C154.068 15.7998 154.55 15.2489 155.126 14.8071C155.701 14.3653 156.358 14.0412 157.059 13.8533C157.76 13.6654 158.491 13.6174 159.21 13.7121C159.93 13.8068 160.623 14.0423 161.252 14.4051ZM53.7505 14.4051C54.3787 14.0422 55.0723 13.8066 55.7915 13.7118C56.5108 13.6169 57.2417 13.6647 57.9425 13.8524C58.6433 14.04 59.3002 14.3639 59.8758 14.8056C60.4514 15.2472 60.9344 15.7979 61.2971 16.4262L64.4834 21.9453C65.2159 23.214 65.4143 24.7218 65.0351 26.1368C64.6559 27.5519 63.7301 28.7583 62.4613 29.4908C61.1926 30.2232 59.6849 30.4217 58.2698 30.0424C56.8547 29.6632 55.6483 28.7374 54.9158 27.4687L51.7295 21.9517C51.3666 21.3235 51.131 20.63 51.0361 19.9107C50.9413 19.1915 50.9891 18.4606 51.1767 17.7598C51.3644 17.059 51.6883 16.402 52.1299 15.8264C52.5715 15.2508 53.1222 14.7679 53.7505 14.4051ZM183.515 31.4871C184.551 32.5229 185.133 33.9277 185.133 35.3926C185.133 36.8574 184.551 38.2623 183.515 39.2981L179 43.8131C178.489 44.3327 177.879 44.7459 177.208 45.0289C176.536 45.3119 175.814 45.4591 175.085 45.462C174.356 45.4649 173.634 45.3234 172.96 45.0458C172.286 44.7681 171.673 44.3598 171.158 43.8443C170.642 43.3288 170.234 42.7163 169.956 42.0422C169.679 41.3681 169.537 40.6457 169.54 39.9167C169.543 39.1877 169.69 38.4664 169.973 37.7946C170.256 37.1227 170.669 36.5135 171.189 36.0021L175.704 31.4871C176.74 30.4513 178.145 29.8694 179.61 29.8694C181.074 29.8694 182.479 30.4513 183.515 31.4871ZM31.4849 31.4871C32.5207 30.4513 33.9256 29.8694 35.3904 29.8694C36.8553 29.8694 38.2601 30.4513 39.2959 31.4871L43.811 36.0021C44.3306 36.5135 44.7438 37.1227 45.0268 37.7946C45.3098 38.4664 45.457 39.1877 45.4599 39.9167C45.4628 40.6457 45.3213 41.3681 45.0436 42.0422C44.766 42.7163 44.3576 43.3288 43.8421 43.8443C43.3266 44.3598 42.7142 44.7681 42.0401 45.0458C41.366 45.3234 40.6436 45.4649 39.9146 45.462C39.1855 45.4591 38.4643 45.3119 37.7924 45.0289C37.1206 44.7459 36.5114 44.3327 36 43.8131L31.4849 39.2981C30.4494 38.262 29.8679 36.857 29.8683 35.3921C29.8687 33.9273 30.451 32.5226 31.4871 31.4871H31.4849ZM14.403 53.7527C14.7657 53.1244 15.2487 52.5737 15.8243 52.1321C16.3999 51.6905 17.0568 51.3666 17.7576 51.1789C18.4584 50.9912 19.1893 50.9434 19.9086 51.0383C20.6278 51.1331 21.3214 51.3687 21.9496 51.7317L27.4687 54.918C28.0969 55.2807 28.6475 55.7635 29.0891 56.339C29.5307 56.9145 29.8547 57.5713 30.0424 58.272C30.2302 58.9726 30.2781 59.7034 30.1835 60.4226C30.0888 61.1418 29.8534 61.8353 29.4908 62.4635C29.1281 63.0917 28.6452 63.6423 28.0698 64.084C27.4943 64.5256 26.8375 64.8495 26.1368 65.0373C25.4361 65.225 24.7054 65.273 23.9862 65.1783C23.267 65.0836 22.5735 64.8483 21.9453 64.4856L16.4262 61.2993C15.7977 60.9367 15.2468 60.4539 14.805 59.8784C14.3631 59.3029 14.039 58.6459 13.8511 57.9451C13.6632 57.2443 13.6153 56.5134 13.71 55.794C13.8047 55.0746 14.0402 54.381 14.403 53.7527ZM200.595 53.7527C201.327 55.0212 201.526 56.5286 201.147 57.9434C200.768 59.3582 199.842 60.5646 198.574 61.2971L193.055 64.4834C191.786 65.2159 190.278 65.4143 188.863 65.0351C187.448 64.6559 186.242 63.7301 185.509 62.4613C184.777 61.1926 184.578 59.6849 184.958 58.2698C185.337 56.8547 186.263 55.6483 187.531 54.9158L193.05 51.7295C193.679 51.3663 194.373 51.1306 195.092 51.0357C195.812 50.9408 196.543 50.9887 197.244 51.1766C197.945 51.3645 198.602 51.6887 199.178 52.1308C199.754 52.5728 200.237 53.1239 200.599 53.7527H200.595ZM211.339 79.6798C211.526 80.3806 211.574 81.1115 211.48 81.8309C211.385 82.5502 211.15 83.2439 210.787 83.8722C210.424 84.5005 209.941 85.0512 209.365 85.4928C208.79 85.9344 208.133 86.2583 207.432 86.4459L201.276 88.095C200.576 88.2827 199.845 88.3307 199.126 88.236C198.407 88.1413 197.713 87.906 197.085 87.5433C196.457 87.1807 195.906 86.6978 195.465 86.1224C195.023 85.5469 194.699 84.8901 194.511 84.1895C194.324 83.4888 194.276 82.7581 194.37 82.0389C194.465 81.3198 194.7 80.6263 195.063 79.9981C195.426 79.3699 195.909 78.8193 196.484 78.3777C197.059 77.9361 197.716 77.6122 198.417 77.4244L204.575 75.7754C205.989 75.3964 207.497 75.5949 208.765 76.327C210.033 77.0592 210.959 78.2652 211.339 79.6798ZM3.66364 79.6798C4.04305 78.2652 4.96875 77.0592 6.23717 76.327C7.5056 75.5949 9.01289 75.3964 10.4276 75.7754L16.5831 77.4266C17.9981 77.8058 19.2045 78.7315 19.937 80.0002C20.6694 81.2689 20.8678 82.7766 20.4886 84.1916C20.1094 85.6066 19.1837 86.813 17.915 87.5455C16.6463 88.2779 15.1386 88.4763 13.7236 88.0971L7.56808 86.4459C6.15349 86.0665 4.94751 85.1408 4.21532 83.8724C3.48313 82.604 3.28469 81.0967 3.66364 79.682V79.6798ZM0 107.501C0 106.036 0.581929 104.631 1.61777 103.595C2.65361 102.56 4.05851 101.978 5.52341 101.978H11.8982C13.3631 101.978 14.768 102.56 15.8039 103.595C16.8397 104.631 17.4216 106.036 17.4216 107.501C17.4216 108.966 16.8397 110.371 15.8039 111.407C14.768 112.443 13.3631 113.024 11.8982 113.024H5.52341C4.05851 113.024 2.65361 112.443 1.61777 111.407C0.581929 110.371 0 108.966 0 107.501ZM197.581 107.501C197.581 106.036 198.162 104.631 199.198 103.595C200.234 102.56 201.639 101.978 203.104 101.978H209.477C210.941 101.978 212.346 102.56 213.382 103.595C214.418 104.631 215 106.036 215 107.501C215 108.966 214.418 110.371 213.382 111.407C212.346 112.443 210.941 113.024 209.477 113.024H203.104C201.639 113.024 200.234 112.443 199.198 111.407C198.162 110.371 197.581 108.966 197.581 107.501ZM20.4897 130.818C20.6776 131.519 20.7256 132.25 20.631 132.969C20.5364 133.688 20.3009 134.382 19.9381 135.01C19.5754 135.639 19.0923 136.189 18.5167 136.631C17.941 137.073 17.284 137.397 16.5831 137.584L10.4276 139.233C9.72697 139.421 8.99621 139.469 8.27705 139.374C7.55789 139.28 6.86442 139.044 6.23623 138.682C4.96753 137.949 4.04176 136.743 3.66256 135.328C3.28337 133.913 3.48181 132.405 4.21423 131.136C4.94666 129.868 6.15307 128.942 7.56808 128.563L13.7236 126.914C14.4242 126.726 15.155 126.678 15.8743 126.772C16.5935 126.867 17.2871 127.102 17.9154 127.464C18.5437 127.827 19.0944 128.31 19.5361 128.885C19.9778 129.461 20.3019 130.117 20.4897 130.818ZM194.51 130.818C194.698 130.117 195.022 129.46 195.463 128.885C195.905 128.309 196.456 127.826 197.084 127.463C197.712 127.1 198.406 126.865 199.125 126.77C199.845 126.676 200.576 126.724 201.276 126.911L207.432 128.561C208.847 128.94 210.053 129.866 210.786 131.134C211.518 132.403 211.717 133.911 211.337 135.326C210.958 136.741 210.032 137.947 208.764 138.679C207.495 139.412 205.987 139.61 204.572 139.231L198.415 137.582C197.003 137.202 195.799 136.278 195.068 135.012C194.336 133.746 194.137 132.242 194.512 130.829L194.51 130.818ZM185.512 152.544C186.245 151.275 187.452 150.349 188.867 149.97C190.282 149.59 191.79 149.789 193.059 150.521L198.578 153.707C199.206 154.07 199.757 154.553 200.199 155.128C200.64 155.704 200.964 156.36 201.152 157.061C201.34 157.762 201.388 158.493 201.293 159.212C201.198 159.931 200.963 160.624 200.6 161.253C200.238 161.881 199.755 162.432 199.179 162.873C198.604 163.315 197.947 163.639 197.246 163.826C196.546 164.014 195.815 164.062 195.096 163.967C194.376 163.873 193.683 163.637 193.055 163.275L187.536 160.088C186.267 159.356 185.341 158.15 184.962 156.735C184.582 155.32 184.78 153.813 185.512 152.544ZM29.4897 152.544C30.222 153.813 30.4205 155.32 30.0415 156.735C29.6624 158.15 28.737 159.356 27.4687 160.088L21.9496 163.275C21.3214 163.637 20.6279 163.873 19.9087 163.967C19.1895 164.062 18.4587 164.014 17.758 163.826C17.0574 163.639 16.4005 163.315 15.8251 162.873C15.2496 162.432 14.7667 161.881 14.4041 161.253C14.0414 160.624 13.806 159.931 13.7114 159.212C13.6167 158.493 13.6646 157.762 13.8524 157.061C14.0402 156.36 14.3641 155.704 14.8057 155.128C15.2473 154.553 15.7979 154.07 16.4262 153.707L21.9453 150.521C23.214 149.789 24.7216 149.591 26.1365 149.97C27.5513 150.349 28.7575 151.275 29.4897 152.544ZM43.8045 171.198C44.3177 171.711 44.7248 172.32 45.0026 172.99C45.2803 173.66 45.4233 174.379 45.4233 175.104C45.4233 175.83 45.2803 176.548 45.0026 177.219C44.7248 177.889 44.3177 178.498 43.8045 179.011L39.2895 183.526C38.2509 184.548 36.8504 185.118 35.3931 185.113C33.9358 185.107 32.5398 184.525 31.5094 183.495C30.4789 182.464 29.8974 181.069 29.8916 179.611C29.8859 178.154 30.4562 176.753 31.4785 175.715L35.9935 171.2C37.0291 170.164 38.4337 169.581 39.8986 169.581C41.3634 169.581 42.7684 170.162 43.8045 171.198ZM171.198 171.198C172.233 170.162 173.638 169.58 175.103 169.58C176.568 169.58 177.973 170.162 179.009 171.198L183.524 175.713C184.559 176.749 185.141 178.154 185.141 179.619C185.141 181.084 184.559 182.489 183.523 183.525C182.487 184.561 181.081 185.142 179.616 185.142C178.151 185.142 176.746 184.56 175.71 183.524L171.195 179.009C170.161 177.972 169.579 176.567 169.58 175.103C169.58 173.638 170.162 172.233 171.198 171.198ZM62.4581 185.515C63.7265 186.247 64.6519 187.454 65.0309 188.868C65.4099 190.283 65.2114 191.791 64.4791 193.059L61.2971 198.58C60.5647 199.849 59.3582 200.775 57.9431 201.154C56.5281 201.533 55.0204 201.335 53.7516 200.602C52.4829 199.87 51.5571 198.663 51.1778 197.248C50.7986 195.833 50.9971 194.326 51.7295 193.057L54.9158 187.536C55.6484 186.268 56.8543 185.343 58.2686 184.964C59.6829 184.585 61.1898 184.783 62.4581 185.515ZM152.544 185.515C153.813 184.782 155.32 184.584 156.735 184.963C158.15 185.342 159.356 186.267 160.088 187.536L163.275 193.055C164.007 194.323 164.206 195.831 163.826 197.246C163.447 198.661 162.521 199.868 161.253 200.6C159.984 201.333 158.476 201.531 157.061 201.152C155.646 200.773 154.44 199.847 153.707 198.578L150.521 193.059C149.789 191.79 149.591 190.283 149.97 188.868C150.349 187.453 151.275 186.247 152.544 185.515ZM130.829 194.512C132.244 194.134 133.751 194.332 135.02 195.065C136.288 195.798 137.214 197.004 137.593 198.419L139.244 204.575C139.623 205.99 139.425 207.497 138.692 208.766C137.96 210.035 136.753 210.96 135.338 211.34C133.923 211.719 132.416 211.52 131.147 210.788C129.878 210.055 128.953 208.849 128.573 207.434L126.922 201.276C126.544 199.863 126.741 198.358 127.471 197.09C128.201 195.823 129.404 194.896 130.816 194.515L130.829 194.512ZM84.1992 194.512C84.9 194.7 85.557 195.024 86.1327 195.466C86.7084 195.907 87.1914 196.458 87.5542 197.086C87.9169 197.715 88.1524 198.408 88.247 199.128C88.3417 199.847 88.2936 200.578 88.1057 201.279L86.4567 207.436C86.0775 208.851 85.1517 210.058 83.883 210.79C82.6143 211.523 81.1066 211.721 79.6916 211.342C78.2766 210.963 77.0702 210.037 76.3378 208.768C75.6054 207.499 75.4069 205.992 75.7861 204.577L77.4352 198.421C77.8143 197.009 78.7378 195.805 80.0033 195.073C81.2688 194.34 82.773 194.14 84.1862 194.515L84.1992 194.512ZM107.501 197.581C108.966 197.581 110.371 198.162 111.407 199.198C112.443 200.234 113.024 201.639 113.024 203.104V209.477C113.024 210.941 112.443 212.346 111.407 213.382C110.371 214.418 108.966 215 107.501 215C106.036 215 104.631 214.418 103.595 213.382C102.56 212.346 101.978 210.941 101.978 209.477V203.104C101.978 201.639 102.56 200.234 103.595 199.198C104.631 198.162 106.036 197.581 107.501 197.581Z" fill="#F2F4F4"/>
<circle cx="107.287" cy="107.499" r="77.6601" fill="#FAFAFA"/>
<mask id="mask0_2913_5810" style="mask-type:alpha" maskUnits="userSpaceOnUse" x="29" y="29" width="156" height="157">
<circle cx="107.287" cy="107.499" r="77.6601" fill="white"/>
</mask>
<g mask="url(#mask0_2913_5810)">
<path fill-rule="evenodd" clip-rule="evenodd" d="M143.626 121.237C145.127 119.032 145.13 116.724 144.027 114.348C143.191 112.548 140.593 110.721 138.582 110.911C136.047 111.151 133.236 112.97 131.728 115.802C132.479 113.604 132.968 111.246 133.29 109.693C133.859 106.946 132.1 102.83 129.608 101.526C127.728 100.543 123.305 99.4161 120.506 101.229C120.342 100.891 121.123 99.2615 121.123 99.2615C122.064 95.5913 122.758 91.5597 123.808 87.9207C124.611 85.1365 125.41 82.3203 126.103 79.5386C126.982 75.999 127.947 72.4942 129.05 69.0272C129.7 66.9819 128.28 62.8588 126.274 62.0149C123.28 60.7552 118.816 60.9908 117.389 65.6156C114.355 75.4494 111.118 85.2202 107.963 95.0167C106.899 98.3204 105.84 101.626 104.763 104.925C104.621 105.361 104.562 105.979 103.881 105.873C103.486 105.813 103.599 105.398 103.582 105.108C103.199 98.3089 102.207 95.7404 101.815 88.942C101.478 83.114 101.782 73.053 101.365 67.2305C101.25 65.6145 101.194 63.9238 100.251 62.4855C99.0708 60.686 96.0532 59.6342 93.8675 60.2313C91.4924 60.8791 89.528 62.9948 89.4475 65.2972C89.2357 71.3868 89.2434 77.483 89.1686 83.5756C89.0918 89.792 88.9716 96.0061 88.9853 102.225C89.0027 109.481 88.6725 116.737 88.6581 123.993C88.653 126.252 88.6469 128.505 88.513 130.759L88.4921 141.644C88.0552 148.666 90.4723 154.445 96.3665 158.494C97.4602 159.244 97.6325 160.014 97.3764 161.093C95.3965 169.434 93.3405 177.755 91.518 186.135C89.9545 193.323 130.346 190.982 131.156 183.821C131.85 177.687 132.272 171.523 132.892 165.379C133.038 163.932 133.552 162.525 133.533 161.046C133.523 160.264 134.192 160.061 134.666 159.73C138.375 157.138 140.244 153.476 140.611 149.079C141.201 141.997 141.227 141.059 141.714 133.969C141.714 133.969 141.852 126.268 142.604 123.067C142.809 122.498 143.2 121.864 143.626 121.237Z" fill="black" fill-opacity="0.05"/>
<path fill-rule="evenodd" clip-rule="evenodd" d="M137.69 119.214C139.031 116.909 138.872 114.606 137.605 112.314C136.644 110.577 133.924 108.937 131.931 109.268C129.419 109.686 126.744 111.699 125.438 114.63C126.033 112.384 126.355 109.998 126.566 108.426C126.941 105.645 124.897 101.663 122.319 100.538C120.375 99.69 115.883 98.8767 113.219 100.882C113.032 100.556 113.696 98.8759 113.696 98.8759C114.376 95.1485 114.785 91.0782 115.576 87.3743C116.181 84.5405 116.781 81.675 117.276 78.8515C117.904 75.2589 118.621 71.6949 119.477 68.1589C119.981 66.0729 118.275 62.0599 116.214 61.3592C113.139 60.3132 108.702 60.8623 107.605 65.576C105.27 75.5989 102.728 85.5732 100.27 95.5674C99.4411 98.9378 98.6168 102.31 97.7747 105.676C97.6636 106.121 97.6488 106.741 96.9614 106.684C96.5632 106.652 96.6471 106.23 96.6103 105.942C95.7498 99.1865 94.5787 96.6943 93.7095 89.9402C92.9638 84.1504 92.559 74.0929 91.7339 68.3142C91.505 66.7103 91.3305 65.0277 90.2883 63.6594C88.9847 61.9473 85.9007 61.1104 83.7624 61.8597C81.4387 62.673 79.628 64.9217 79.7097 67.2241C79.9268 73.3135 80.3633 79.394 80.7174 85.4768C81.078 91.6832 81.3953 97.8904 81.8465 104.093C82.3742 111.329 82.5553 118.59 83.0514 125.83C83.2052 128.083 83.3576 130.331 83.3826 132.589L84.1275 143.449C84.1856 150.484 87.0033 156.078 93.1677 159.703C94.3116 160.375 94.5375 161.131 94.3579 162.225C92.9697 170.684 91.5042 179.13 90.2758 187.617C89.2217 194.897 129.349 189.72 129.653 182.52C129.913 176.352 129.901 170.174 130.087 164.002C130.131 162.548 130.545 161.109 130.422 159.634C130.356 158.855 131.01 158.605 131.46 158.242C134.976 155.395 136.584 151.611 136.64 147.199C136.73 140.094 136.691 139.155 136.677 132.048C136.677 132.048 136.273 124.357 136.798 121.111C136.963 120.529 137.308 119.87 137.69 119.214Z" fill="#F8DEAC"/>
<path d="M92.0125 167.057C92.057 166.74 92.1685 166.436 92.3396 166.165C92.5107 165.895 92.7374 165.665 93.0045 165.491C93.2716 165.317 93.5728 165.203 93.888 165.156C94.2031 165.109 94.5249 165.131 94.8316 165.219C99.5943 166.662 111.092 169.088 128.109 165.963L128.725 165.868C129.047 165.818 129.375 165.839 129.688 165.931C130.001 166.023 130.29 166.182 130.536 166.398C130.782 166.613 130.978 166.88 131.111 167.18C131.244 167.48 131.31 167.805 131.305 168.132C131.249 172.297 130.959 180.195 130.83 183.565C130.814 184.034 130.651 184.485 130.365 184.854C130.08 185.223 129.685 185.491 129.238 185.621C123.449 187.319 102.675 192.721 90.8833 186.611C90.4668 186.396 90.126 186.057 89.9076 185.64C89.6892 185.223 89.6039 184.749 89.6634 184.283L92.0125 167.057Z" fill="#557BE4"/>
<path d="M112.041 166.314C106.068 166.18 100.135 165.262 94.3918 163.583C94.2 163.519 93.9962 163.502 93.7971 163.533C93.5979 163.565 93.4093 163.643 93.2467 163.763C93.0841 163.882 92.9522 164.039 92.8619 164.22C92.7716 164.402 92.7255 164.602 92.7275 164.805C92.7322 165.305 92.8618 165.796 93.1045 166.233C93.3472 166.67 93.695 167.038 94.1158 167.305C96.8829 168.956 102.555 171.299 110.659 171.888C116.749 172.338 122.863 171.567 128.646 169.62C129.385 169.338 130.024 168.842 130.482 168.195C130.941 167.547 131.199 166.776 131.223 165.98C131.278 165.045 129.369 163.863 128.493 164.18C125.219 165.344 119.447 166.552 112.041 166.314Z" fill="white"/>
<path d="M114.1 97.3104C114.1 97.3104 110.927 111.435 110.087 113.037" stroke="#E3AC1F" stroke-width="1.53025" stroke-linecap="round" stroke-linejoin="round"/>
<path fill-rule="evenodd" clip-rule="evenodd" d="M125.743 160.243C125.743 160.243 112.378 163.481 99.0137 161.179C99.0137 161.179 111.767 170.431 125.743 160.243Z" fill="#E3AC1F"/>
<path d="M83.3579 131.422C83.2195 128.406 90.3998 120.911 101.847 117.882" stroke="#E3AC1F" stroke-width="1.53025" stroke-linecap="round" stroke-linejoin="round"/>
<path d="M107.958 115.964L116.013 113.283C116.013 113.283 123.141 109.466 125.194 114.985C127.247 120.504 121.449 122.705 121.449 122.705C121.449 122.705 109.809 128.998 107.958 129.125" stroke="#E3AC1F" stroke-width="1.53025" stroke-linecap="round" stroke-linejoin="round"/>
<path d="M123.557 121.41C123.557 121.41 118.907 134.797 124.968 137.028C129.837 138.82 132.266 130.681 133.286 128.634" stroke="#E3AC1F" stroke-width="1.53025" stroke-linecap="round" stroke-linejoin="round"/>
<path d="M137.605 112.314C137.605 112.314 140.858 115.328 136.175 123.27" stroke="#E3AC1F" stroke-width="1.53025" stroke-linecap="round" stroke-linejoin="round"/>
<path d="M109.88 129.924C109.88 129.924 110.64 134.124 115.022 134.165C119.403 134.206 120.566 129.682 120.566 129.682" stroke="#E3AC1F" stroke-width="1.53025" stroke-linecap="round" stroke-linejoin="round"/>
</g>
</svg>
