<svg xmlns="http://www.w3.org/2000/svg" width="56" height="56">
    <defs>
        <clipPath id="clip-path">
            <circle id="mask" cx="28" cy="28" r="28" style="fill:#fafafa"/>
        </clipPath>
        <style>
            .cls-4{fill:#fde8b3}.cls-4,.cls-5,.cls-8{fill-rule:evenodd}.cls-5{fill:#aaa}.cls-8{fill:#343127}
        </style>
    </defs>
    <g id="icon-user">
        <rect id="circle" width="56" height="56" rx="28" style="fill:#fff"/>
        <g id="user-circle" style="clip-path:url(#clip-path)">
            <g id="Grupo_59" data-name="Grupo 59" transform="translate(7.798 4.386)">
                <path id="Fill-27" class="cls-4" d="M0 0a9.419 9.419 0 0 0 4.969 3.849l7.277 2.731h6.946l7.274-2.731A9.422 9.422 0 0 0 31.436 0H0" transform="rotate(180 18.277 20.957)"/>
                <path id="Fill-28" class="cls-5" d="M1.87 0h11.289c0 1.91-.126 4.632-.126 4.632-.663 11.436-9.076 13.234-9.076 13.234C-2.6 19.439.973 9.388.973 9.388A39.176 39.176 0 0 1 1.87 0" transform="rotate(180 6.58 28.024)"/>
                <path id="Fill-29" class="cls-4" d="M0 0h9.5v9.26H0z" transform="rotate(180 12.793 18.886)"/>
                <path id="Fill-30" d="M9.5.133v4.253H0V2.279C2.711.051 5.976-.231 9.5.133" transform="rotate(180 12.793 16.449)" style="fill:#fcd128;fill-rule:evenodd"/>
                <path id="Fill-31" d="M33.5 0c.183 5.026.127 6.406.082 8.12-.1 3.818-.914 7.046-3.424 9.88h-.012l-6.8 2.222s1.43-2.509-4.818-2.509c0 0-4.115.161-4.717 2.509L6.913 18A9.73 9.73 0 0 1 0 10.321l3.47-6.4L3.346 0H33.5" transform="rotate(180 19.617 28.024)" style="fill:#ccc;fill-rule:evenodd"/>
                <path id="Fill-32" class="cls-8" d="M4.63 8.765c0 2.2-.092 4.4-.041 6.6.033 1.406.16 1.044-1.435 1.2C.943 16.778.2 12.585.049 10.771A31.479 31.479 0 0 1 .773 3.14C.92 2.259.88.494 1.783.081 2.555-.272 3.361.6 3.766 1.243c.932 1.483.767 3.749.829 5.431.025.7.035 1.394.035 2.09" transform="rotate(180 7.067 11.697)"/>
                <path id="Fill-33" class="cls-4" d="M20 5.248c-.956-3.766-2.641-4.8-2.641-4.8L15.1 0c-1.3.166-3.542.7-3.542.7-5.158 1.764-6.65 2.241-7.45 4.215C4.074 5 .041 19.092.041 19.092c-.66 7.254 6.883 8.763 8.022 8.953 1.127.262 8.309 2.271 10.43-4.693A38.056 38.056 0 0 0 20 5.248" transform="rotate(180 15.23 16.206)"/>
                <path id="Fill-34" class="cls-8" d="M2.527 21.2C0 19.985-.086 17.731.032 15.169a18.246 18.246 0 0 1 1.417-5.608 23.634 23.634 0 0 1 2.288-5.177A22.005 22.005 0 0 1 7.569 0c-.625 2.473-.8 4.32-1.369 6.219a11.962 11.962 0 0 0 .532 7.674 3.706 3.706 0 0 0 2.94 2L2.527 21.2" transform="rotate(180 16.936 14.012)"/>
                <path id="Fill-35" class="cls-4" d="M3.624 3.171S2.35 6.032.349 4.337c0 0-.911-.734.211-2.649 0 0 1.63-2.753 3.583-1.228l-.519 2.71" transform="rotate(180 15.352 12.185)"/>
                <path id="Fill-36" class="cls-8" d="M2.265 7.8s.008-4.97.9-7.606L2.219 0S1.72 3.409 0 3.449L2.265 7.8" transform="rotate(180 14.743 11.332)"/>
                <path id="Fill-37" class="cls-8" d="M23.206 8.3C31.35 0 6.706.084 6.706.084S4.121-1.112.028 5.528c0 0-1.1 5.194 10.549 6.829 0 0 7.7.946 12.629-4.055" transform="rotate(180 15.596 6.214)"/>
                <path id="Fill-38" class="cls-5" d="M10.478 0H0s.036 2.5.042 2.679a50.141 50.141 0 0 0 .674 7.361c.63 3.465 2.3 6.537 5.986 7.418a3.924 3.924 0 0 0 4.1-2.018s1.664-2.068-.324-15.44" transform="rotate(180 20.105 28.024)"/>
            </g>
        </g>
    </g>
</svg>
