<svg width="280" height="280" viewBox="0 0 280 280" fill="none" xmlns="http://www.w3.org/2000/svg">
<path d="M280 140C280 62.6801 217.32 0 140 0C62.6801 0 0 62.6801 0 140C0 217.32 62.6801 280 140 280C217.32 280 280 217.32 280 140Z" fill="#F0F0F0"/>
<path fill-rule="evenodd" clip-rule="evenodd" d="M179.221 163.941V157.466C178.267 156.369 177.49 155.129 176.92 153.791V153.8C175.638 150.836 174.032 148.02 172.763 145.057C168.813 145.033 166.856 139.78 166.856 139.78C164.981 134.628 167.587 133.31 167.587 133.31C169.71 132.172 171.292 132.469 172.448 133.297C173.512 129.474 176.507 128.052 183.062 124.398C187.587 121.959 191.415 118.405 194.182 114.073C198.062 108.418 195.144 106.438 202.825 106.696C202.825 106.696 215.512 106.264 219.76 122.493C220.417 131.751 220.317 141.399 217.458 150.269C215.916 155.053 213.965 160.642 210.409 164.326C207.913 166.913 204.143 167.931 200.338 167.913V172.968C205.992 175.887 211.106 179.356 217.351 174.412C226.432 167.211 226.031 130.166 222.928 110.84C222.63 108.599 222.178 106.382 221.575 104.205C221.519 103.995 221.46 103.813 221.404 103.614C221.361 103.47 221.316 103.323 221.276 103.176C221.183 102.869 221.09 102.579 220.995 102.301C219.691 98.384 217.955 95.2515 216.017 93.4097C198.775 77.0113 166.934 83.2535 157.203 108.891C154.198 116.804 155.608 146.341 156.971 155.416C158.714 167.023 162.887 175.122 171.321 175.836C173.963 176.401 176.714 176.17 179.225 175.171V163.941H179.221Z" fill="#28251D"/>
<path fill-rule="evenodd" clip-rule="evenodd" d="M192.162 166.318C187.661 164.452 183.553 161.752 180.055 158.36C179.762 158.077 179.488 157.775 179.221 157.467V163.942C185.107 168.026 193.372 169.287 200.338 169.499V167.914C197.537 167.9 194.763 167.358 192.162 166.318Z" fill="#FCC514"/>
<path fill-rule="evenodd" clip-rule="evenodd" d="M176.615 178.089V178.173C176.637 179.31 177.539 183.484 189.785 183.484H189.872C190.911 183.471 201.193 183.192 202.521 177.772L200.34 176.941V169.504C193.374 169.292 185.109 168.031 179.223 163.947V176.952L171.748 179.279L176.633 177.888C176.623 177.955 176.617 178.022 176.617 178.089" fill="#FEE0A3"/>
<path fill-rule="evenodd" clip-rule="evenodd" d="M192.162 166.318C194.763 167.358 197.537 167.9 200.338 167.914C204.143 167.93 207.913 166.912 210.409 164.327C213.965 160.639 215.916 155.052 217.459 150.267C220.319 141.396 220.419 131.747 219.762 122.489C215.514 106.262 202.827 106.693 202.827 106.693C195.145 106.436 198.064 108.416 194.184 114.07C191.417 118.403 187.589 121.958 183.063 124.397C176.508 128.052 173.513 129.472 172.449 133.296C171.292 132.468 169.711 132.169 167.588 133.309C167.588 133.309 164.983 134.627 166.857 139.779C166.857 139.779 168.814 145.029 172.764 145.057C174.036 148.019 175.639 150.832 176.921 153.8V153.79C177.491 155.128 178.267 156.368 179.222 157.465C179.484 157.773 179.763 158.077 180.056 158.358C183.554 161.75 187.661 164.451 192.162 166.318Z" fill="#FEE1A5"/>
<path fill-rule="evenodd" clip-rule="evenodd" d="M229.962 193.314C226.563 188.521 221.796 184.866 216.285 182.829L216.164 182.789L216.141 182.782L202.532 177.739C202.529 177.75 202.524 177.761 202.52 177.772C201.191 183.192 190.91 183.47 189.871 183.484H189.783C177.533 183.484 176.635 179.311 176.614 178.173V178.089C176.614 178.021 176.619 177.954 176.629 177.888L171.748 179.28L159.449 182.78C156.133 183.84 153.105 185.648 150.598 188.064C150.555 188.095 150.499 188.138 150.43 188.192L150.29 188.304C148.511 189.736 141.353 196.21 139.203 209.213C139.203 209.213 139.097 209.866 138.935 210.986C152.272 223.332 169.732 230.263 187.906 230.425C206.079 230.587 223.66 223.968 237.214 211.861C235.411 200.836 231.844 195.472 229.962 193.311" fill="#C0BEBE"/>
<path fill-rule="evenodd" clip-rule="evenodd" d="M89.2395 149.651C89.2395 149.651 89.4329 149.644 89.7715 149.616L90.0524 149.591C92.6065 149.349 100.377 148.191 101.706 143.006L103.663 143.637L101.684 142.907V129.372C94.388 135.557 85.6021 136.339 76.1189 135.329V143.129L76.5074 143.002C76.5074 143.002 72.7274 149.652 89.2404 149.652" fill="#FCE7B4"/>
<path fill-rule="evenodd" clip-rule="evenodd" d="M138.737 170.047C137.242 161.873 133.545 154.528 125.798 151.39C123.955 150.317 121.986 149.478 119.935 148.891L103.66 143.641L101.701 143.005C100.38 148.188 92.6013 149.349 90.0515 149.591L89.7715 149.616C89.432 149.644 89.2395 149.652 89.2395 149.652C72.7265 149.655 76.5013 143.005 76.5013 143.005L76.1145 143.133L58.527 148.891H58.5025C58.4719 148.926 58.4404 148.962 58.415 148.997C53.1283 150.932 40.0251 157.682 36.8638 177.703C50.2787 189.869 67.7477 196.596 85.8576 196.57C95.8744 196.581 105.786 194.527 114.973 190.534C124.159 186.542 132.424 180.698 139.25 173.367C139.094 172.259 138.923 171.151 138.737 170.042" fill="#CCCACA"/>
<path fill-rule="evenodd" clip-rule="evenodd" d="M101.684 129.376V125.067C98.9512 127.659 94.1106 129.26 84.1496 132.631C84.1496 132.631 79.5918 133.705 76.1189 134.271V135.336C85.6021 136.346 94.388 135.563 101.684 129.379" fill="#FDD12C"/>
<path fill-rule="evenodd" clip-rule="evenodd" d="M101.684 125.069C102.564 124.231 103.277 123.233 103.784 122.128C103.716 122.188 103.656 122.252 103.588 122.312C104.55 118.507 105.109 115.272 105.704 112.235C110.135 113.971 113.592 107.935 113.592 107.935C116.561 102.669 114.156 100.657 114.156 100.657C113.252 99.7436 112.028 99.2174 110.744 99.1892C107.642 101.246 106.671 107.704 106.671 107.704L104.124 107.188C106.224 101.07 106.505 90.2135 106.542 87.5885C106.314 86.9252 106.081 86.2637 105.808 85.6136C104.689 83.429 102.79 81.7446 100.488 80.8947C99.8395 80.9846 99.1793 80.9174 98.5626 80.6987C98.5626 80.6987 78.4219 80.7643 64.2338 77.0535C60.1488 91.1929 59.2381 106.06 61.5668 120.593C64.1244 130.561 68.6324 133.299 68.6324 133.299L74.6769 134.485C75.124 134.429 75.6131 134.356 76.1241 134.272C79.597 133.706 84.1549 132.633 84.1549 132.633C94.1098 129.26 98.9503 127.66 101.684 125.069Z" fill="#FCE7B4"/>
<path fill-rule="evenodd" clip-rule="evenodd" d="M98.5565 80.697C99.173 80.9164 99.8334 80.9839 100.482 80.8938C102.784 81.7435 104.683 83.4271 105.802 85.611C106.074 86.2611 106.309 86.9235 106.536 87.5867C106.499 90.2065 106.219 101.067 104.118 107.187L106.666 107.702C106.666 107.702 107.636 101.245 110.737 99.1875C112.022 99.2155 113.246 99.742 114.15 100.656C114.15 100.656 116.559 102.668 113.593 107.933C113.593 107.933 110.135 113.971 105.706 112.234C105.109 115.27 104.551 118.507 103.588 122.31C103.656 122.252 103.716 122.186 103.785 122.126C107.578 118.776 110.918 114.945 113.719 110.73C116.274 106.43 118.304 101.839 119.766 97.0551C121.796 92.3481 123.06 87.3467 123.512 82.2405C123.823 75.4732 123.599 69.5197 116.917 66.3093L115.587 67.299C115.798 66.9691 116.006 66.6462 116.218 66.3006C116.218 66.3006 119.128 52.5631 88.3181 48.2397C88.3181 48.2397 67.9534 45.7381 54.9176 58.9646V58.9698C46.858 67.1808 50.9408 72.2865 59.2069 75.468C59.1736 79.2978 59.0739 83.1277 59.0739 86.9567C59.0739 88.7942 59.101 90.6317 59.1666 92.4841C59.3014 96.1153 59.0608 100.759 60.3041 104.481C60.3298 95.1996 61.651 85.9671 64.2294 77.0508C78.4193 80.7617 98.5583 80.6943 98.5583 80.6943" fill="#353127"/>
</svg>
