<?xml version="1.0" standalone="no"?>
<!DOCTYPE svg PUBLIC "-//W3C//DTD SVG 20010904//EN"
 "http://www.w3.org/TR/2001/REC-SVG-20010904/DTD/svg10.dtd">
<svg version="1.0" xmlns="http://www.w3.org/2000/svg"
 width="480.000000pt" height="516.000000pt" viewBox="0 0 480.000000 516.000000"
 preserveAspectRatio="xMidYMid meet">

<g transform="translate(0.000000,516.000000) scale(0.100000,-0.100000)"
fill="#000000" stroke="none">
<path d="M239 5134 c-66 -20 -137 -72 -176 -128 -68 -99 -64 60 -61 -2186 l3
-2035 28 -56 c33 -69 99 -132 175 -167 l57 -27 1243 -3 c683 -1 1242 -1 1242
0 0 2 -12 48 -26 103 -35 135 -45 376 -20 510 40 212 139 424 267 570 17 19
29 39 27 44 -6 18 -1119 1330 -1145 1351 -38 30 -84 35 -131 13 -27 -12 -261
-230 -692 -643 -359 -344 -656 -626 -661 -628 -5 -2 -9 618 -9 1447 0 1438 0
1451 20 1471 20 20 33 20 1940 20 1907 0 1920 0 1940 -20 20 -20 20 -33 20
-1360 0 -1113 2 -1340 13 -1340 25 0 221 -101 285 -146 l62 -45 0 1500 0 1500
-22 58 c-25 69 -99 147 -173 183 l-50 25 -2055 2 c-1759 1 -2062 0 -2101 -13z"/>
<path d="M3290 4386 c-237 -67 -393 -309 -350 -545 43 -236 238 -401 474 -401
228 0 413 143 471 365 65 250 -103 526 -356 584 -59 14 -184 12 -239 -3z"/>
<path d="M3292 2890 c-18 -11 -39 -35 -48 -52 -19 -40 -174 -980 -163 -992 4
-4 37 15 73 42 264 203 589 287 916 238 52 -8 98 -12 102 -8 7 7 -674 728
-727 770 -36 29 -107 30 -153 2z"/>
<path d="M3775 1844 c-148 -24 -307 -84 -412 -155 -69 -47 -178 -154 -229
-225 -58 -81 -119 -211 -145 -309 -29 -105 -31 -325 -6 -429 42 -170 132 -329
252 -449 116 -115 230 -181 404 -234 76 -23 103 -26 236 -27 178 0 267 19 410
89 558 274 687 1011 256 1458 -119 125 -274 216 -436 257 -78 20 -267 34 -330
24z m249 -314 c126 -32 201 -74 291 -165 90 -89 143 -181 169 -295 32 -133 12
-300 -49 -420 l-27 -53 -28 29 c-87 91 -780 845 -780 850 0 10 92 46 153 59
90 19 183 18 271 -5z m-250 -724 c212 -230 386 -422 386 -426 0 -11 -71 -38
-144 -55 -134 -32 -302 -9 -429 57 -92 48 -213 173 -260 269 -89 182 -88 381
5 565 21 42 23 44 39 27 9 -10 191 -206 403 -437z"/>
</g>
</svg>
