<svg width="13" height="16" viewBox="0 0 13 16" fill="none" xmlns="http://www.w3.org/2000/svg">
<path d="M6.28128 8.14331C6.70166 8.14331 7.06166 7.9935 7.36128 7.69388C7.66038 7.39478 7.80994 7.03503 7.80994 6.61465C7.80994 6.19427 7.66038 5.83427 7.36128 5.53465C7.06166 5.23554 6.70166 5.08599 6.28128 5.08599C5.86089 5.08599 5.50115 5.23554 5.20204 5.53465C4.90242 5.83427 4.75261 6.19427 4.75261 6.61465C4.75261 7.03503 4.90242 7.39478 5.20204 7.69388C5.50115 7.9935 5.86089 8.14331 6.28128 8.14331ZM6.28128 13.7611C7.83541 12.3344 8.98828 11.0381 9.73987 9.87223C10.4915 8.70688 10.8673 7.67197 10.8673 6.76752C10.8673 5.37898 10.4245 4.24191 9.53885 3.35631C8.65376 2.47121 7.5679 2.02866 6.28128 2.02866C4.99465 2.02866 3.90854 2.47121 3.02293 3.35631C2.13784 4.24191 1.69529 5.37898 1.69529 6.76752C1.69529 7.67197 2.07108 8.70688 2.82268 9.87223C3.57427 11.0381 4.72714 12.3344 6.28128 13.7611ZM6.28128 15.5C6.17936 15.5 6.07745 15.4809 5.97554 15.4427C5.87363 15.4045 5.78446 15.3535 5.70803 15.2898C3.84815 13.6465 2.45962 12.1211 1.54242 10.7138C0.625225 9.30586 0.166626 7.99045 0.166626 6.76752C0.166626 4.85669 0.781403 3.33439 2.01096 2.20064C3.24 1.06688 4.66344 0.5 6.28128 0.5C7.89911 0.5 9.32255 1.06688 10.5516 2.20064C11.7811 3.33439 12.3959 4.85669 12.3959 6.76752C12.3959 7.99045 11.9373 9.30586 11.0201 10.7138C10.1029 12.1211 8.7144 13.6465 6.85452 15.2898C6.77809 15.3535 6.68892 15.4045 6.58701 15.4427C6.4851 15.4809 6.38319 15.5 6.28128 15.5Z" fill="#666666"/>
</svg>
