<svg width="32" height="22" viewBox="0 0 32 22" fill="none" xmlns="http://www.w3.org/2000/svg">
<g clip-path="url(#clip0_5725_45381)">
<path d="M30.9586 7.95058L28.6202 4.32059C28.4055 3.99469 28.1132 3.7281 27.7702 3.54505C27.4272 3.362 27.0441 3.2683 26.6559 3.27247H21.7188V0.785711C21.7188 0.57734 21.6368 0.377463 21.4905 0.230143C21.3444 0.0827746 21.1461 0 20.9394 0H0.761721C0.555101 0.00474569 0.358809 0.0919832 0.215996 0.242565C0.0732223 0.393146 -0.00441989 0.594752 0.000194523 0.802973V9.46723H0.0015274V14.0957C0.0015274 14.3041 0.0836437 14.5039 0.229793 14.6512C0.375989 14.7986 0.574229 14.8814 0.780989 14.8814H1.21435V17.9221C1.21435 18.1305 1.29646 18.3303 1.44266 18.4777C1.58881 18.625 1.7871 18.7078 1.99381 18.7078H4.3213C4.42796 19.615 4.86103 20.4512 5.53854 21.0581C6.21605 21.6648 7.09095 22 7.9972 22C8.9035 22 9.77835 21.6648 10.4559 21.0581C11.1334 20.4512 11.5665 19.615 11.6732 18.7078H20.9799C21.0866 19.615 21.5197 20.4512 22.1972 21.0581C22.8748 21.6648 23.7496 22 24.6559 22C25.5622 22 26.437 21.6648 27.1145 21.0581C27.792 20.4512 28.2252 19.615 28.3318 18.7078H29.6569C30.2778 18.7061 30.8729 18.4567 31.3118 18.0142C31.751 17.5716 31.9984 16.9718 32 16.3459V11.528C32.0053 10.2588 31.6434 9.01568 30.9586 7.95058H30.9586ZM9.97744 19.1345C9.81507 19.5296 9.54013 19.8674 9.18737 20.1049C8.83465 20.3425 8.4199 20.4694 7.99567 20.4694V20.4677C7.42773 20.4677 6.8829 20.2407 6.48076 19.8364C6.07866 19.4321 5.85206 18.8835 5.85059 18.3109V18.307C5.85059 17.8793 5.97637 17.4614 6.21211 17.1058C6.44779 16.7501 6.78281 16.473 7.17483 16.3094C7.5667 16.1457 7.99806 16.1029 8.41415 16.1863C8.83023 16.2697 9.2125 16.4757 9.51251 16.7781C9.81251 17.0805 10.0167 17.4658 10.0995 17.8852C10.1823 18.3047 10.1398 18.7394 9.97745 19.1345H9.97744ZM26.6384 19.1345C26.4761 19.5296 26.2011 19.8674 25.8484 20.1049C25.4957 20.3425 25.0809 20.4694 24.6567 20.4694V20.4677C24.0887 20.4677 23.5439 20.2407 23.1418 19.8364C22.7397 19.4321 22.5131 18.8835 22.5116 18.3109V18.307C22.5116 17.8793 22.6374 17.4614 22.8731 17.1058C23.1088 16.7501 23.4438 16.473 23.8358 16.3094C24.2277 16.1457 24.6591 16.1029 25.0751 16.1863C25.4912 16.2697 25.8735 16.4757 26.1735 16.7781C26.4734 17.0805 26.6777 17.4658 26.7605 17.8852C26.8433 18.3047 26.8008 18.7394 26.6384 19.1345H26.6384ZM30.4426 16.3994C30.4426 16.6078 30.3605 16.8076 30.2143 16.955C30.0681 17.1023 29.8698 17.1851 29.6631 17.1851H28.1821C27.945 16.4274 27.4743 15.7656 26.8386 15.2959C26.2028 14.8261 25.4352 14.5729 24.6469 14.5729C23.8587 14.5729 23.0909 14.8261 22.4553 15.2959C21.8196 15.7656 21.3489 16.4274 21.1116 17.1851H11.5243C11.2871 16.4274 10.8165 15.7656 10.1807 15.2959C9.54499 14.8261 8.77727 14.5729 7.98901 14.5729C7.20084 14.5729 6.43308 14.8261 5.79739 15.2959C5.1617 15.7656 4.691 16.4274 4.45379 17.1851H2.78573L2.77013 14.8782H4.59252C4.79928 14.8782 4.99752 14.7954 5.14367 14.6481C5.28991 14.5007 5.37198 14.3009 5.37198 14.0925C5.37198 13.8841 5.28991 13.6843 5.14367 13.5369C4.99752 13.3896 4.79928 13.3068 4.59252 13.3068H1.56045V9.00733H1.55921L1.56064 1.57141H20.1771V13.3429H11.9148C11.7081 13.3429 11.5098 13.4257 11.3636 13.5731C11.2175 13.7204 11.1353 13.9202 11.1353 14.1286C11.1353 14.3371 11.2175 14.5368 11.3636 14.6843C11.5098 14.8316 11.7081 14.9143 11.9148 14.9143H20.9566C21.1633 14.9143 21.3616 14.8316 21.5077 14.6843C21.6539 14.5368 21.736 14.3371 21.736 14.1286V4.89103H26.6559C26.7861 4.89147 26.914 4.92427 27.0285 4.98647C27.143 5.04871 27.2405 5.13844 27.3123 5.24773L29.6507 8.85345C29.7256 8.97338 29.7935 9.09778 29.8541 9.22587H23.9886V5.95882C23.9886 5.75045 23.9066 5.55058 23.7604 5.40326C23.6142 5.25589 23.4159 5.17311 23.2092 5.17311C23.0025 5.17311 22.8042 5.25589 22.658 5.40326C22.5119 5.55058 22.4297 5.75045 22.4297 5.95882V9.98947C22.4297 10.1979 22.5119 10.3977 22.658 10.5451C22.8042 10.6925 23.0025 10.7752 23.2092 10.7752H30.3802C30.4217 11.0303 30.4425 11.2884 30.4426 11.5468V16.3994L30.4426 16.3994Z" fill="black" fill-opacity="0.8"/>
</g>
<defs>
<clipPath id="clip0_5725_45381">
<rect width="32" height="22" fill="white"/>
</clipPath>
</defs>
</svg>
