<svg width="12" height="12" viewBox="0 0 12 12" fill="none" xmlns="http://www.w3.org/2000/svg">
<path d="M2.55698 5.57422H0.342847C0.153497 5.57422 0 5.76404 0 5.99814V11.4735C0 11.7076 0.153497 11.8975 0.342847 11.8975H2.55698C2.74631 11.8975 2.89982 11.7077 2.89982 11.4735V5.99814C2.8998 5.76404 2.74631 5.57422 2.55698 5.57422Z" fill="black"/>
<path d="M7.10676 0.0996094H4.89265C4.70332 0.0996094 4.5498 0.289404 4.5498 0.523531V11.4743C4.5498 11.7084 4.7033 11.8983 4.89265 11.8983H7.10678C7.29611 11.8983 7.44963 11.7085 7.44963 11.4744V0.523506C7.44961 0.289404 7.29611 0.0996094 7.10676 0.0996094Z" fill="black"/>
<path d="M11.6571 2.83789H9.44294C9.25361 2.83789 9.1001 3.02769 9.1001 3.26181V11.4749C9.1001 11.709 9.25359 11.8988 9.44294 11.8988H11.6571C11.8464 11.8988 11.9999 11.709 11.9999 11.4749V3.26181C11.9999 3.02771 11.8464 2.83789 11.6571 2.83789Z" fill="black"/>
</svg>
