<svg width="16" height="16" viewBox="0 0 16 16" fill="none" xmlns="http://www.w3.org/2000/svg">
<path d="M13.4345 4.00091C13.3665 3.75723 13.2379 3.53479 13.0605 3.35441L11.1465 1.44041C10.9661 1.26305 10.7437 1.13437 10.5 1.06641V3.00091C10.5 3.26612 10.6054 3.52048 10.7929 3.70801C10.9804 3.89555 11.2348 4.00091 11.5 4.00091H13.4345Z" fill="black"/>
<path d="M11.5 5C10.9696 5 10.4609 4.78929 10.0858 4.41421C9.71071 4.03914 9.5 3.53043 9.5 3V1H5C4.33696 1 3.70107 1.26339 3.23223 1.73223C2.76339 2.20107 2.5 2.83696 2.5 3.5V12.5C2.5 13.163 2.76339 13.7989 3.23223 14.2678C3.70107 14.7366 4.33696 15 5 15H11C11.663 15 12.2989 14.7366 12.7678 14.2678C13.2366 13.7989 13.5 13.163 13.5 12.5V5H11.5ZM5.5 12C5.40111 12 5.30444 11.9707 5.22221 11.9157C5.13999 11.8608 5.0759 11.7827 5.03806 11.6913C5.00022 11.6 4.99031 11.4994 5.00961 11.4025C5.0289 11.3055 5.07652 11.2164 5.14645 11.1464C5.21637 11.0765 5.30546 11.0289 5.40245 11.0096C5.49945 10.9903 5.59998 11.0002 5.69134 11.0381C5.7827 11.0759 5.86079 11.14 5.91573 11.2222C5.97068 11.3044 6 11.4011 6 11.5C6 11.6326 5.94732 11.7598 5.85355 11.8536C5.75979 11.9473 5.63261 12 5.5 12ZM5.5 10C5.40111 10 5.30444 9.97068 5.22221 9.91574C5.13999 9.86079 5.0759 9.7827 5.03806 9.69134C5.00022 9.59998 4.99031 9.49944 5.00961 9.40245C5.0289 9.30546 5.07652 9.21637 5.14645 9.14645C5.21637 9.07652 5.30546 9.0289 5.40245 9.00961C5.49945 8.99031 5.59998 9.00022 5.69134 9.03806C5.7827 9.0759 5.86079 9.13999 5.91573 9.22221C5.97068 9.30444 6 9.40111 6 9.5C6 9.63261 5.94732 9.75979 5.85355 9.85355C5.75979 9.94732 5.63261 10 5.5 10ZM5.5 8C5.40111 8 5.30444 7.97068 5.22221 7.91573C5.13999 7.86079 5.0759 7.7827 5.03806 7.69134C5.00022 7.59998 4.99031 7.49945 5.00961 7.40245C5.0289 7.30546 5.07652 7.21637 5.14645 7.14645C5.21637 7.07652 5.30546 7.0289 5.40245 7.00961C5.49945 6.99031 5.59998 7.00022 5.69134 7.03806C5.7827 7.0759 5.86079 7.13999 5.91573 7.22221C5.97068 7.30444 6 7.40111 6 7.5C6 7.63261 5.94732 7.75979 5.85355 7.85355C5.75979 7.94732 5.63261 8 5.5 8ZM10.5 12H7C6.86739 12 6.74021 11.9473 6.64645 11.8536C6.55268 11.7598 6.5 11.6326 6.5 11.5C6.5 11.3674 6.55268 11.2402 6.64645 11.1464C6.74021 11.0527 6.86739 11 7 11H10.5C10.6326 11 10.7598 11.0527 10.8536 11.1464C10.9473 11.2402 11 11.3674 11 11.5C11 11.6326 10.9473 11.7598 10.8536 11.8536C10.7598 11.9473 10.6326 12 10.5 12ZM10.5 10H7C6.86739 10 6.74021 9.94732 6.64645 9.85355C6.55268 9.75979 6.5 9.63261 6.5 9.5C6.5 9.36739 6.55268 9.24021 6.64645 9.14645C6.74021 9.05268 6.86739 9 7 9H10.5C10.6326 9 10.7598 9.05268 10.8536 9.14645C10.9473 9.24021 11 9.36739 11 9.5C11 9.63261 10.9473 9.75979 10.8536 9.85355C10.7598 9.94732 10.6326 10 10.5 10ZM10.5 8H7C6.86739 8 6.74021 7.94732 6.64645 7.85355C6.55268 7.75979 6.5 7.63261 6.5 7.5C6.5 7.36739 6.55268 7.24021 6.64645 7.14645C6.74021 7.05268 6.86739 7 7 7H10.5C10.6326 7 10.7598 7.05268 10.8536 7.14645C10.9473 7.24021 11 7.36739 11 7.5C11 7.63261 10.9473 7.75979 10.8536 7.85355C10.7598 7.94732 10.6326 8 10.5 8Z" fill="black"/>
</svg>
