<svg width="32" height="26" viewBox="0 0 32 26" fill="none" xmlns="http://www.w3.org/2000/svg">
<g clip-path="url(#clip0_5725_45361)">
<path d="M3.59885 22.1064C3.59977 22.1068 3.60038 22.1072 3.60129 22.1077C3.97568 22.3981 4.46561 22.5024 4.92557 22.3868C5.95786 22.1371 6.92789 21.9877 9.06986 21.9877C11.8181 21.9877 14.2649 22.2595 15.6369 22.6264C15.781 22.6648 15.9244 22.6571 16.0484 22.6257C17.4231 22.2774 19.8672 21.9877 22.6153 21.9877C24.7571 21.9877 25.7272 22.1373 26.7577 22.3868C27.2187 22.5026 27.7081 22.4008 28.0844 22.1066C28.4588 21.814 28.6758 21.3664 28.6791 20.895V20.8884C28.6776 16.9454 28.6774 2.35638 28.6774 2.35638C28.6774 1.90594 28.4488 1.46545 28.126 1.16644C27.8031 0.86743 27.3971 0.66369 26.902 0.49878C25.9117 0.16907 24.5328 0 22.615 0C20.7001 0 18.9679 0.17438 17.6568 0.4765C17.0014 0.62744 16.453 0.80426 16.0033 1.04822C15.9482 1.07801 15.8943 1.10919 15.8417 1.14166C15.7918 1.11096 15.741 1.08111 15.6888 1.05261C15.2393 0.80731 14.6912 0.62982 14.0352 0.47821C12.7231 0.17523 10.9878 0 9.06989 0C7.1551 0 5.77887 0.1684 4.78949 0.49677C4.29486 0.66102 3.88928 0.86414 3.56598 1.16071C3.24286 1.45752 3.01215 1.8927 3.00592 2.34082C3.00574 2.3446 3.00549 2.34833 3.00525 2.35187L3.00549 20.889C3.00549 21.3642 3.22473 21.8137 3.59887 22.1064L3.59885 22.1064ZM16.6344 2.52557C16.6629 2.50262 16.6789 2.48425 16.7588 2.44073C16.9973 2.3114 17.4422 2.15185 18.0119 2.02056C19.1515 1.75805 20.7986 1.58434 22.6146 1.58434L22.6146 1.58416C24.4334 1.58416 25.6903 1.76513 26.4011 2.00182C26.7565 2.12029 26.9676 2.25377 27.0491 2.32915C27.0832 2.36052 27.0891 2.36675 27.0931 2.37004C27.0931 2.39128 27.0933 16.8545 27.0949 20.841C25.9843 20.5743 24.8136 20.4034 22.6153 20.4034C20.2364 20.4034 18.2221 20.6149 16.6344 20.9281V2.52557H16.6344ZM4.58957 2.37378C4.59372 2.36975 4.60147 2.36115 4.63773 2.328C4.72129 2.25134 4.9332 2.11804 5.28885 2C5.99979 1.76398 7.25375 1.58411 9.06979 1.58411L9.06985 1.58417C10.8888 1.58417 12.5388 1.75897 13.6787 2.02222C14.2487 2.15393 14.6934 2.31391 14.9301 2.443C15.0081 2.48566 15.0222 2.5022 15.0501 2.52479V20.9284C13.4622 20.6152 11.4486 20.4038 9.06986 20.4038C6.87211 20.4038 5.70102 20.5748 4.58957 20.8413V2.37378V2.37378Z" fill="black" fill-opacity="0.8"/>
<path d="M12.6346 17.5693C13.0587 17.6771 13.4896 17.4208 13.5975 16.9969C13.6492 16.7933 13.6181 16.5774 13.5104 16.3967C13.4031 16.2161 13.2282 16.0857 13.0245 16.034C11.959 15.7632 10.8889 15.6293 9.81898 15.63C8.74909 15.6307 7.67921 15.7661 6.61592 16.034H6.61616C6.19203 16.1409 5.93476 16.5715 6.04176 16.9956C6.14875 17.4197 6.57924 17.6769 7.00337 17.5699C8.88923 17.0946 10.7501 17.0904 12.6346 17.5693Z" fill="black" fill-opacity="0.8"/>
<path d="M19.0476 7.00067C20.9334 6.52533 22.7943 6.52112 24.6789 7C25.1027 7.10785 25.5339 6.8515 25.6418 6.42761C25.7494 6.00372 25.4932 5.57257 25.0694 5.46466C24.0039 5.19391 22.9334 5.06 21.8632 5.06067C20.7933 5.06134 19.7241 5.19684 18.6608 5.46466C18.457 5.51599 18.282 5.64612 18.1742 5.82648C18.0663 6.00684 18.0345 6.22254 18.086 6.42633C18.1929 6.8504 18.6235 7.10767 19.0476 7.00067V7.00067Z" fill="black" fill-opacity="0.8"/>
<path d="M25.2788 17.4829C25.3572 17.4363 25.421 17.3724 25.4781 17.3036C25.7486 17.1904 25.939 16.9235 25.939 16.612V11.5803C25.939 11.1963 25.6459 10.8914 25.2737 10.8474C25.2088 10.8087 25.144 10.7689 25.0693 10.7499C24.0038 10.4791 22.9333 10.3452 21.8632 10.3458L21.8632 10.3456C20.7933 10.3463 19.7241 10.4811 18.6608 10.7492C18.5852 10.7683 18.5193 10.8082 18.4536 10.8474C18.0815 10.8915 17.7886 11.1964 17.7886 11.5803V16.612C17.7886 16.9232 17.9785 17.1899 18.2485 17.3034C18.4374 17.5306 18.7421 17.6471 19.0475 17.57C20.9334 17.0946 22.7943 17.0911 24.6788 17.57C24.8824 17.6217 25.0983 17.5903 25.2788 17.4829L25.2788 17.4829ZM21.8632 15.63C21.0034 15.6306 20.1448 15.7419 19.2886 15.9153V12.2399C21.0118 11.8418 22.7169 11.8387 24.439 12.2393V15.9144C23.5818 15.7402 22.7227 15.6295 21.8632 15.63V15.63Z" fill="black" fill-opacity="0.8"/>
<path d="M31.4513 3.23181C31.3028 3.08313 31.1015 2.99975 30.8913 2.99975V2.99957C30.6811 2.99957 30.4798 3.08288 30.3313 3.23163C30.1828 3.38013 30.0992 3.58148 30.0992 3.79163V21.8615C30.0992 23.0958 29.1158 24.0793 27.8815 24.0793H3.80194C2.56763 24.0793 1.58417 23.0955 1.58417 21.8615L1.58484 3.80151C1.58484 3.5913 1.50128 3.38977 1.35278 3.24121C1.20422 3.09271 1.00268 3.0094 0.79272 3.0094C0.58258 3.0094 0.38122 3.09271 0.23272 3.24121C0.08398 3.38977 0.00061 3.59131 0.00061 3.80151L0 21.8617C0 23.9522 1.71167 25.6639 3.80194 25.6639H27.8815C29.972 25.6639 31.6834 23.9522 31.6834 21.8617V3.79187C31.6834 3.58166 31.5999 3.38037 31.4513 3.23181Z" fill="black" fill-opacity="0.8"/>
<path d="M6.61108 12.2715C6.7395 12.3054 6.87219 12.3187 7.00335 12.2856C8.88921 11.8102 10.7501 11.806 12.6346 12.285C12.7654 12.3183 12.8978 12.3055 13.0259 12.2722C13.0654 12.2786 13.1009 12.2956 13.1421 12.2956C13.5561 12.2956 13.8921 11.9597 13.8921 11.5456V6.29413C13.8921 5.91028 13.5992 5.60547 13.2272 5.56134C13.1627 5.52313 13.0984 5.48346 13.0244 5.46466C11.9589 5.19397 10.8888 5.06 9.81897 5.06067C8.74909 5.06134 7.6792 5.19684 6.61591 5.46466H6.61615C6.54266 5.48321 6.48199 5.52252 6.41956 5.55872C6.04102 5.59674 5.7417 5.90564 5.7417 6.29413V11.5456C5.7417 11.9597 6.07764 12.2956 6.4917 12.2956C6.53406 12.2956 6.57068 12.2783 6.61108 12.2715V12.2715ZM12.3921 6.95373V10.6299C11.5358 10.4559 10.6775 10.3453 9.81897 10.3459V10.3456C8.95844 10.3462 8.09882 10.4573 7.2417 10.631V6.95538C8.96497 6.55694 10.67 6.55359 12.3921 6.95373V6.95373Z" fill="black" fill-opacity="0.8"/>
</g>
<defs>
<clipPath id="clip0_5725_45361">
<rect width="31.6834" height="25.6639" fill="white"/>
</clipPath>
</defs>
</svg>
