<svg width="10" height="10" viewBox="0 0 10 10" fill="none" xmlns="http://www.w3.org/2000/svg">
<path d="M0.120117 3.0639H4.84761C4.82592 3.10335 4.81133 3.13155 4.79555 3.15896C4.55889 3.56681 4.32223 3.97367 4.0901 4.38309C4.05066 4.4533 4.00944 4.4817 3.92424 4.4817C2.65614 4.47854 1.38809 4.47795 0.120117 4.47992V3.0639Z" fill="#E62B3B"/>
<path d="M3.13359 4.9147C3.37814 4.91371 3.62289 4.9147 3.86744 4.91056C3.92364 4.90957 3.93508 4.93028 3.94139 4.98116C3.97748 5.27304 4.11889 5.50102 4.36876 5.65959C4.36876 6.82593 4.36876 7.99234 4.36876 9.15882H3.12945C3.13083 9.13594 3.1332 9.11326 3.1332 9.09038C3.1332 7.72669 3.1332 6.363 3.1332 4.9993C3.1332 4.97662 3.13024 4.95375 3.12866 4.93107C3.13194 4.92624 3.13366 4.92053 3.13359 4.9147V4.9147Z" fill="#E62B3C"/>
<path d="M5.46655 5.5424C5.62926 5.3933 5.7111 5.19017 5.81938 5.00557C5.86119 4.93418 5.90339 4.90696 5.98642 4.90953C6.20829 4.91604 6.43055 4.91209 6.65242 4.91229C6.654 4.93832 6.65696 4.96435 6.65696 4.99118C6.65696 6.3546 6.65696 7.7179 6.65696 9.08107C6.65696 9.1071 6.65321 9.13313 6.65124 9.15995H5.45117C5.45477 9.13748 5.45721 9.11484 5.45847 9.09211C5.46149 7.90854 5.46419 6.72531 5.46655 5.5424Z" fill="#E62B3C"/>
<path d="M6.65015 9.15819C6.65212 9.13216 6.65587 9.10613 6.65587 9.0793C6.65587 7.71588 6.65587 6.35258 6.65587 4.98941C6.65587 4.96318 6.65291 4.93715 6.65133 4.91052H7.75318L7.752 9.15642L6.65015 9.15819Z" fill="#DEDFDE"/>
<path d="M1.65675 9.15861C1.63703 9.12548 1.59996 9.1308 1.57077 9.12193C1.18797 9.00518 0.925669 8.66991 0.924486 8.26818C0.920936 7.1754 0.924486 6.08242 0.922119 4.98944C0.922119 4.93284 0.932375 4.90957 0.99647 4.91055C1.34673 4.9143 1.69699 4.91331 2.04724 4.9139C2.048 4.91998 2.04987 4.92586 2.05277 4.93126C2.05081 4.94433 2.04956 4.9575 2.04902 4.9707L2.0502 9.1596L1.65675 9.15861Z" fill="#E62B3B"/>
<path d="M2.04806 9.15857L2.04688 4.96968C2.04742 4.95647 2.04867 4.94331 2.05062 4.93024H3.12881C3.13039 4.95292 3.13334 4.97579 3.13334 4.99847C3.13334 6.36217 3.13334 7.72586 3.13334 9.08955C3.13334 9.11243 3.13098 9.13511 3.1296 9.15798L2.04806 9.15857Z" fill="#DDE0E0"/>
<path d="M7.75488 9.15878L7.75607 4.91289C8.09134 4.91289 8.42463 4.91289 8.75892 4.91052C8.82202 4.91052 8.84155 4.92591 8.84135 4.99138C8.83938 6.08219 8.84135 7.1732 8.83879 8.264C8.8376 8.68309 8.55756 9.02862 8.14853 9.13531C8.12881 9.14064 8.10041 9.129 8.08936 9.15878H7.75488Z" fill="#E62B3B"/>
<path d="M5.4667 5.54419C5.46394 6.72749 5.46125 7.91027 5.45862 9.09253C5.45736 9.11525 5.45492 9.1379 5.45132 9.16037H4.36938C4.36938 7.99402 4.36938 6.82761 4.36938 5.66114C4.67645 5.85915 5.14859 5.8552 5.4667 5.54419Z" fill="#DDE0E0"/>
<path d="M4.84439 5.43513C4.39493 5.43612 4.11705 4.9553 4.34227 4.55554C4.58801 4.11713 4.84439 3.68345 5.09624 3.24779C5.54767 2.46681 6.00067 1.68662 6.44816 0.903474C6.49352 0.824587 6.5233 0.827348 6.59193 0.868172C6.87297 1.03502 7.15696 1.19713 7.44135 1.35826C7.4942 1.38804 7.50801 1.41032 7.47408 1.4689C6.76713 2.6873 6.06148 3.9065 5.35715 5.12649C5.24277 5.32489 5.06961 5.42349 4.84439 5.43513Z" fill="#DDE0E0"/>
<path d="M6.14782 4.47577C6.14427 4.43633 6.16755 4.4166 6.18155 4.39136C6.42156 3.97503 6.66355 3.5597 6.90139 3.14219C6.93472 3.08302 6.96983 3.06133 7.03944 3.06152C7.86473 3.06402 8.69022 3.06402 9.5159 3.06152C9.58808 3.06152 9.60879 3.0771 9.608 3.15205C9.60405 3.56778 9.60543 3.98371 9.608 4.39945C9.608 4.45269 9.60425 4.4807 9.5366 4.4805C8.41904 4.4784 7.302 4.47781 6.18549 4.47873C6.1707 4.47873 6.15887 4.47675 6.14782 4.47577Z" fill="#E62B3B"/>
<path d="M3.12814 4.92904H2.04996C2.04706 4.92364 2.04519 4.91776 2.04443 4.91168L3.13347 4.91267C3.13342 4.91854 3.13156 4.92426 3.12814 4.92904V4.92904Z" fill="#DEDFDE"/>
</svg>
