<svg width="362" height="365" viewBox="0 0 362 365" fill="none" xmlns="http://www.w3.org/2000/svg">
<g filter="url(#filter0_i_2_6419)">
<path fill-rule="evenodd" clip-rule="evenodd" d="M301.841 237.572C288.859 246.665 273.052 252 256 252C211.817 252 176 216.183 176 172C176 127.817 211.817 92 256 92C299.769 92 335.329 127.15 335.991 170.762C335.997 170.953 336 171.146 336 171.339V234.81C336 244.304 328.304 252 318.81 252C310.257 252 303.162 245.753 301.841 237.572Z" fill="url(#paint0_linear_2_6419)"/>
</g>
<circle cx="256" cy="172" r="45.6198" fill="white"/>
<path fill-rule="evenodd" clip-rule="evenodd" d="M238.686 166.195C237.944 168.194 237.539 170.358 237.539 172.615C237.539 182.811 245.804 191.077 256 191.077C266.196 191.077 274.462 182.811 274.462 172.615C274.462 162.419 266.196 154.154 256 154.154C255.23 154.154 254.47 154.201 253.724 154.293C253.919 155.094 254.022 155.93 254.022 156.791C254.022 162.618 249.299 167.341 243.473 167.341C241.749 167.341 240.122 166.927 238.686 166.195Z" fill="#333333"/>
<g filter="url(#filter1_d_2_6419)">
<path d="M316.248 298H218.044C206.422 298 197 307.443 197 319.091C197 330.739 206.422 340.182 218.044 340.182H316.248C327.871 340.182 337.292 330.739 337.292 319.091C337.292 307.443 327.871 298 316.248 298Z" fill="white"/>
<path d="M274.161 320.848H246.102C245.134 320.848 244.349 321.635 244.349 322.605C244.349 323.576 245.134 324.363 246.102 324.363H274.161C275.129 324.363 275.914 323.576 275.914 322.605C275.914 321.635 275.129 320.848 274.161 320.848Z" fill="#CCCCCC"/>
<path d="M298.712 312.939H246.102C245.134 312.939 244.349 313.726 244.349 314.697C244.349 315.667 245.134 316.454 246.102 316.454H298.712C299.68 316.454 300.466 315.667 300.466 314.697C300.466 313.726 299.68 312.939 298.712 312.939Z" fill="#CCCCCC"/>
<path d="M217.167 331.394C215.554 331.398 213.957 331.082 212.467 330.464C210.977 329.845 209.624 328.937 208.486 327.791C207.343 326.651 206.436 325.295 205.819 323.802C205.202 322.308 204.887 320.707 204.891 319.091C204.887 317.474 205.202 315.873 205.819 314.38C206.436 312.886 207.343 311.531 208.486 310.391C209.624 309.245 210.977 308.336 212.467 307.718C213.957 307.099 215.554 306.783 217.167 306.788C218.78 306.783 220.377 307.099 221.867 307.718C223.357 308.336 224.71 309.245 225.848 310.391C226.991 311.531 227.897 312.886 228.515 314.38C229.132 315.873 229.447 317.474 229.443 319.091C229.447 320.707 229.132 322.308 228.515 323.802C227.898 325.295 226.991 326.651 225.848 327.791C224.71 328.937 223.357 329.845 221.867 330.464C220.377 331.082 218.78 331.398 217.167 331.394ZM211.468 318.962C211.301 318.963 211.137 319.002 210.987 319.075C210.838 319.149 210.707 319.256 210.605 319.388C210.428 319.618 210.349 319.91 210.386 320.198C210.422 320.487 210.571 320.749 210.799 320.928L214.658 323.916C214.851 324.063 215.087 324.143 215.329 324.143C215.619 324.142 215.897 324.027 216.103 323.822L223.107 316.802C223.265 316.648 223.374 316.45 223.418 316.233C223.462 316.016 223.44 315.791 223.355 315.587C223.272 315.388 223.131 315.218 222.952 315.099C222.773 314.98 222.562 314.916 222.347 314.916H222.305C222.021 314.922 221.751 315.04 221.554 315.244L215.225 321.587L212.136 319.193C211.945 319.044 211.711 318.963 211.469 318.962H211.468Z" fill="black"/>
</g>
<g filter="url(#filter2_d_2_6419)">
<path d="M220.248 24H122.044C110.422 24 101 33.4427 101 45.0909C101 56.7391 110.422 66.1818 122.044 66.1818H220.248C231.871 66.1818 241.292 56.7391 241.292 45.0909C241.292 33.4427 231.871 24 220.248 24Z" fill="white"/>
<path d="M178.161 46.8479H150.102C149.134 46.8479 148.349 47.6346 148.349 48.605C148.349 49.5754 149.134 50.3621 150.102 50.3621H178.161C179.129 50.3621 179.914 49.5754 179.914 48.605C179.914 47.6346 179.129 46.8479 178.161 46.8479Z" fill="#CCCCCC"/>
<path d="M202.712 38.939H150.102C149.134 38.939 148.349 39.7256 148.349 40.6961C148.349 41.6665 149.134 42.4532 150.102 42.4532H202.712C203.68 42.4532 204.466 41.6665 204.466 40.6961C204.466 39.7256 203.68 38.939 202.712 38.939Z" fill="#CCCCCC"/>
<path d="M121.167 57.3935C119.554 57.398 117.957 57.0818 116.467 56.4634C114.977 55.8449 113.624 54.9364 112.486 53.7904C111.343 52.6506 110.436 51.2947 109.819 49.8014C109.202 48.308 108.887 46.7068 108.891 45.0904C108.887 43.4741 109.202 41.8729 109.819 40.3795C110.436 38.8862 111.343 37.5303 112.486 36.3904C113.624 35.2444 114.977 34.3359 116.467 33.7175C117.957 33.099 119.554 32.7829 121.167 32.7874C122.78 32.7829 124.377 33.099 125.867 33.7175C127.357 34.3359 128.71 35.2444 129.848 36.3904C130.991 37.5303 131.897 38.8862 132.515 40.3795C133.132 41.8729 133.447 43.4741 133.443 45.0904C133.447 46.7068 133.132 48.308 132.515 49.8014C131.898 51.2947 130.991 52.6506 129.848 53.7904C128.71 54.9365 127.357 55.845 125.867 56.4634C124.377 57.0819 122.78 57.398 121.167 57.3935ZM115.468 44.9621C115.301 44.9628 115.137 45.0015 114.987 45.0752C114.838 45.1489 114.707 45.2557 114.605 45.3875C114.428 45.6181 114.349 45.9094 114.386 46.1979C114.422 46.4864 114.571 46.7488 114.799 46.928L118.658 49.9159C118.851 50.0627 119.087 50.1423 119.329 50.1426C119.619 50.1422 119.897 50.0269 120.103 49.8218L127.107 42.8021C127.265 42.6481 127.374 42.4497 127.418 42.2328C127.462 42.016 127.44 41.7908 127.355 41.5867C127.272 41.3878 127.131 41.218 126.952 41.0987C126.773 40.9794 126.562 40.9159 126.347 40.9162H126.305C126.021 40.9218 125.751 41.0396 125.554 41.244L119.225 47.5871L116.136 45.1924C115.945 45.044 115.711 44.963 115.469 44.9621H115.468Z" fill="black"/>
</g>
<g filter="url(#filter3_d_2_6419)">
<path d="M143.248 230H45.0438C33.4216 230 24 239.443 24 251.091C24 262.739 33.4216 272.182 45.0438 272.182H143.248C154.871 272.182 164.292 262.739 164.292 251.091C164.292 239.443 154.871 230 143.248 230Z" fill="white"/>
<path d="M101.161 252.848H73.1023C72.1338 252.848 71.3486 253.635 71.3486 254.605C71.3486 255.575 72.1338 256.362 73.1023 256.362H101.161C102.129 256.362 102.914 255.575 102.914 254.605C102.914 253.635 102.129 252.848 101.161 252.848Z" fill="#CCCCCC"/>
<path d="M125.712 244.939H73.1023C72.1338 244.939 71.3486 245.726 71.3486 246.696C71.3486 247.667 72.1338 248.453 73.1023 248.453H125.712C126.68 248.453 127.466 247.667 127.466 246.696C127.466 245.726 126.68 244.939 125.712 244.939Z" fill="#CCCCCC"/>
<path d="M44.1672 263.394C42.5545 263.398 40.9569 263.082 39.4668 262.464C37.9768 261.845 36.624 260.937 35.4866 259.791C34.3432 258.651 33.4367 257.295 32.8196 255.802C32.2025 254.308 31.8871 252.707 31.8916 251.091C31.8872 249.474 32.2026 247.873 32.8197 246.38C33.4367 244.886 34.3432 243.531 35.4866 242.391C36.624 241.245 37.9768 240.336 39.4668 239.718C40.9569 239.099 42.5545 238.783 44.1672 238.788C45.78 238.783 47.3776 239.099 48.8676 239.718C50.3577 240.336 51.7105 241.245 52.8478 242.391C53.9912 243.531 54.8977 244.886 55.5148 246.38C56.1319 247.873 56.4473 249.474 56.4428 251.091C56.4473 252.707 56.1319 254.308 55.5149 255.802C54.8978 257.295 53.9913 258.651 52.8478 259.791C51.7105 260.937 50.3577 261.845 48.8676 262.464C47.3776 263.082 45.78 263.398 44.1672 263.394ZM38.4678 250.962C38.3013 250.963 38.137 251.002 37.9876 251.075C37.8381 251.149 37.7073 251.256 37.6051 251.388C37.4283 251.618 37.3496 251.91 37.386 252.198C37.4225 252.487 37.5712 252.749 37.7997 252.928L41.6577 255.916C41.851 256.063 42.0869 256.143 42.3294 256.143C42.6193 256.142 42.8973 256.027 43.1028 255.822L50.1068 248.802C50.2655 248.648 50.374 248.45 50.4183 248.233C50.4626 248.016 50.4405 247.791 50.355 247.587C50.2718 247.388 50.1317 247.218 49.9525 247.099C49.7732 246.98 49.5627 246.916 49.3475 246.916H49.3054C49.0216 246.922 48.7515 247.04 48.554 247.244L42.2251 253.587L39.136 251.193C38.9453 251.044 38.711 250.963 38.4696 250.962H38.4678Z" fill="black"/>
</g>
<defs>
<filter id="filter0_i_2_6419" x="176" y="92" width="160" height="160" filterUnits="userSpaceOnUse" color-interpolation-filters="sRGB">
<feFlood flood-opacity="0" result="BackgroundImageFix"/>
<feBlend mode="normal" in="SourceGraphic" in2="BackgroundImageFix" result="shape"/>
<feColorMatrix in="SourceAlpha" type="matrix" values="0 0 0 0 0 0 0 0 0 0 0 0 0 0 0 0 0 0 127 0" result="hardAlpha"/>
<feOffset/>
<feGaussianBlur stdDeviation="12"/>
<feComposite in2="hardAlpha" operator="arithmetic" k2="-1" k3="1"/>
<feColorMatrix type="matrix" values="0 0 0 0 0 0 0 0 0 0 0 0 0 0 0 0 0 0 0.15 0"/>
<feBlend mode="normal" in2="shape" result="effect1_innerShadow_2_6419"/>
</filter>
<filter id="filter1_d_2_6419" x="173" y="274" width="188.292" height="90.1819" filterUnits="userSpaceOnUse" color-interpolation-filters="sRGB">
<feFlood flood-opacity="0" result="BackgroundImageFix"/>
<feColorMatrix in="SourceAlpha" type="matrix" values="0 0 0 0 0 0 0 0 0 0 0 0 0 0 0 0 0 0 127 0" result="hardAlpha"/>
<feOffset/>
<feGaussianBlur stdDeviation="12"/>
<feComposite in2="hardAlpha" operator="out"/>
<feColorMatrix type="matrix" values="0 0 0 0 0 0 0 0 0 0 0 0 0 0 0 0 0 0 0.15 0"/>
<feBlend mode="normal" in2="BackgroundImageFix" result="effect1_dropShadow_2_6419"/>
<feBlend mode="normal" in="SourceGraphic" in2="effect1_dropShadow_2_6419" result="shape"/>
</filter>
<filter id="filter2_d_2_6419" x="77" y="0" width="188.292" height="90.1819" filterUnits="userSpaceOnUse" color-interpolation-filters="sRGB">
<feFlood flood-opacity="0" result="BackgroundImageFix"/>
<feColorMatrix in="SourceAlpha" type="matrix" values="0 0 0 0 0 0 0 0 0 0 0 0 0 0 0 0 0 0 127 0" result="hardAlpha"/>
<feOffset/>
<feGaussianBlur stdDeviation="12"/>
<feComposite in2="hardAlpha" operator="out"/>
<feColorMatrix type="matrix" values="0 0 0 0 0 0 0 0 0 0 0 0 0 0 0 0 0 0 0.15 0"/>
<feBlend mode="normal" in2="BackgroundImageFix" result="effect1_dropShadow_2_6419"/>
<feBlend mode="normal" in="SourceGraphic" in2="effect1_dropShadow_2_6419" result="shape"/>
</filter>
<filter id="filter3_d_2_6419" x="0" y="206" width="188.292" height="90.1819" filterUnits="userSpaceOnUse" color-interpolation-filters="sRGB">
<feFlood flood-opacity="0" result="BackgroundImageFix"/>
<feColorMatrix in="SourceAlpha" type="matrix" values="0 0 0 0 0 0 0 0 0 0 0 0 0 0 0 0 0 0 127 0" result="hardAlpha"/>
<feOffset/>
<feGaussianBlur stdDeviation="12"/>
<feComposite in2="hardAlpha" operator="out"/>
<feColorMatrix type="matrix" values="0 0 0 0 0 0 0 0 0 0 0 0 0 0 0 0 0 0 0.15 0"/>
<feBlend mode="normal" in2="BackgroundImageFix" result="effect1_dropShadow_2_6419"/>
<feBlend mode="normal" in="SourceGraphic" in2="effect1_dropShadow_2_6419" result="shape"/>
</filter>
<linearGradient id="paint0_linear_2_6419" x1="303.141" y1="122.748" x2="214.921" y2="259.636" gradientUnits="userSpaceOnUse">
<stop stop-color="#F7FF05"/>
<stop offset="0.614583" stop-color="#2DDFA6"/>
</linearGradient>
</defs>
</svg>
