<svg width="56" height="56" viewBox="0 0 56 56" fill="none" xmlns="http://www.w3.org/2000/svg">
<path d="M40 0H16C7.16344 0 0 7.16344 0 16V40C0 48.8366 7.16344 56 16 56H40C48.8366 56 56 48.8366 56 40V16C56 7.16344 48.8366 0 40 0Z" fill="#F0F0F0"/>
<g clip-path="url(#clip0_1864_5776)">
<path d="M38.27 16H28.27C27.4119 15.9908 26.5588 16.133 25.75 16.42L15.33 20.42L15.21 20.48C14.3086 20.7576 13.5143 21.3056 12.9348 22.0497C12.3552 22.7938 12.0184 23.6981 11.97 24.64C11.9822 25.222 12.1146 25.7952 12.3589 26.3235C12.6033 26.8518 12.9544 27.3239 13.39 27.71V38.89C13.3926 39.1084 13.4813 39.317 13.6366 39.4705C13.792 39.624 14.0016 39.71 14.22 39.71H30.88L31.06 39.65L41.72 35.13C41.8707 35.0691 41.9992 34.9638 42.0886 34.828C42.1779 34.6922 42.2237 34.5325 42.22 34.37V23.61C42.6623 23.2288 43.0185 22.758 43.265 22.2287C43.5116 21.6995 43.6428 21.1238 43.65 20.54C43.68 18.04 41.25 16 38.27 16ZM33.01 24.6C33.01 22.09 30.58 20.06 27.59 20.06H20.87L26.38 17.97C26.9951 17.747 27.6459 17.6386 28.3 17.65H38.3C40.38 17.65 42.06 18.94 42.06 20.54C42.0533 20.9269 41.96 21.3074 41.787 21.6535C41.6139 21.9996 41.3655 22.3025 41.06 22.54L32.89 25.71C32.9881 25.3486 33.0286 24.974 33.01 24.6ZM14.75 26.6C14.4239 26.375 14.1547 26.0771 13.9637 25.7299C13.7728 25.3828 13.6654 24.9959 13.65 24.6C13.65 23.01 15.34 21.71 17.42 21.71H27.6C29.68 21.71 31.37 23.01 31.37 24.6C31.3497 24.9959 31.2391 25.382 31.0468 25.7286C30.8544 26.0753 30.5853 26.3733 30.26 26.6C30.1573 26.6766 30.0739 26.7762 30.0166 26.8908C29.9593 27.0054 29.9296 27.1319 29.93 27.26V37.99H15.08V27.29C15.0804 27.1619 15.0507 27.0354 14.9934 26.9208C14.9361 26.8062 14.8528 26.7066 14.75 26.63V26.6ZM40.6 24.48V33.83L31.6 37.65V28L40.6 24.48Z" fill="black"/>
<path d="M18.22 25.57C18.6674 25.57 19.03 25.2074 19.03 24.76C19.03 24.3127 18.6674 23.95 18.22 23.95C17.7727 23.95 17.41 24.3127 17.41 24.76C17.41 25.2074 17.7727 25.57 18.22 25.57Z" fill="black"/>
<path d="M26.92 25.49C27.3674 25.49 27.73 25.1273 27.73 24.68C27.73 24.2326 27.3674 23.87 26.92 23.87C26.4727 23.87 26.11 24.2326 26.11 24.68C26.11 25.1273 26.4727 25.49 26.92 25.49Z" fill="black"/>
<path d="M26.44 29.79C26.601 29.792 26.759 29.7459 26.8937 29.6577C27.0285 29.5695 27.1338 29.443 27.1964 29.2946C27.2589 29.1462 27.2758 28.9826 27.2449 28.8245C27.2139 28.6664 27.1366 28.5212 27.0227 28.4073C26.9088 28.2934 26.7636 28.2161 26.6055 28.1852C26.4475 28.1542 26.2838 28.1711 26.1354 28.2336C25.987 28.2962 25.8606 28.4016 25.7723 28.5363C25.6841 28.671 25.638 28.829 25.64 28.99C25.64 29.2022 25.7243 29.4057 25.8743 29.5557C26.0244 29.7057 26.2278 29.79 26.44 29.79Z" fill="black"/>
<path d="M22.76 31.53C23.2073 31.53 23.57 31.1674 23.57 30.72C23.57 30.2727 23.2073 29.91 22.76 29.91C22.3126 29.91 21.95 30.2727 21.95 30.72C21.95 31.1674 22.3126 31.53 22.76 31.53Z" fill="black"/>
<path d="M22.31 26.98C22.7574 26.98 23.12 26.6173 23.12 26.17C23.12 25.7226 22.7574 25.36 22.31 25.36C21.8626 25.36 21.5 25.7226 21.5 26.17C21.5 26.6173 21.8626 26.98 22.31 26.98Z" fill="black"/>
<path d="M18.24 28.86C18.0794 28.86 17.9224 28.9078 17.789 28.9973C17.6555 29.0867 17.5517 29.2138 17.4907 29.3624C17.4297 29.511 17.4143 29.6744 17.4464 29.8318C17.4784 29.9891 17.5566 30.1334 17.6709 30.2463C17.7851 30.3592 17.9304 30.4355 18.0882 30.4656C18.246 30.4958 18.4091 30.4783 18.557 30.4154C18.7048 30.3526 18.8306 30.2472 18.9184 30.1127C19.0062 29.9782 19.052 29.8206 19.05 29.66C19.05 29.5541 19.029 29.4493 18.9881 29.3515C18.9473 29.2538 18.8875 29.1652 18.8122 29.0908C18.7368 29.0163 18.6474 28.9576 18.5492 28.918C18.451 28.8784 18.3459 28.8587 18.24 28.86Z" fill="black"/>
<path d="M17.72 34.56C17.72 34.7202 17.7675 34.8768 17.8565 35.01C17.9455 35.1432 18.072 35.247 18.22 35.3084C18.368 35.3697 18.5309 35.3857 18.688 35.3545C18.8451 35.3232 18.9895 35.2461 19.1028 35.1328C19.216 35.0195 19.2932 34.8752 19.3244 34.7181C19.3557 34.5609 19.3397 34.398 19.2784 34.25C19.217 34.102 19.1132 33.9755 18.98 33.8865C18.8468 33.7975 18.6902 33.75 18.53 33.75C18.4233 33.7487 18.3173 33.7687 18.2184 33.8089C18.1196 33.8492 18.0297 33.9088 17.9543 33.9843C17.8788 34.0597 17.8192 34.1496 17.7789 34.2484C17.7387 34.3473 17.7187 34.4533 17.72 34.56Z" fill="black"/>
<path d="M22.23 35.28C22.228 35.441 22.2741 35.599 22.3623 35.7337C22.4506 35.8685 22.577 35.9738 22.7254 36.0364C22.8738 36.0989 23.0375 36.1158 23.1955 36.0849C23.3536 36.0539 23.4988 35.9766 23.6127 35.8627C23.7266 35.7488 23.8039 35.6036 23.8349 35.4455C23.8658 35.2875 23.8489 35.1238 23.7864 34.9754C23.7238 34.827 23.6185 34.7006 23.4837 34.6123C23.349 34.5241 23.191 34.478 23.03 34.48C22.8178 34.48 22.6144 34.5643 22.4643 34.7143C22.3143 34.8644 22.23 35.0678 22.23 35.28Z" fill="black"/>
<path d="M27.05 34.7C27.4974 34.7 27.86 34.3373 27.86 33.89C27.86 33.4426 27.4974 33.08 27.05 33.08C26.6027 33.08 26.24 33.4426 26.24 33.89C26.24 34.3373 26.6027 34.7 27.05 34.7Z" fill="black"/>
</g>
<defs>
<clipPath id="clip0_1864_5776">
<rect width="31.68" height="23.67" fill="white" transform="translate(12 16)"/>
</clipPath>
</defs>
</svg>
