<svg width="901" height="139" viewBox="0 0 901 139" fill="none" xmlns="http://www.w3.org/2000/svg">
<path d="M843.01 70.7679C845.328 69.1719 847.906 68.5929 850.707 68.9209C852.646 69.1469 854.472 69.8059 855.874 71.0729C858.626 73.5579 861.196 76.2429 863.824 78.8629C866.24 81.2709 868.616 83.7189 871.048 86.1109C872.118 87.1609 872.995 88.3429 873.632 89.6779C876.557 95.8009 874.315 103.213 868.07 106.553C863.198 109.158 856.866 108.166 852.987 104.21C851.259 102.449 849.493 100.723 847.747 98.9799L846.713 97.9489L845.471 96.7059C844.392 95.6269 843.112 94.3459 841.631 92.8619L839.193 90.3619L843.681 85.8319C844.589 86.7255 845.493 87.6222 846.395 88.5219C850.128 92.2619 853.868 95.9959 857.606 99.7299C858.821 100.945 860.291 101.547 862.01 101.592C864.62 101.658 866.85 100.294 867.915 97.8939C869.08 95.2659 868.523 92.7319 866.785 90.8729C864.649 88.5849 862.357 86.4369 860.161 84.2009C857.627 81.6209 855.023 79.1079 852.459 76.5579C850.695 74.8049 847.965 74.7519 846.171 76.4799C844.811 77.7909 843.477 79.1349 842.135 80.4649C839.402 83.1749 836.665 85.8779 833.943 88.5989C831.483 91.0589 829.03 93.5289 826.593 96.0109C824.123 98.5259 821.503 100.892 819.164 103.537C818.663 104.103 818.144 104.682 817.537 105.124C815.096 106.899 812.412 108.032 808.981 107.997C807.736 108.033 806.218 107.727 804.725 107.17C798.988 105.03 795.556 98.9039 796.71 92.8889C797.297 89.8349 798.897 87.4209 801.114 85.3159C803.152 83.3799 805.129 81.3779 807.116 79.3889C809.511 76.9939 811.877 74.5709 814.276 72.1789L814.376 72.0789L814.606 71.8489L816.042 70.4049L820.552 74.9049L818.802 76.6769C817 78.4929 815.183 80.2969 813.378 82.1099C810.611 84.8864 807.847 87.6661 805.086 90.4489C804.616 90.9219 804.143 91.3889 803.792 91.9729C802.252 94.5359 802.786 97.8149 804.894 99.8369C807.47 102.309 811.347 102.055 813.612 99.9199C815.369 98.2629 817.04 96.5139 818.748 94.8079C822.157 91.4029 825.572 88.0049 828.974 84.5929C832.979 80.5759 836.966 76.5429 840.976 72.5329C841.609 71.8979 842.275 71.2749 843.01 70.7679V70.7679ZM862.556 28.0029C863.801 27.9669 865.319 28.2729 866.812 28.8299C872.549 30.9699 875.981 37.0959 874.827 43.1109C874.24 46.1649 872.64 48.5789 870.423 50.6839C868.385 52.6199 866.408 54.6219 864.421 56.6109C862.026 59.0059 859.66 61.4289 857.261 63.8209L857.161 63.9209L855.495 65.5949L850.985 61.0949L852.736 59.3229C854.537 57.5069 856.354 55.7029 858.159 53.8899C860.926 51.1119 863.691 48.3339 866.451 45.5509C866.921 45.0779 867.394 44.6109 867.745 44.0269C869.285 41.4639 868.751 38.1849 866.643 36.1629C864.067 33.6909 860.191 33.9449 857.925 36.0799C856.168 37.7369 854.497 39.4859 852.789 41.1919C849.38 44.5969 845.965 47.9949 842.563 51.4069C838.559 55.4239 834.571 59.4569 830.561 63.4669C829.928 64.1019 829.263 64.7249 828.527 65.2319C826.209 66.8279 823.631 67.4069 820.83 67.0789C818.891 66.8529 817.065 66.1939 815.663 64.9269C812.911 62.4419 810.341 59.7569 807.713 57.1369C805.297 54.7289 802.921 52.2809 800.489 49.8889C799.419 48.8389 798.542 47.6569 797.905 46.3219C794.98 40.1989 797.222 32.7869 803.467 29.4469C808.339 26.8419 814.671 27.8339 818.55 31.7899C820.278 33.5509 822.044 35.2769 823.79 37.0199L824.385 37.6139L825.295 38.5239L827.212 40.4399L827.835 41.0639L828.16 41.3879L828.833 42.0629L829.183 42.4129L829.907 43.1379L832.344 45.6379L827.856 50.1679C826.926 49.2509 826.208 48.5409 825.702 48.0379L825.446 47.7829L825.334 47.6709L825.142 47.4789C821.409 43.7369 817.669 40.0039 813.931 36.2689C812.716 35.0549 811.246 34.4529 809.527 34.4089C806.917 34.3419 804.687 35.7059 803.622 38.1059C802.457 40.7339 803.014 43.2679 804.752 45.1269C806.888 47.4149 809.18 49.5629 811.376 51.7989C813.91 54.3789 816.514 56.8919 819.078 59.4419C820.842 61.1949 823.572 61.2479 825.366 59.5199C826.726 58.2089 828.06 56.8649 829.402 55.5349C832.135 52.8249 834.872 50.1219 837.594 47.4009C840.055 44.9409 842.507 42.4709 844.944 39.9889C847.414 37.4739 850.034 35.1079 852.373 32.4629C852.875 31.8969 853.393 31.3179 854 30.8759C856.441 29.1009 859.125 27.9679 862.556 28.0029V28.0029Z" fill="#AAAAAA"/>
<path fill-rule="evenodd" clip-rule="evenodd" d="M506.719 68.2177L506.723 68.2127L506.733 68.2037C507.605 67.3185 508.649 66.6221 509.801 66.1577C512.033 65.2488 514.533 65.2488 516.765 66.1577C517.919 66.6213 518.964 67.3178 519.837 68.2037L519.84 68.2087L522.744 71.0207L528.368 65.3027L525.549 62.4897C523.859 60.7927 521.919 59.5247 519.749 58.7007V58.7017C517.702 57.8428 515.504 57.3995 513.284 57.3977C511.074 57.3977 508.883 57.8347 506.737 58.7037C504.618 59.5287 502.708 60.7967 501.017 62.4897C499.325 64.1767 498.056 66.0897 497.231 68.2067C496.413 70.2934 495.996 72.5154 496 74.7567C496.001 76.971 496.418 79.1655 497.23 81.2257C498.055 83.3457 499.325 85.2607 501.017 86.9507C502.703 88.6377 504.608 89.9267 506.721 90.7997L506.731 90.8027L506.741 90.8077C508.888 91.6247 511.074 92.0417 513.283 92.0417C515.492 92.0417 517.655 91.6237 519.755 90.8057L519.763 90.8027C521.932 89.9242 523.9 88.6144 525.548 86.9527L528.365 84.1297L522.741 78.4137L519.831 81.2387L519.821 81.2477C518.987 82.1348 517.969 82.829 516.839 83.2817C515.708 83.7348 514.501 83.966 513.283 83.9627C510.708 83.9547 508.582 83.0687 506.731 81.2327C505.846 80.3614 505.15 79.317 504.687 78.1647C504.235 77.0583 504.002 75.8748 504 74.6797C504 73.4997 504.227 72.3437 504.687 71.1987C505.138 70.0688 505.832 69.0516 506.719 68.2187V68.2177ZM538.536 74.6777C538.544 72.1077 539.43 69.9797 541.267 68.1297C542.747 66.6567 544.396 65.8157 546.3 65.5397C546.776 65.4727 547.243 65.4407 547.702 65.4407C548.777 65.4372 549.843 65.6262 550.851 65.9987C550.137 66.6989 549.419 67.3946 548.696 68.0857L548.69 68.0907L548.686 68.0977C547.456 69.3267 546.152 70.6287 544.776 72.0077C543.448 73.3357 542.17 74.6137 540.937 75.8417C540.197 76.5837 539.575 77.2077 539.067 77.7147C538.712 76.7416 538.533 75.7134 538.537 74.6777H538.536ZM560.082 62.4797C558.39 60.7877 556.45 59.5197 554.282 58.6907V58.6917C552.233 57.8351 550.034 57.3926 547.813 57.3897C545.603 57.3897 543.413 57.8297 541.268 58.6947V58.6937C539.151 59.5237 537.239 60.7907 535.548 62.4797C533.858 64.1717 532.591 66.0827 531.763 68.1997C530.952 70.2608 530.534 72.4556 530.53 74.6707C530.53 76.8817 530.944 79.0707 531.76 81.2157L531.77 81.2337L531.763 81.2217C532.59 83.3377 533.857 85.2507 535.546 86.9417C537.155 88.5621 539.069 89.847 541.178 90.7217C543.281 91.5939 545.536 92.0399 547.813 92.0337C550.093 92.0389 552.352 91.5916 554.458 90.7177C556.564 89.8438 558.475 88.5607 560.082 86.9427L562.9 84.1187L557.188 78.4057L556.656 78.9387L554.367 81.2247C552.89 82.6947 551.212 83.5687 549.252 83.8917C548.794 83.9557 548.342 83.9887 547.898 83.9887C546.832 83.9899 545.775 83.7999 544.776 83.4277L562.901 65.2997L560.081 62.4797H560.082ZM594.634 62.4847C593.045 60.8938 591.157 59.6336 589.079 58.7767C587.016 57.8567 584.769 57.3917 582.368 57.3937C580.054 57.3839 577.763 57.8566 575.642 58.7817C573.569 59.6381 571.685 60.8963 570.1 62.4837C568.556 64.0277 567.322 65.8577 566.401 67.9537L566.398 67.9617C565.518 70.0287 565.083 72.2747 565.084 74.6757H565.824L565.084 74.6767V92.0397H573.16V74.6767C573.16 73.3927 573.387 72.2187 573.839 71.1327C574.347 69.9867 575.006 69.0127 575.815 68.1997C576.653 67.3541 577.649 66.682 578.747 66.2217L578.758 66.2167C579.896 65.7184 581.126 65.4645 582.368 65.4717C583.647 65.4717 584.841 65.7197 585.975 66.2167L585.991 66.2227L585.998 66.2247C587.098 66.6577 588.09 67.3276 588.902 68.1867L588.918 68.2017L588.933 68.2157C589.792 69.0282 590.461 70.0201 590.892 71.1207L590.899 71.1417L590.906 71.1557C591.403 72.2357 591.649 73.3987 591.649 74.6757V92.0397H599.726V74.6757C599.726 72.2677 599.26 70.0177 598.334 67.9497C597.488 65.8941 596.228 64.034 594.634 62.4847V62.4847ZM626.01 81.2237L625.998 81.2357C625.163 82.1221 624.144 82.8162 623.014 83.2697C621.884 83.7231 620.677 83.9546 619.459 83.9517C616.881 83.9437 614.755 83.0577 612.905 81.2227C612.02 80.3497 611.324 79.3049 610.858 78.1527C610.41 77.0453 610.178 75.8623 610.174 74.6677C610.174 73.4877 610.403 72.3307 610.859 71.1827C611.312 70.0544 612.005 69.0384 612.891 68.2057L612.897 68.2017L612.905 68.1937C613.825 67.2737 614.84 66.6007 615.973 66.1467C618.207 65.2376 620.707 65.2376 622.941 66.1467C624.076 66.6007 625.091 67.2747 626.011 68.1937L628.917 71.0087L634.541 65.2917L631.724 62.4787C630.032 60.7817 628.091 59.5137 625.926 58.6887C623.877 57.8306 621.679 57.3877 619.458 57.3857C617.243 57.3857 615.057 57.8227 612.911 58.6937C610.793 59.5177 608.881 60.7837 607.191 62.4787C605.501 64.1657 604.231 66.0787 603.407 68.1967C602.589 70.2829 602.17 72.5046 602.173 74.7457C602.173 76.9547 602.587 79.1157 603.407 81.2157C604.231 83.3357 605.499 85.2497 607.192 86.9397C608.88 88.6257 610.786 89.9157 612.898 90.7877L612.904 90.7917L612.918 90.7967C615.063 91.6137 617.248 92.0307 619.459 92.0307C621.675 92.0271 623.87 91.6079 625.931 90.7947L625.939 90.7907C628.1 89.9187 630.035 88.6277 631.724 86.9407L634.541 84.1187L628.916 78.4027L626.01 81.2237V81.2237ZM645.397 71.1377C645.907 69.9877 646.563 69.0147 647.375 68.2057L647.378 68.2037C648.229 67.3456 649.248 66.6731 650.372 66.2287L650.384 66.2217L650.396 66.2177C651.533 65.7175 652.763 65.4633 654.005 65.4717C655.281 65.4717 656.477 65.7187 657.608 66.2177L657.621 66.2237L657.634 66.2287C658.735 66.6602 659.728 67.3295 660.541 68.1887L660.553 68.2027L660.571 68.2187C661.428 69.0315 662.097 70.0224 662.529 71.1217L662.536 71.1377L662.543 71.1537C663.037 72.2357 663.286 73.3987 663.286 74.6757C663.294 75.9189 663.039 77.1497 662.538 78.2877L662.534 78.2987L662.529 78.3087C662.083 79.4316 661.411 80.451 660.555 81.3037C659.741 82.1177 658.774 82.7737 657.628 83.2777C656.476 83.7382 655.245 83.9705 654.004 83.9617C652.761 83.9707 651.528 83.7384 650.373 83.2777C649.269 82.7946 648.255 82.1267 647.375 81.3027C646.549 80.4214 645.881 79.405 645.399 78.2977C644.942 77.1454 644.712 75.9161 644.72 74.6767C644.72 73.3927 644.947 72.2207 645.397 71.1377V71.1377ZM669.977 67.9597C669.132 65.9001 667.872 64.0365 666.276 62.4847C664.688 60.8935 662.799 59.6343 660.719 58.7807C658.656 57.8567 656.409 57.3927 654.011 57.3937C651.701 57.3831 649.415 57.8555 647.298 58.7807L647.288 58.7847L647.285 58.7867C645.21 59.6402 643.326 60.8972 641.741 62.4847C640.199 64.0287 638.963 65.8577 638.041 67.9557L638.036 67.9687L638.038 67.9617C637.159 70.0297 636.725 72.2777 636.725 74.6757C636.724 77.0337 637.159 79.2787 638.035 81.3887L638.041 81.4017C638.931 83.4525 640.181 85.3274 641.732 86.9377L641.739 86.9457L641.74 86.9477C643.337 88.5386 645.216 89.8178 647.282 90.7197L647.292 90.7237L647.298 90.7267C649.408 91.5997 651.652 92.0387 654.01 92.0387C656.41 92.0387 658.658 91.6017 660.725 90.7237L660.734 90.7197C662.8 89.8177 664.679 88.5389 666.276 86.9487C667.865 85.3575 669.124 83.468 669.981 81.3887C670.906 79.2721 671.378 76.9855 671.367 74.6757C671.368 72.2797 670.907 70.0327 669.981 67.9697L669.977 67.9597V67.9597ZM707.61 77.1887H707.611C707.608 77.1797 707.603 77.1727 707.6 77.1647C707.088 75.8797 706.305 74.7206 705.303 73.7667V73.7647C704.335 72.8028 703.181 72.0487 701.912 71.5487C701.905 71.5457 701.897 71.5427 701.891 71.5387L701.874 71.5317C700.604 70.9537 699.224 70.6637 697.761 70.6647H684.477C683.719 70.6577 683.173 70.4347 682.662 69.9407C682.148 69.3707 681.915 68.7847 681.91 68.0257C681.917 67.2627 682.145 66.7107 682.647 66.1997C683.165 65.6927 683.712 65.4677 684.477 65.4617H705.227V57.3817H704.474V58.1317L704.475 58.1357H704.472V57.3817H684.475C683.024 57.3754 681.587 57.6735 680.258 58.2567C679.015 58.7728 677.885 59.5277 676.932 60.4787C675.977 61.4347 675.212 62.5747 674.633 63.8837L674.63 63.8937L674.627 63.8997C674.094 65.1777 673.833 66.5577 673.834 68.0257C673.826 69.4611 674.094 70.8847 674.624 72.2187L674.632 72.2387L674.64 72.2527C675.209 73.4952 675.978 74.6355 676.918 75.6277L676.925 75.6357L676.932 75.6417C677.891 76.5984 679.014 77.3751 680.248 77.9347L680.266 77.9437L680.282 77.9497C681.605 78.4797 683.01 78.7397 684.476 78.7397H697.76C698.582 78.7477 699.155 78.9867 699.66 79.4817C700.164 79.9957 700.392 80.5487 700.401 81.3097C700.391 82.1317 700.157 82.7037 699.659 83.2097C699.154 83.7077 698.586 83.9407 697.759 83.9497H677.081V92.0287H697.76C699.226 92.0287 700.61 91.7617 701.888 91.2297L701.896 91.2247L701.897 91.2237C703.167 90.6776 704.322 89.8973 705.303 88.9237C706.288 87.9499 707.071 86.791 707.607 85.5137H707.606C708.183 84.1937 708.476 82.7837 708.476 81.3087C708.485 79.8892 708.19 78.4843 707.61 77.1887V77.1887ZM744.827 58.1497H744.826V57.3977H737.505V74.6797C737.511 75.9226 737.256 77.153 736.755 78.2907L736.748 78.3047L736.744 78.3137C736.299 79.4353 735.629 80.4536 734.774 81.3057C733.96 82.1157 732.989 82.7727 731.845 83.2827C730.692 83.739 729.461 83.9698 728.221 83.9627C726.982 83.9703 725.753 83.7398 724.601 83.2837C723.522 82.7876 722.532 82.1188 721.669 81.3037C720.845 80.425 720.177 79.4117 719.694 78.3077C719.236 77.1534 719.003 75.9217 719.01 74.6797V57.3977H710.938V74.6807C710.938 77.0367 711.373 79.2817 712.25 81.3937L712.254 81.4017L712.257 81.4097C713.148 83.4591 714.398 85.3331 715.947 86.9437L715.956 86.9507V86.9537C717.551 88.5454 719.432 89.8232 721.499 90.7207L721.507 90.7267L721.513 90.7287C723.623 91.6047 725.867 92.0447 728.223 92.0447C730.626 92.0447 732.872 91.6047 734.936 90.7247L734.945 90.7207C737.012 89.8228 738.893 88.545 740.489 86.9537C742.078 85.3628 743.337 83.4732 744.193 81.3937C745.12 79.2779 745.592 76.9914 745.581 74.6817V57.3987H744.827V58.1497V58.1497ZM758.808 81.3077C757.983 80.4318 757.316 79.4203 756.835 78.3177C756.373 77.1621 756.14 75.928 756.149 74.6837C756.149 73.3987 756.377 72.2247 756.83 71.1387C757.337 69.9927 757.991 69.0217 758.808 68.2097C759.659 67.3522 760.677 66.6795 761.8 66.2337L761.812 66.2287L761.825 66.2227C762.962 65.7242 764.191 65.4707 765.432 65.4787H774.642V74.6827C774.649 75.9261 774.394 77.157 773.892 78.2947L773.887 78.3077L773.882 78.3197C773.437 79.4409 772.765 80.4587 771.91 81.3097C771.094 82.1227 770.127 82.7797 768.981 83.2887C767.897 83.7407 766.719 83.9667 765.431 83.9667C764.191 83.9744 762.961 83.7439 761.808 83.2877C760.702 82.8042 759.687 82.1345 758.808 81.3077V81.3077ZM782.705 44.0977H774.629V57.3797H765.419C763.064 57.3797 760.819 57.8427 758.71 58.7637C756.634 59.6172 754.749 60.8741 753.162 62.4617L753.156 62.4677L753.153 62.4697C751.563 64.0117 750.301 65.8417 749.381 67.9417L749.373 67.9547L749.378 67.9497C748.498 70.0127 748.06 72.2597 748.06 74.6597C748.06 77.0177 748.5 79.2637 749.373 81.3737L749.378 81.3837L749.381 81.3897C750.282 83.4558 751.561 85.3356 753.152 86.9327C754.748 88.5253 756.629 89.8041 758.697 90.7027L758.705 90.7057L758.711 90.7077C760.821 91.5837 763.064 92.0237 765.419 92.0237C767.775 92.0237 770.02 91.5837 772.129 90.7077L772.141 90.7027C774.243 89.7827 776.07 88.5227 777.613 86.9327C779.202 85.3434 780.461 83.4551 781.317 81.3767H781.316C782.242 79.2593 782.715 76.9717 782.705 74.6607V44.0977Z" fill="#AAAAAA"/>
<path d="M71.6721 78.225V74.143H31.1951V78.225H71.6721ZM90.1451 88V73.842H104.625V88H109.781V56.59H104.625V69.437H90.1451V56.59H85.0101V88H90.1451V88ZM125.893 88.43C127.511 88.43 128.951 88.308 130.211 88.064C131.505 87.8094 132.761 87.3906 133.949 86.818V82.715C132.559 83.331 131.26 83.771 130.049 84.036C128.839 84.301 127.533 84.434 126.129 84.434C123.995 84.434 122.34 83.814 121.166 82.575C119.992 81.336 119.368 79.564 119.296 77.258H135.131V74.529C135.131 71.192 134.221 68.571 132.402 66.666C130.583 64.761 128.105 63.809 124.969 63.809C121.589 63.809 118.932 64.919 116.998 67.139C115.064 69.359 114.098 72.409 114.098 76.291C114.098 80.072 115.14 83.041 117.224 85.196C119.308 87.352 122.197 88.43 125.893 88.43V88.43ZM130.168 73.605H119.383C119.569 71.658 120.146 70.175 121.113 69.158C122.079 68.141 123.365 67.633 124.969 67.633C126.573 67.633 127.833 68.138 128.75 69.147C129.667 70.157 130.14 71.643 130.168 73.605V73.605ZM148.449 88.43C149.91 88.43 151.153 88.315 152.177 88.086C153.194 87.8597 154.169 87.4753 155.067 86.947V82.543C153.061 83.66 150.934 84.219 148.686 84.219C146.709 84.219 145.209 83.549 144.185 82.21C143.16 80.87 142.648 78.87 142.648 76.205C142.648 70.748 144.704 68.02 148.814 68.02C150.204 68.02 151.965 68.435 154.1 69.266L155.625 65.206C153.62 64.274 151.364 63.809 148.857 63.809C145.162 63.809 142.337 64.883 140.382 67.031C138.427 69.18 137.449 72.252 137.449 76.248C137.449 80.173 138.384 83.184 140.253 85.282C142.123 87.381 144.854 88.43 148.449 88.43V88.43ZM163.701 88V76.205C163.701 73.225 164.199 71.103 165.194 69.835C166.19 68.567 167.747 67.934 169.867 67.934C171.471 67.934 172.642 68.384 173.38 69.287C174.118 70.189 174.486 71.557 174.486 73.391V88H179.556V72.51C179.556 66.709 176.678 63.809 170.92 63.809C169.287 63.809 167.858 64.124 166.634 64.754C165.409 65.384 164.454 66.272 163.766 67.418H163.443C163.615 65.871 163.701 64.418 163.701 63.057V54.57H158.652V88H163.702H163.701ZM194.357 88.43C197.91 88.43 200.681 87.341 202.672 85.164C204.662 82.987 205.658 79.958 205.658 76.076C205.658 72.324 204.656 69.341 202.65 67.128C200.645 64.915 197.924 63.808 194.486 63.808C190.891 63.808 188.106 64.89 186.129 67.053C184.152 69.215 183.164 72.223 183.164 76.076C183.164 78.554 183.622 80.731 184.539 82.607C185.456 84.484 186.766 85.923 188.471 86.926C190.175 87.928 192.137 88.43 194.357 88.43V88.43ZM194.443 84.305C190.39 84.305 188.363 81.562 188.363 76.076C188.363 73.456 188.84 71.443 189.792 70.039C190.744 68.635 192.281 67.934 194.4 67.934C198.44 67.934 200.459 70.648 200.459 76.076C200.459 81.562 198.454 84.305 194.443 84.305V84.305ZM228.471 88.43C229.931 88.43 231.174 88.315 232.198 88.086C233.215 87.8597 234.19 87.4753 235.088 86.947V82.543C233.083 83.66 230.956 84.219 228.707 84.219C226.73 84.219 225.23 83.549 224.207 82.21C223.182 80.87 222.67 78.87 222.67 76.205C222.67 70.748 224.725 68.02 228.836 68.02C230.226 68.02 231.987 68.435 234.121 69.266L235.646 65.206C233.641 64.274 231.386 63.809 228.879 63.809C225.184 63.809 222.359 64.883 220.403 67.031C218.448 69.18 217.471 72.252 217.471 76.248C217.471 80.173 218.405 83.184 220.274 85.282C222.144 87.381 224.876 88.43 228.471 88.43V88.43ZM248.449 88.43C252.001 88.43 254.773 87.341 256.764 85.164C258.754 82.987 259.75 79.958 259.75 76.076C259.75 72.324 258.747 69.341 256.742 67.128C254.737 64.915 252.016 63.808 248.578 63.808C244.983 63.808 242.198 64.89 240.221 67.053C238.244 69.215 237.256 72.223 237.256 76.076C237.256 78.554 237.714 80.731 238.631 82.607C239.548 84.484 240.858 85.923 242.563 86.926C244.267 87.928 246.229 88.43 248.449 88.43V88.43ZM248.535 84.305C244.482 84.305 242.455 81.562 242.455 76.076C242.455 73.456 242.931 71.443 243.884 70.039C244.836 68.635 246.372 67.934 248.492 67.934C252.532 67.934 254.551 70.648 254.551 76.076C254.551 81.562 252.546 84.305 248.535 84.305V84.305ZM268.6 88V76.162C268.6 73.197 269.094 71.085 270.082 69.824C271.07 68.564 272.632 67.934 274.766 67.934C276.37 67.934 277.541 68.384 278.278 69.287C279.016 70.189 279.385 71.557 279.385 73.391V88H284.455V72.51C284.455 66.709 281.605 63.809 275.905 63.809C274.3 63.809 272.839 64.117 271.521 64.732C270.204 65.348 269.187 66.222 268.471 67.354H268.213L267.503 64.238H263.551V88H268.6V88ZM369.967 98.57V88.838C369.967 88.408 369.867 87.191 369.666 85.186H369.966C371.628 87.348 373.963 88.43 376.971 88.43C379.936 88.43 382.259 87.341 383.942 85.164C385.625 82.987 386.467 79.958 386.467 76.076C386.467 72.195 385.64 69.18 383.985 67.031C382.331 64.883 380.021 63.809 377.057 63.809C373.906 63.809 371.542 65.012 369.967 67.418H369.709C369.351 65.742 369.115 64.682 369 64.238H364.918V98.57H369.967ZM375.832 84.305C373.755 84.305 372.258 83.657 371.342 82.36C370.425 81.064 369.967 78.97 369.967 76.076V75.324C369.967 72.746 370.429 70.87 371.353 69.695C372.276 68.521 373.741 67.934 375.746 67.934C377.566 67.934 378.944 68.618 379.882 69.985C380.82 71.353 381.289 73.369 381.289 76.033C381.289 78.683 380.816 80.724 379.871 82.156C378.926 83.589 377.579 84.305 375.832 84.305V84.305ZM400.107 88.43C403.66 88.43 406.431 87.341 408.422 85.164C410.412 82.987 411.408 79.958 411.408 76.076C411.408 72.324 410.406 69.341 408.4 67.128C406.395 64.915 403.674 63.808 400.236 63.808C396.641 63.808 393.856 64.89 391.879 67.053C389.902 69.215 388.914 72.223 388.914 76.076C388.914 78.554 389.372 80.731 390.289 82.607C391.206 84.484 392.516 85.923 394.221 86.926C395.925 87.928 397.887 88.43 400.107 88.43V88.43ZM400.193 84.305C396.14 84.305 394.113 81.562 394.113 76.076C394.113 73.456 394.59 71.443 395.542 70.039C396.494 68.635 398.031 67.934 400.15 67.934C404.19 67.934 406.209 70.648 406.209 76.076C406.209 81.562 404.204 84.305 400.193 84.305V84.305ZM420.258 88V75.582C420.258 73.477 420.884 71.765 422.138 70.447C423.391 69.13 425.028 68.471 427.047 68.471C427.82 68.471 428.565 68.557 429.281 68.729L429.775 64.023C429.117 63.88 428.279 63.809 427.262 63.809C425.801 63.809 424.437 64.224 423.169 65.055C421.901 65.885 420.874 67.01 420.086 68.428H419.828L419.162 64.238H415.209V88H420.258ZM480.238 78.225V74.143H439.762V78.225H480.238ZM314.52 54C306.761 54 302 60.361 302 65.579C302 76.86 315.678 87.333 325.333 94C334.989 87.333 348.667 76.861 348.667 65.579C348.667 60.361 343.905 54 336.147 54C331.813 54 328.111 57.239 325.333 60.316C322.556 57.239 318.853 54 314.52 54V54Z" fill="#AAAAAA"/>
</svg>
