<svg width="17" height="18" viewBox="0 0 17 18" fill="none" xmlns="http://www.w3.org/2000/svg">
<path d="M0.5 9.89285C0.502839 7.85165 1.27518 5.88656 2.66292 4.38968C4.05066 2.89279 5.95176 1.97416 7.98691 1.81708V1.27365H6.47943C6.39555 1.27455 6.31234 1.2587 6.23467 1.22701C6.157 1.19533 6.08645 1.14846 6.02713 1.08914C5.96782 1.02983 5.92095 0.959269 5.88926 0.881601C5.85758 0.803933 5.84172 0.720721 5.84262 0.636844C5.84172 0.552967 5.85758 0.469754 5.88926 0.392087C5.92095 0.314419 5.96782 0.243859 6.02713 0.184546C6.08645 0.125232 6.157 0.0783592 6.23467 0.0466756C6.31234 0.0149919 6.39555 -0.000864437 6.47943 3.63333e-05H10.6729C10.7568 -0.000864437 10.84 0.0149919 10.9177 0.0466756C10.9954 0.0783592 11.0659 0.125232 11.1252 0.184546C11.1846 0.243859 11.2314 0.314419 11.2631 0.392087C11.2948 0.469754 11.3106 0.552967 11.3097 0.636844C11.3106 0.720721 11.2948 0.803933 11.2631 0.881601C11.2314 0.959269 11.1846 1.02983 11.1252 1.08914C11.0659 1.14846 10.9954 1.19533 10.9177 1.22701C10.84 1.2587 10.7568 1.27455 10.6729 1.27365H9.25968V1.81708C10.7585 1.9308 12.1952 2.46334 13.4061 3.354L14.1051 2.65494L13.8099 2.35967C13.7507 2.30052 13.7038 2.23029 13.6718 2.15299C13.6398 2.0757 13.6233 1.99286 13.6233 1.9092C13.6233 1.74024 13.6904 1.57819 13.8099 1.45872C13.9293 1.33925 14.0914 1.27213 14.2603 1.27213C14.344 1.27213 14.4268 1.28861 14.5041 1.32062C14.5814 1.35264 14.6517 1.39956 14.7108 1.45872L16.1863 2.93507C16.3057 3.05462 16.3727 3.21663 16.3727 3.38555C16.3727 3.55446 16.3057 3.71647 16.1863 3.83602C16.0668 3.95536 15.9048 4.02238 15.7359 4.02238C15.5669 4.02238 15.4049 3.95536 15.2854 3.83602L14.9901 3.54075L14.3533 4.17756C15.2927 5.12208 15.9849 6.28358 16.3686 7.5593C16.7523 8.83502 16.8157 10.1856 16.5531 11.4917C16.2905 12.7977 15.7101 14.0189 14.8632 15.0472C14.0163 16.0755 12.929 16.8793 11.6975 17.3873C10.466 17.8954 9.1283 18.0921 7.80269 17.9601C6.47707 17.8281 5.20443 17.3714 4.09735 16.6304C2.99026 15.8894 2.08286 14.887 1.45541 13.7119C0.827966 12.5367 0.499819 11.225 0.5 9.89285ZM8.60689 3.05957C7.25223 3.05957 5.928 3.46127 4.80165 4.21388C3.67529 4.96649 2.7974 6.03619 2.279 7.28773C1.7606 8.53927 1.62496 9.91643 1.88924 11.2451C2.15352 12.5737 2.80585 13.7941 3.76373 14.752C4.72162 15.7099 5.94204 16.3622 7.27067 16.6265C8.59929 16.8908 9.97645 16.7551 11.228 16.2367C12.4795 15.7183 13.5492 14.8404 14.3018 13.7141C15.0544 12.5877 15.4561 11.2635 15.4561 9.90883C15.4559 8.09236 14.7342 6.35036 13.4498 5.06592C12.1654 3.78148 10.4234 3.0598 8.60689 3.05957ZM8.60689 10.4211C8.52424 10.4225 8.44214 10.4074 8.36531 10.3769C8.28849 10.3464 8.21847 10.301 8.15928 10.2433C8.10009 10.1855 8.0529 10.1167 8.02043 10.0407C7.98796 9.96466 7.97085 9.88297 7.97008 9.80031V5.87011C7.97008 5.70121 8.03717 5.53924 8.1566 5.41982C8.27602 5.30039 8.438 5.2333 8.60689 5.2333C8.77578 5.2333 8.93776 5.30039 9.05718 5.41982C9.17661 5.53924 9.2437 5.70121 9.2437 5.87011V9.15089H11.3249C11.4938 9.15089 11.6558 9.21798 11.7752 9.3374C11.8946 9.45683 11.9617 9.6188 11.9617 9.78769C11.9617 9.95658 11.8946 10.1186 11.7752 10.238C11.6558 10.3574 11.4938 10.4245 11.3249 10.4245L8.60689 10.4211Z" fill="black" fill-opacity="0.6"/>
</svg>
