<svg width="96" height="96" viewBox="0 0 96 96" fill="none" xmlns="http://www.w3.org/2000/svg">
<g filter="url(#filter0_i_4885_7402)">
<path fill-rule="evenodd" clip-rule="evenodd" d="M96 48.0387V85.6859C96 91.3822 91.3822 96 85.6859 96C80.5539 96 76.2973 92.2517 75.5044 87.3434C67.7152 92.7988 58.2314 96 48 96C21.4903 96 0 74.5097 0 48C0 21.4903 21.4903 0 48 0C74.2632 0 95.5999 21.0926 95.9944 47.2619C95.9981 47.3752 96 47.4891 96 47.6033V47.9613C96 47.9742 96 47.9871 96 48C96 48.0129 96 48.0258 96 48.0387Z" fill="url(#paint0_linear_4885_7402)"/>
</g>
<circle cx="48.0001" cy="47.9998" r="27.3719" fill="white"/>
<path fill-rule="evenodd" clip-rule="evenodd" d="M38.3761 44.1369C37.9298 45.3401 37.6859 46.6416 37.6859 48C37.6859 54.1345 42.6589 59.1075 48.7934 59.1075C54.9278 59.1075 59.9008 54.1345 59.9008 48C59.9008 41.8655 54.9278 36.8926 48.7934 36.8926C48.3298 36.8926 47.8729 36.921 47.4242 36.9761C47.5412 37.458 47.6033 37.9614 47.6033 38.4794C47.6033 41.9848 44.7616 44.8265 41.2562 44.8265C40.2193 44.8265 39.2405 44.5778 38.3761 44.1369Z" fill="#333333"/>
<defs>
<filter id="filter0_i_4885_7402" x="0" y="0" width="96" height="96" filterUnits="userSpaceOnUse" color-interpolation-filters="sRGB">
<feFlood flood-opacity="0" result="BackgroundImageFix"/>
<feBlend mode="normal" in="SourceGraphic" in2="BackgroundImageFix" result="shape"/>
<feColorMatrix in="SourceAlpha" type="matrix" values="0 0 0 0 0 0 0 0 0 0 0 0 0 0 0 0 0 0 127 0" result="hardAlpha"/>
<feOffset/>
<feGaussianBlur stdDeviation="7.5"/>
<feComposite in2="hardAlpha" operator="arithmetic" k2="-1" k3="1"/>
<feColorMatrix type="matrix" values="0 0 0 0 0 0 0 0 0 0 0 0 0 0 0 0 0 0 0.1 0"/>
<feBlend mode="normal" in2="shape" result="effect1_innerShadow_4885_7402"/>
</filter>
<linearGradient id="paint0_linear_4885_7402" x1="76.2843" y1="18.4489" x2="23.3527" y2="100.582" gradientUnits="userSpaceOnUse">
<stop stop-color="#F7FF05"/>
<stop offset="0.614583" stop-color="#2DDFA6"/>
</linearGradient>
</defs>
</svg>
