<svg width="96" height="96" viewBox="0 0 96 96" fill="none" xmlns="http://www.w3.org/2000/svg">
<path fill-rule="evenodd" clip-rule="evenodd" d="M96 48.0387V85.6859C96 91.3822 91.3822 96 85.6859 96C80.5539 96 76.2973 92.2517 75.5044 87.3434C67.7152 92.7988 58.2314 96 48 96C21.4903 96 0 74.5097 0 48C0 21.4903 21.4903 0 48 0C74.2632 0 95.5999 21.0926 95.9944 47.2619C95.9981 47.3752 96 47.4891 96 47.6033V47.9613C96 47.9742 96 47.9871 96 48C96 48.0129 96 48.0258 96 48.0387Z" fill="url(#paint0_linear_4470_8350)"/>
<circle cx="47.9998" cy="47.9998" r="27.3719" fill="white"/>
<path fill-rule="evenodd" clip-rule="evenodd" d="M38.3762 44.1369C37.9299 45.3401 37.686 46.6416 37.686 48C37.686 54.1345 42.659 59.1075 48.7935 59.1075C54.9279 59.1075 59.9009 54.1345 59.9009 48C59.9009 41.8655 54.9279 36.8926 48.7935 36.8926C48.3299 36.8926 47.873 36.921 47.4243 36.9761C47.5414 37.458 47.6034 37.9614 47.6034 38.4794C47.6034 41.9848 44.7617 44.8265 41.2563 44.8265C40.2194 44.8265 39.2406 44.5778 38.3762 44.1369Z" fill="#333333"/>
<defs>
<linearGradient id="paint0_linear_4470_8350" x1="48" y1="0" x2="48" y2="96" gradientUnits="userSpaceOnUse">
<stop stop-color="#2CDFA6"/>
<stop offset="1" stop-color="#F9FF02"/>
</linearGradient>
</defs>
</svg>