<svg width="14" height="14" viewBox="0 0 14 14" fill="none" xmlns="http://www.w3.org/2000/svg">
<path d="M13.4735 12.5273L12.5269 13.474C12.402 13.5981 12.233 13.6678 12.0569 13.6678C11.8807 13.6678 11.7118 13.5981 11.5869 13.474L3.66687 5.56732C3.45008 5.63012 3.22588 5.66375 3.0002 5.66732C2.57574 5.66701 2.15748 5.56539 1.7802 5.37089C1.40291 5.1764 1.07751 4.89465 0.831044 4.54907C0.584576 4.20349 0.424162 3.80407 0.363141 3.38402C0.302119 2.96396 0.342252 2.53541 0.480203 2.13398L2.17354 3.82732L2.52687 3.47398L3.47354 2.52732L3.82687 2.17398L2.13354 0.480651C2.53496 0.3427 2.96351 0.302567 3.38357 0.363589C3.80362 0.42461 4.20304 0.585024 4.54862 0.831492C4.8942 1.07796 5.17595 1.40336 5.37044 1.78064C5.56494 2.15793 5.66656 2.57619 5.66687 3.00065C5.6633 3.22633 5.62967 3.45053 5.56687 3.66732L13.4735 11.5873C13.5977 11.7122 13.6674 11.8812 13.6674 12.0573C13.6674 12.2334 13.5977 12.4024 13.4735 12.5273ZM0.52687 11.5873C0.402702 11.7122 0.333008 11.8812 0.333008 12.0573C0.333008 12.2334 0.402702 12.4024 0.52687 12.5273L1.47354 13.474C1.59844 13.5981 1.76741 13.6678 1.94354 13.6678C2.11966 13.6678 2.28863 13.5981 2.41354 13.474L6.0602 9.83398L4.17354 7.94732L0.52687 11.5873ZM12.3335 0.333984L9.66687 1.66732V3.00065L8.2202 4.44732L9.55353 5.78065L11.0002 4.33398H12.3335L13.6669 1.66732L12.3335 0.333984Z" fill="black"/>
</svg>
