<svg width="16" height="16" viewBox="0 0 16 16" fill="none" xmlns="http://www.w3.org/2000/svg">
<path d="M14.4735 13.5273L13.5269 14.474C13.402 14.5981 13.233 14.6678 13.0569 14.6678C12.8807 14.6678 12.7118 14.5981 12.5869 14.474L4.66687 6.56732C4.45008 6.63012 4.22588 6.66375 4.0002 6.66732C3.57574 6.66701 3.15748 6.56539 2.7802 6.37089C2.40291 6.1764 2.07751 5.89465 1.83104 5.54907C1.58458 5.20349 1.42416 4.80407 1.36314 4.38402C1.30212 3.96396 1.34225 3.53541 1.4802 3.13398L3.17354 4.82732L3.52687 4.47398L4.47354 3.52732L4.82687 3.17398L3.13354 1.48065C3.53496 1.3427 3.96351 1.30257 4.38357 1.36359C4.80362 1.42461 5.20304 1.58502 5.54862 1.83149C5.8942 2.07796 6.17595 2.40336 6.37044 2.78064C6.56494 3.15793 6.66656 3.57619 6.66687 4.00065C6.6633 4.22633 6.62967 4.45053 6.56687 4.66732L14.4735 12.5873C14.5977 12.7122 14.6674 12.8812 14.6674 13.0573C14.6674 13.2334 14.5977 13.4024 14.4735 13.5273ZM1.52687 12.5873C1.4027 12.7122 1.33301 12.8812 1.33301 13.0573C1.33301 13.2334 1.4027 13.4024 1.52687 13.5273L2.47354 14.474C2.59844 14.5981 2.76741 14.6678 2.94354 14.6678C3.11966 14.6678 3.28863 14.5981 3.41354 14.474L7.0602 10.834L5.17354 8.94732L1.52687 12.5873ZM13.3335 1.33398L10.6669 2.66732V4.00065L9.2202 5.44732L10.5535 6.78065L12.0002 5.33398H13.3335L14.6669 2.66732L13.3335 1.33398Z" fill="black" fill-opacity="0.6"/>
</svg>
