<svg width="12" height="14" viewBox="0 0 12 14" fill="none" xmlns="http://www.w3.org/2000/svg">
<path d="M10.6997 1.86328H9.81362C9.5953 1.86328 9.41979 2.03879 9.41979 2.25711V2.8607C9.41979 3.25453 9.09873 3.57559 8.7049 3.57559H3.28545C2.89162 3.57559 2.57056 3.25453 2.57056 2.8607V2.25711C2.57056 2.03879 2.39505 1.86328 2.17673 1.86328H1.29061C0.815445 1.86328 0.430176 2.24855 0.430176 2.72372V12.5609C0.430176 13.0361 0.815445 13.4214 1.29061 13.4214H10.6997C11.1749 13.4214 11.5602 13.0361 11.5602 12.5609V2.72372C11.5602 2.24855 11.1749 1.86328 10.6997 1.86328Z" fill="black"/>
<path d="M8.56368 0.969628V2.33091C8.56368 2.54495 8.38817 2.72046 8.17413 2.72046H3.81631C3.60227 2.72046 3.42676 2.54495 3.42676 2.33091V0.969628C3.42676 0.75559 3.60227 0.580078 3.81631 0.580078H8.17413C8.38817 0.580078 8.56368 0.75559 8.56368 0.969628Z" fill="black"/>
</svg>
