<svg width="280" height="280" viewBox="0 0 280 280" fill="none" xmlns="http://www.w3.org/2000/svg">
<path d="M279.843 139.922C279.843 62.6451 217.198 0 139.922 0C62.6451 0 0 62.6451 0 139.922V140.079C0 217.356 62.6451 280.001 139.922 280.001C217.198 280.001 279.843 217.356 279.843 140.079V139.922Z" fill="#DDDDDD"/>
<path d="M184.31 232.975L221.629 253.779C197.953 270.817 169.525 279.989 140.357 280.001L144.172 278.157L145.061 277.485L170.932 248.146L184.31 232.975ZM161.186 220.086L179.343 230.207L164.263 247.308L141.107 273.569L128.725 279.547C125.152 279.26 121.618 278.84 118.124 278.288L113.791 270.082L134.944 263.463L146.097 245.027L161.186 220.086ZM108.345 271.786L111.096 276.994C107.467 276.229 103.891 275.325 100.37 274.281L108.345 271.786ZM90.7509 184.23L103.647 188.013L156.292 217.358L140.017 244.262L131.129 258.954L91.5331 271.345C90.6161 271.005 89.7038 270.655 88.7961 270.295L79.3461 251.285L59.9385 254.777C53.5503 250.304 47.5451 245.307 41.9852 239.838L48.2143 232.734L90.7509 184.23ZM76.1033 257.38L80.8134 266.856C75.8977 264.552 71.1205 261.964 66.5063 259.104L76.1033 257.38ZM199.927 156.047C230.989 186.922 253.201 192.42 258.539 193.332L258.695 193.358L267.631 197.64C258.315 218.21 244.179 236.232 226.418 250.178L185.32 227.269L183.342 225.672L183.05 226.003L164.02 215.397L199.927 156.047ZM65.3443 167.533L80.2744 181.157L84.8708 182.506L41.5582 231.893L38.0906 235.847C33.5325 230.993 29.3248 225.822 25.4993 220.372L65.3443 167.533ZM51.9322 91.6277L49.7823 110.801L49.1698 116.244L47.013 135.471L46.6805 135.476L46.7268 138.023L45.452 149.382L61.2073 163.759L22.2101 215.471C11.0282 197.951 3.8753 178.167 1.26782 157.546C-1.33966 136.926 0.66328 115.984 7.13207 96.2319C14.3398 95.4217 21.1884 94.6788 27.678 94.0033C29.5969 93.8038 31.479 93.6113 33.3393 93.4223C39.8971 92.7567 46.0948 92.1585 51.9322 91.6277ZM146.622 154.062L180.697 177.018L159.13 212.669L127.202 194.873L131.76 160.731C137.315 160.21 142.54 157.865 146.622 154.062V154.062ZM104.621 139.945C105.917 150.55 114.596 159.02 125.611 160.575L126.065 160.636L121.888 191.912L106.212 183.175L105.93 183.016L83.2101 176.353L51.3775 147.303L52.1063 140.805L104.621 139.945ZM271.273 188.78L262.421 184.538L261.604 184.165L260.746 184.067C259.555 183.876 258.378 183.6 257.225 183.243L256.915 183.156L276.088 173.02C274.796 178.364 273.189 183.626 271.274 188.78H271.273ZM267.27 81.5765L265.433 90.9023L217.71 58.6252C219.191 55.9941 219.97 53.0263 219.971 50.0073C219.971 39.8739 211.325 31.6322 200.698 31.6322C190.072 31.6322 181.425 39.8791 181.426 50.0125C181.427 60.146 190.072 68.3876 200.698 68.3876C205.611 68.4087 210.354 66.5944 213.999 63.3003L214.341 62.981L264.281 96.7561L247.94 179.652C230.691 171.579 197.627 149.089 158.697 87.2518C158.556 86.3409 158.207 85.4747 157.677 84.7204C157.59 84.5909 157.492 84.4518 157.382 84.3048L157.283 84.1753C156.263 82.8628 154.114 80.9938 146.534 79.6839L145.841 79.5684C141.087 78.8633 136.295 78.4423 131.491 78.3075L130.871 78.2848L144.501 34.7752L155.143 0.801503C179.223 3.4188 202.212 12.2369 221.865 26.3946C241.517 40.5523 257.162 59.5653 267.27 81.5765V81.5765ZM169.023 119.801C177.041 130.759 185.737 141.205 195.06 151.077L195.875 151.929L183.545 172.31L150.189 149.837C152.261 146.778 153.549 143.257 153.94 139.583C154.331 135.908 153.813 132.195 152.431 128.768L152.198 128.21L169.023 119.801ZM277.725 114.717L279.849 137.17L279.503 137.536L279.918 137.894L279.994 138.65C279.998 139.1 280 139.55 280 140C280.002 147.008 279.483 154.007 278.446 160.938L259.76 170.815L270.65 115.577L277.239 112.19C277.409 113.03 277.571 113.873 277.725 114.717ZM129.252 118.949C132.575 118.922 135.849 119.752 138.758 121.358C141.668 122.965 144.114 125.293 145.862 128.12L146.069 128.47L146.128 128.576C147.672 131.285 148.458 134.359 148.403 137.476C148.348 140.594 147.455 143.638 145.817 146.291L145.554 146.711L144.048 148.76C142.276 150.788 140.103 152.427 137.666 153.573C135.229 154.719 132.58 155.346 129.888 155.416L129.384 155.426L126.805 155.111L126.784 155.263C117.544 154.126 110.345 146.7 110.109 137.648L110.103 137.248V137.16C110.12 127.118 118.704 118.948 129.252 118.95V118.949ZM99.1325 88.2108L117.371 116.428C114.005 118.143 111.096 120.636 108.887 123.701C106.678 126.766 105.232 130.314 104.67 134.05L104.609 134.527L52.7162 135.38L54.8845 116.056L54.9282 115.659L57.6819 91.1176C74.3008 89.6616 87.943 88.7446 99.1325 88.2117V88.2108ZM148.708 89.8549L148.795 89.8873L149.471 90.9662C154.671 99.2787 159.776 106.904 164.766 113.924L165.763 115.324L149.436 123.483C147.075 120.372 144.022 117.854 140.519 116.127C137.016 114.401 133.159 113.514 129.254 113.536C127.286 113.54 125.326 113.771 123.412 114.225L122.712 114.4L105.609 87.9378C136.124 86.7872 145.785 88.7831 148.708 89.8558V89.8549ZM276.011 106.668L271.999 108.732L273.914 99.032C274.683 101.548 275.382 104.094 276.011 106.669V106.668ZM140.079 3.26791e-08C141.242 3.26791e-08 142.402 0.0140001 143.558 0.0420002L132.134 36.5139L119.094 78.1378C113.784 78.1728 107.719 78.3268 100.792 78.6286L99.6304 78.6803L99.3259 78.2104L98.4386 78.7354C78.5979 79.6716 51.9558 81.7839 16.1009 85.6908L14.735 85.8404L13.5975 80.0654C24.9349 56.1128 42.8409 35.8719 65.232 21.6979C87.6232 7.52389 113.579 -0.000572576 140.079 3.26791e-08V3.26791e-08ZM200.699 35.946C208.837 35.946 215.463 42.253 215.463 50.0082C215.459 52.129 214.952 54.2187 213.983 56.1052C213.139 57.757 211.98 59.2273 210.57 60.433C207.822 62.7903 204.318 64.0812 200.697 64.0703C192.555 64.0703 185.932 57.7633 185.932 50.0082C185.932 42.253 192.558 35.946 200.699 35.946Z" fill="#F2F4F4"/>
<g filter="url(#filter0_d_322_266)">
<g filter="url(#filter1_i_322_266)">
<path d="M139.922 77.9128C133.526 77.9093 127.192 79.1664 121.283 81.6123C115.373 84.0582 110.003 87.645 105.481 92.1675C100.958 96.69 97.3715 102.06 94.9256 107.969C92.4796 113.879 91.2225 120.213 91.2261 126.609C91.2261 157.597 139.922 201.866 139.922 201.866C139.922 201.866 188.614 157.597 188.614 126.609C188.617 120.213 187.36 113.879 184.915 107.97C182.469 102.061 178.883 96.6912 174.36 92.1688C169.838 87.6463 164.469 84.0595 158.56 81.6133C152.651 79.1672 146.317 77.9097 139.922 77.9128V77.9128Z" fill="url(#paint0_linear_322_266)"/>
</g>
<path d="M139.922 77.9128C133.526 77.9093 127.192 79.1664 121.283 81.6123C115.373 84.0582 110.003 87.645 105.481 92.1675C100.958 96.69 97.3715 102.06 94.9256 107.969C92.4796 113.879 91.2225 120.213 91.2261 126.609C91.2261 157.597 139.922 201.866 139.922 201.866C139.922 201.866 188.614 157.597 188.614 126.609C188.617 120.213 187.36 113.879 184.915 107.97C182.469 102.061 178.883 96.6912 174.36 92.1688C169.838 87.6463 164.469 84.0595 158.56 81.6133C152.651 79.1672 146.317 77.9097 139.922 77.9128V77.9128Z" stroke="white" stroke-width="5"/>
</g>
<g filter="url(#filter2_d_322_266)">
<path d="M139.921 103.257C135.587 103.257 131.35 104.542 127.747 106.95C124.143 109.358 121.335 112.78 119.676 116.784C118.018 120.788 117.584 125.194 118.429 129.445C119.275 133.695 121.362 137.6 124.426 140.664C127.491 143.729 131.395 145.816 135.646 146.662C139.897 147.507 144.302 147.073 148.306 145.415C152.31 143.756 155.733 140.947 158.141 137.344C160.548 133.74 161.834 129.504 161.834 125.17C161.831 119.359 159.522 113.787 155.413 109.678C151.304 105.569 145.732 103.259 139.921 103.257V103.257Z" fill="white"/>
</g>
<defs>
<filter id="filter0_d_322_266" x="48.7261" y="45.4128" width="182.388" height="209.832" filterUnits="userSpaceOnUse" color-interpolation-filters="sRGB">
<feFlood flood-opacity="0" result="BackgroundImageFix"/>
<feColorMatrix in="SourceAlpha" type="matrix" values="0 0 0 0 0 0 0 0 0 0 0 0 0 0 0 0 0 0 127 0" result="hardAlpha"/>
<feOffset dy="10"/>
<feGaussianBlur stdDeviation="20"/>
<feColorMatrix type="matrix" values="0 0 0 0 0 0 0 0 0 0 0 0 0 0 0 0 0 0 0.251 0"/>
<feBlend mode="normal" in2="BackgroundImageFix" result="effect1_dropShadow_322_266"/>
<feBlend mode="normal" in="SourceGraphic" in2="effect1_dropShadow_322_266" result="shape"/>
</filter>
<filter id="filter1_i_322_266" x="88.7261" y="75.4128" width="102.388" height="129.832" filterUnits="userSpaceOnUse" color-interpolation-filters="sRGB">
<feFlood flood-opacity="0" result="BackgroundImageFix"/>
<feBlend mode="normal" in="SourceGraphic" in2="BackgroundImageFix" result="shape"/>
<feColorMatrix in="SourceAlpha" type="matrix" values="0 0 0 0 0 0 0 0 0 0 0 0 0 0 0 0 0 0 127 0" result="hardAlpha"/>
<feOffset/>
<feGaussianBlur stdDeviation="12"/>
<feComposite in2="hardAlpha" operator="arithmetic" k2="-1" k3="1"/>
<feColorMatrix type="matrix" values="0 0 0 0 0 0 0 0 0 0 0 0 0 0 0 0 0 0 0.1 0"/>
<feBlend mode="normal" in2="shape" result="effect1_innerShadow_322_266"/>
</filter>
<filter id="filter2_d_322_266" x="94.0081" y="79.2572" width="91.8254" height="91.8254" filterUnits="userSpaceOnUse" color-interpolation-filters="sRGB">
<feFlood flood-opacity="0" result="BackgroundImageFix"/>
<feColorMatrix in="SourceAlpha" type="matrix" values="0 0 0 0 0 0 0 0 0 0 0 0 0 0 0 0 0 0 127 0" result="hardAlpha"/>
<feOffset/>
<feGaussianBlur stdDeviation="12"/>
<feComposite in2="hardAlpha" operator="out"/>
<feColorMatrix type="matrix" values="0 0 0 0 0 0 0 0 0 0 0 0 0 0 0 0 0 0 0.1 0"/>
<feBlend mode="normal" in2="BackgroundImageFix" result="effect1_dropShadow_322_266"/>
<feBlend mode="normal" in="SourceGraphic" in2="effect1_dropShadow_322_266" result="shape"/>
</filter>
<linearGradient id="paint0_linear_322_266" x1="168.613" y1="101.734" x2="95.016" y2="191.458" gradientUnits="userSpaceOnUse">
<stop stop-color="#F7FF05"/>
<stop offset="0.614583" stop-color="#2DDFA6"/>
</linearGradient>
</defs>
</svg>
