<svg width="280" height="280" viewBox="0 0 280 280" fill="none" xmlns="http://www.w3.org/2000/svg">
<path d="M140 280C217.32 280 280 217.32 280 140C280 62.6801 217.32 0 140 0C62.6801 0 0 62.6801 0 140C0 217.32 62.6801 280 140 280Z" fill="#F2F4F4"/>
<mask id="mask0_322_198" style="mask-type:alpha" maskUnits="userSpaceOnUse" x="0" y="0" width="280" height="280">
<path d="M140 280C217.32 280 280 217.32 280 140C280 62.6801 217.32 0 140 0C62.6801 0 0 62.6801 0 140C0 217.32 62.6801 280 140 280Z" fill="#F2F4F4"/>
</mask>
<g mask="url(#mask0_322_198)">
<mask id="mask1_322_198" style="mask-type:alpha" maskUnits="userSpaceOnUse" x="36" y="129" width="5" height="20">
<path d="M36.2971 129.543H40.6782V148.064H36.2971V129.543Z" fill="white"/>
</mask>
<g mask="url(#mask1_322_198)">
<path d="M39.5926 148.064H37.3827C36.7825 148.064 36.2971 147.577 36.2971 146.978V130.628C36.2971 130.029 36.7825 129.544 37.3827 129.544H39.5926C40.1914 129.544 40.6782 130.031 40.6782 130.63V146.98C40.6782 147.579 40.1914 148.065 39.5926 148.065" fill="#D8D8D8"/>
</g>
<path d="M39.233 194.715H37.7423C36.9443 194.715 36.2971 194.069 36.2971 193.271V163.359C36.2971 162.562 36.9443 161.915 37.7423 161.915H39.233C40.031 161.915 40.6782 162.562 40.6782 163.36V193.271C40.6782 194.069 40.031 194.715 39.233 194.715ZM244.02 222.598H242.239C241.521 222.598 240.939 222.018 240.939 221.299V171.301C240.939 170.582 241.521 170.001 242.239 170.001H244.02C244.739 170.001 245.32 170.582 245.32 171.301V221.301C245.32 222.019 244.739 222.601 244.02 222.601V222.598ZM39.233 236.192H37.7423C36.9443 236.192 36.2971 235.545 36.2971 234.747V204.836C36.2971 204.038 36.9443 203.393 37.7423 203.393H39.233C40.031 203.393 40.6782 204.038 40.6782 204.836V234.749C40.6782 235.545 40.031 236.192 39.233 236.192Z" fill="#D8D8D8"/>
<mask id="mask2_322_198" style="mask-type:alpha" maskUnits="userSpaceOnUse" x="38" y="64" width="206" height="422">
<path d="M38.1592 64.9858H243.245V485.436H38.1592V64.9858Z" fill="white"/>
</mask>
<g mask="url(#mask2_322_198)">
<path d="M215.329 485.436H66.0714C50.6575 485.436 38.1602 472.938 38.1602 457.52V92.8999C38.1602 77.4832 50.6561 64.9858 66.0728 64.9858H215.33C230.747 64.9858 243.244 77.4832 243.244 92.8999V457.52C243.244 472.938 230.747 485.436 215.329 485.436Z" fill="#DDDDDD"/>
</g>
<path d="M215.439 483.447H66.0007C52.1135 483.447 40.8552 472.189 40.8552 458.301V92.5101C40.8552 78.623 52.1121 67.3661 66.0007 67.3661H215.438C229.326 67.3661 240.585 78.623 240.585 92.5101V458.302C240.585 472.191 229.326 483.447 215.439 483.447Z" fill="#CCCCCC"/>
<path fill-rule="evenodd" clip-rule="evenodd" d="M215.439 483.447H66.0007C52.1135 483.447 40.8552 472.189 40.8552 458.301V92.5101C40.8552 78.623 52.1121 67.3661 66.0007 67.3661H215.438C229.326 67.3661 240.585 78.623 240.585 92.5101V458.302C240.585 472.191 229.326 483.447 215.439 483.447Z" stroke="#DADADA" stroke-width="0.3"/>
<path d="M151.291 81.8742H129.441C128.481 81.8742 127.704 81.097 127.704 80.1372C127.704 79.1775 128.481 78.4003 129.441 78.4003H151.291C152.25 78.4003 153.027 79.1775 153.027 80.1372C153.027 81.097 152.25 81.8742 151.291 81.8742Z" fill="#E1E1E1"/>
<path d="M214.375 74.6554H192.85C191.749 74.7245 188.42 75.4672 187.583 81.8742C186.425 90.7386 176.925 90.7193 176.925 90.7193H111.615C96.5964 91.0885 92.4518 87.8331 91.6386 79.768C91.2141 75.575 89.0526 74.7799 87.9117 74.6554H66.2719C55.4479 74.6554 46.6733 83.4313 46.6733 94.2554V457.196C46.6733 468.02 55.4479 476.794 66.2719 476.794H214.375C225.2 476.794 233.975 468.02 233.975 457.196V94.2554C233.975 83.4313 225.2 74.6554 214.375 74.6554Z" fill="white"/>
<path d="M47.9141 97.0696H229.827V333.547H47.9141V97.0696Z" fill="white"/>
<path d="M218.715 100.654H59.9216C57.2492 100.654 55.0828 102.82 55.0828 105.493V111.945C55.0828 114.618 57.2492 116.784 59.9216 116.784H218.715C221.388 116.784 223.554 114.618 223.554 111.945V105.493C223.554 102.82 221.388 100.654 218.715 100.654Z" fill="#FAFAFA"/>
<path d="M86.9949 135.752H64.8407C60.9914 135.752 57.8708 138.873 57.8708 142.722V164.876C57.8708 168.725 60.9914 171.846 64.8407 171.846H86.9949C90.8443 171.846 93.9648 168.725 93.9648 164.876V142.722C93.9648 138.873 90.8443 135.752 86.9949 135.752Z" fill="#FAFAFA"/>
<path d="M86.9949 180.558H64.8407C60.9914 180.558 57.8708 183.679 57.8708 187.528V209.682C57.8708 213.532 60.9914 216.652 64.8407 216.652H86.9949C90.8443 216.652 93.9648 213.532 93.9648 209.682V187.528C93.9648 183.679 90.8443 180.558 86.9949 180.558Z" fill="#FAFAFA"/>
<path d="M86.9949 225.365H64.8407C60.9914 225.365 57.8708 228.485 57.8708 232.335V254.489C57.8708 258.338 60.9914 261.459 64.8407 261.459H86.9949C90.8443 261.459 93.9648 258.338 93.9648 254.489V232.335C93.9648 228.485 90.8443 225.365 86.9949 225.365Z" fill="#FAFAFA"/>
<path d="M129.311 135.752H107.157C103.308 135.752 100.187 138.873 100.187 142.722V164.876C100.187 168.725 103.308 171.846 107.157 171.846H129.311C133.161 171.846 136.281 168.725 136.281 164.876V142.722C136.281 138.873 133.161 135.752 129.311 135.752Z" fill="#FAFAFA"/>
<path d="M129.311 180.558H107.157C103.308 180.558 100.187 183.679 100.187 187.528V209.682C100.187 213.532 103.308 216.652 107.157 216.652H129.311C133.161 216.652 136.281 213.532 136.281 209.682V187.528C136.281 183.679 133.161 180.558 129.311 180.558Z" fill="#FAFAFA"/>
<path d="M129.311 225.365H107.157C103.308 225.365 100.187 228.485 100.187 232.335V254.489C100.187 258.338 103.308 261.459 107.157 261.459H129.311C133.161 261.459 136.281 258.338 136.281 254.489V232.335C136.281 228.485 133.161 225.365 129.311 225.365Z" fill="#FAFAFA"/>
<path d="M172.873 135.752H150.719C146.87 135.752 143.749 138.873 143.749 142.722V164.876C143.749 168.725 146.87 171.846 150.719 171.846H172.873C176.723 171.846 179.843 168.725 179.843 164.876V142.722C179.843 138.873 176.723 135.752 172.873 135.752Z" fill="#FAFAFA"/>
<path d="M172.873 180.558H150.719C146.87 180.558 143.749 183.679 143.749 187.528V209.682C143.749 213.532 146.87 216.652 150.719 216.652H172.873C176.723 216.652 179.843 213.532 179.843 209.682V187.528C179.843 183.679 176.723 180.558 172.873 180.558Z" fill="#FAFAFA"/>
<path d="M172.873 225.365H150.719C146.87 225.365 143.749 228.485 143.749 232.335V254.489C143.749 258.338 146.87 261.459 150.719 261.459H172.873C176.723 261.459 179.843 258.338 179.843 254.489V232.335C179.843 228.485 176.723 225.365 172.873 225.365Z" fill="#FAFAFA"/>
<path d="M216.435 135.752H194.281C190.432 135.752 187.311 138.873 187.311 142.722V164.876C187.311 168.725 190.432 171.846 194.281 171.846H216.435C220.284 171.846 223.405 168.725 223.405 164.876V142.722C223.405 138.873 220.284 135.752 216.435 135.752Z" fill="#FAFAFA"/>
<path d="M216.435 180.558H194.281C190.432 180.558 187.311 183.679 187.311 187.528V209.682C187.311 213.532 190.432 216.652 194.281 216.652H216.435C220.284 216.652 223.405 213.532 223.405 209.682V187.528C223.405 183.679 220.284 180.558 216.435 180.558Z" fill="#FAFAFA"/>
<path d="M216.435 225.365H194.281C190.432 225.365 187.311 228.485 187.311 232.335V254.489C187.311 258.338 190.432 261.459 194.281 261.459H216.435C220.284 261.459 223.405 258.338 223.405 254.489V232.335C223.405 228.485 220.284 225.365 216.435 225.365Z" fill="#FAFAFA"/>
<g filter="url(#filter0_d_322_198)">
<path d="M251.928 99.658H27.072C22.0617 99.658 18 103.72 18 108.73V141.886C18 146.896 22.0617 150.958 27.072 150.958H251.928C256.938 150.958 261 146.896 261 141.886V108.73C261 103.72 256.938 99.658 251.928 99.658Z" fill="white"/>
</g>
<path d="M227.213 114.594H91.4006C89.3797 114.594 87.7415 116.232 87.7415 118.253V118.402C87.7415 120.423 89.3797 122.062 91.4006 122.062H227.213C229.234 122.062 230.873 120.423 230.873 118.402V118.253C230.873 116.232 229.234 114.594 227.213 114.594Z" fill="#F3F3F3"/>
<path d="M191.119 127.04H91.4006C89.3797 127.04 87.7415 128.678 87.7415 130.699V130.849C87.7415 132.869 89.3797 134.508 91.4006 134.508H191.119C193.14 134.508 194.779 132.869 194.779 130.849V130.699C194.779 128.678 193.14 127.04 191.119 127.04Z" fill="#F3F3F3"/>
</g>
<g filter="url(#filter1_d_322_198)">
<path fill-rule="evenodd" clip-rule="evenodd" d="M50.49 105.6C61.5357 105.6 70.49 114.554 70.49 125.6C70.49 136.646 61.5357 145.6 50.49 145.6C39.4443 145.6 30.49 136.646 30.49 125.6C30.49 114.554 39.4443 105.6 50.49 105.6Z" fill="white"/>
</g>
<g filter="url(#filter2_i_322_198)">
<path fill-rule="evenodd" clip-rule="evenodd" d="M63.4539 125.606C63.4544 125.562 63.4546 125.517 63.4546 125.472C63.4546 125.427 63.4544 125.383 63.4539 125.338V125.237C63.4539 125.178 63.452 125.119 63.4482 125.061C63.2311 118.101 57.5208 112.526 50.5082 112.526C43.3581 112.526 37.5618 118.322 37.5618 125.472C37.5618 132.622 43.3581 138.419 50.5082 138.419C53.2607 138.419 55.8127 137.56 57.9105 136.095C58.0729 137.405 59.1899 138.419 60.5437 138.419H60.8005C62.2659 138.419 63.4539 137.231 63.4539 135.765V125.606Z" fill="url(#paint0_linear_322_198)"/>
</g>
<circle cx="50.5072" cy="125.472" r="7.38268" fill="white"/>
<path fill-rule="evenodd" clip-rule="evenodd" d="M47.7058 124.532C47.5857 124.856 47.52 125.206 47.52 125.572C47.52 127.222 48.8576 128.559 50.5077 128.559C52.1577 128.559 53.4953 127.222 53.4953 125.572C53.4953 123.922 52.1577 122.584 50.5077 122.584C50.3833 122.584 50.2607 122.592 50.1403 122.606C50.1718 122.736 50.1885 122.872 50.1885 123.011C50.1885 123.954 49.4241 124.718 48.4813 124.718C48.2021 124.718 47.9385 124.651 47.7058 124.532Z" fill="#333333"/>
<defs>
<filter id="filter0_d_322_198" x="-6" y="75.658" width="291" height="99.3" filterUnits="userSpaceOnUse" color-interpolation-filters="sRGB">
<feFlood flood-opacity="0" result="BackgroundImageFix"/>
<feColorMatrix in="SourceAlpha" type="matrix" values="0 0 0 0 0 0 0 0 0 0 0 0 0 0 0 0 0 0 127 0" result="hardAlpha"/>
<feOffset/>
<feGaussianBlur stdDeviation="12"/>
<feComposite in2="hardAlpha" operator="out"/>
<feColorMatrix type="matrix" values="0 0 0 0 0 0 0 0 0 0 0 0 0 0 0 0 0 0 0.2 0"/>
<feBlend mode="normal" in2="BackgroundImageFix" result="effect1_dropShadow_322_198"/>
<feBlend mode="normal" in="SourceGraphic" in2="effect1_dropShadow_322_198" result="shape"/>
</filter>
<filter id="filter1_d_322_198" x="22.49" y="97.6" width="56" height="56" filterUnits="userSpaceOnUse" color-interpolation-filters="sRGB">
<feFlood flood-opacity="0" result="BackgroundImageFix"/>
<feColorMatrix in="SourceAlpha" type="matrix" values="0 0 0 0 0 0 0 0 0 0 0 0 0 0 0 0 0 0 127 0" result="hardAlpha"/>
<feOffset/>
<feGaussianBlur stdDeviation="4"/>
<feComposite in2="hardAlpha" operator="out"/>
<feColorMatrix type="matrix" values="0 0 0 0 0 0 0 0 0 0 0 0 0 0 0 0 0 0 0.15 0"/>
<feBlend mode="normal" in2="BackgroundImageFix" result="effect1_dropShadow_322_198"/>
<feBlend mode="normal" in="SourceGraphic" in2="effect1_dropShadow_322_198" result="shape"/>
</filter>
<filter id="filter2_i_322_198" x="37.5618" y="112.526" width="25.8928" height="25.8929" filterUnits="userSpaceOnUse" color-interpolation-filters="sRGB">
<feFlood flood-opacity="0" result="BackgroundImageFix"/>
<feBlend mode="normal" in="SourceGraphic" in2="BackgroundImageFix" result="shape"/>
<feColorMatrix in="SourceAlpha" type="matrix" values="0 0 0 0 0 0 0 0 0 0 0 0 0 0 0 0 0 0 127 0" result="hardAlpha"/>
<feOffset/>
<feGaussianBlur stdDeviation="1.36954"/>
<feComposite in2="hardAlpha" operator="arithmetic" k2="-1" k3="1"/>
<feColorMatrix type="matrix" values="0 0 0 0 0 0 0 0 0 0 0 0 0 0 0 0 0 0 0.15 0"/>
<feBlend mode="normal" in2="shape" result="effect1_innerShadow_322_198"/>
</filter>
<linearGradient id="paint0_linear_322_198" x1="58.137" y1="117.502" x2="43.8604" y2="139.654" gradientUnits="userSpaceOnUse">
<stop stop-color="#F7FF05"/>
<stop offset="0.614583" stop-color="#2DDFA6"/>
</linearGradient>
</defs>
</svg>
