<svg width="57" height="56" viewBox="0 0 57 56" fill="none" xmlns="http://www.w3.org/2000/svg">
<path d="M40.5 0H16.5C7.66344 0 0.5 7.16344 0.5 16V40C0.5 48.8366 7.66344 56 16.5 56H40.5C49.3366 56 56.5 48.8366 56.5 40V16C56.5 7.16344 49.3366 0 40.5 0Z" fill="#F0F0F0"/>
<path d="M39.1039 35.2078H38.5237V30.651C38.5237 25.1241 34.0269 20.6276 28.5 20.6276C22.9731 20.6276 18.4766 25.1241 18.4766 30.651V35.2078H17.8961C16.0235 35.2078 14.5 36.7315 14.5 38.6039C14.5 40.4762 16.0235 42 17.8961 42H39.1039C40.9765 42 42.5 40.4765 42.5 38.6039C42.5 36.7312 40.9765 35.2078 39.1039 35.2078ZM39.1039 39.9291H17.8961C17.1648 39.9291 16.5706 39.3352 16.5706 38.6039C16.5706 37.8725 17.1648 37.2784 17.8961 37.2784H39.1039C39.8352 37.2784 40.4294 37.8725 40.4294 38.6039C40.4294 39.3352 39.8352 39.9291 39.1039 39.9291ZM28.5 22.6979C32.8856 22.6979 36.4531 26.2654 36.4531 30.651V35.9531H20.5469V30.651C20.5469 26.2654 24.1144 22.6979 28.5 22.6979ZM29.5242 19.0226C29.5242 19.5883 29.0657 20.0469 28.5 20.0469C27.9343 20.0469 27.4758 19.5883 27.4758 19.0226V15.0242C27.4758 14.4586 27.9343 14 28.5 14C29.0657 14 29.5242 14.4586 29.5242 15.0242V19.0226ZM20.9705 23.1613C20.5705 23.5614 19.9219 23.5614 19.5218 23.1613L16.6735 20.3131C16.2851 19.9247 16.2851 19.2949 16.6735 18.9065C17.0852 18.4948 17.7528 18.4948 18.1645 18.9065L20.9705 21.7126C21.3706 22.1127 21.3706 22.7613 20.9705 23.1613ZM37.4785 23.1613C37.0784 23.5614 36.4298 23.5614 36.0298 23.1613C35.6297 22.7613 35.6297 22.1127 36.0298 21.7126L38.8569 18.8854C39.257 18.4854 39.9056 18.4854 40.3056 18.8854C40.7057 19.2855 40.7057 19.9341 40.3056 20.3342L37.4785 23.1613ZM23.1979 30.651H21.8724C21.8724 26.9917 24.8404 24.0234 28.4997 24.0234V25.349C25.5771 25.349 23.1979 27.7267 23.1979 30.651Z" fill="black" fill-opacity="0.8"/>
</svg>
