<svg width="28" height="26" viewBox="0 0 28 26" fill="none"
    xmlns="http://www.w3.org/2000/svg">
    <g filter="url(#filter0_d_5651_13969)">
        <path d="M7 10.207H13.9818C13.9498 10.2639 13.9282 10.3046 13.9049 10.3441C13.5554 10.9323 13.2059 11.5191 12.8631 12.1096C12.8048 12.2109 12.744 12.2518 12.6181 12.2518C10.7453 12.2473 8.87262 12.2464 7 12.2493V10.207Z" fill="#E62B3B"/>
        <path d="M11.4503 12.8771C11.8115 12.8757 12.1729 12.8771 12.5341 12.8711C12.6171 12.8697 12.634 12.8996 12.6433 12.973C12.6966 13.3939 12.9054 13.7227 13.2745 13.9514C13.2745 15.6336 13.2745 17.3158 13.2745 18.9982H11.4442C11.4462 18.9652 11.4497 18.9324 11.4497 18.8995C11.4497 16.9327 11.4497 14.9659 11.4497 12.9991C11.4497 12.9664 11.4453 12.9334 11.443 12.9007C11.4478 12.8938 11.4504 12.8855 11.4503 12.8771Z" fill="#E62B3C"/>
        <path d="M14.8965 13.7802C15.1367 13.5651 15.2576 13.2722 15.4175 13.0059C15.4793 12.903 15.5416 12.8637 15.6642 12.8674C15.9919 12.8768 16.3201 12.8711 16.6478 12.8714C16.6501 12.909 16.6545 12.9465 16.6545 12.9852C16.6545 14.9516 16.6545 16.9178 16.6545 18.8838C16.6545 18.9213 16.649 18.9589 16.6461 18.9976H14.8737C14.8791 18.9651 14.8826 18.9325 14.8845 18.8997C14.889 17.1927 14.893 15.4862 14.8965 13.7802Z" fill="#E62B3C"/>
        <path d="M16.6441 18.9973C16.647 18.9597 16.6525 18.9222 16.6525 18.8835C16.6525 16.9171 16.6525 14.9509 16.6525 12.9849C16.6525 12.947 16.6482 12.9095 16.6458 12.8711H18.2731L18.2714 18.9947L16.6441 18.9973Z" fill="#DEDFDE"/>
        <path d="M9.26848 18.9979C9.23935 18.9501 9.1846 18.9578 9.14149 18.945C8.57615 18.7766 8.18878 18.293 8.18703 17.7136C8.18179 16.1376 8.18703 14.5612 8.18353 12.9849C8.18353 12.9033 8.19868 12.8697 8.29334 12.8711C8.81062 12.8765 9.3279 12.8751 9.84518 12.876C9.84629 12.8847 9.84906 12.8932 9.85333 12.901C9.85045 12.9199 9.8486 12.9388 9.8478 12.9579L9.84955 18.9993L9.26848 18.9979Z" fill="#E62B3B"/>
        <path d="M9.84747 18.9967L9.84572 12.9553C9.84652 12.9363 9.84837 12.9173 9.85125 12.8984H11.4436C11.4459 12.9311 11.4503 12.9641 11.4503 12.9969C11.4503 14.9636 11.4503 16.9304 11.4503 18.8972C11.4503 18.9302 11.4468 18.9629 11.4447 18.9959L9.84747 18.9967Z" fill="#DDE0E0"/>
        <path d="M18.2756 18.9981L18.2774 12.8745C18.7725 12.8745 19.2647 12.8745 19.7584 12.8711C19.8516 12.8711 19.8805 12.8933 19.8802 12.9877C19.8773 14.5609 19.8802 16.1344 19.8764 17.7076C19.8746 18.312 19.461 18.8104 18.857 18.9643C18.8278 18.9719 18.7859 18.9552 18.7696 18.9981H18.2756Z" fill="#E62B3B"/>
        <path d="M14.8952 13.7852C14.8911 15.4918 14.8872 17.1976 14.8833 18.9027C14.8814 18.9355 14.8778 18.9681 14.8725 19.0006H13.2746C13.2746 17.3184 13.2746 15.6362 13.2746 13.9538C13.7281 14.2394 14.4254 14.2337 14.8952 13.7852Z" fill="#DDE0E0"/>
        <path d="M13.9772 13.6272C13.3134 13.6286 12.9031 12.9351 13.2357 12.3586C13.5986 11.7263 13.9772 11.1008 14.3492 10.4725C15.0159 9.34613 15.6849 8.22091 16.3458 7.09142C16.4128 6.97764 16.4567 6.98163 16.5581 7.0405C16.9731 7.28114 17.3926 7.51494 17.8126 7.74732C17.8906 7.79027 17.911 7.82241 17.8609 7.90689C16.8168 9.66413 15.7747 11.4225 14.7345 13.182C14.5656 13.4682 14.3099 13.6104 13.9772 13.6272Z" fill="#DDE0E0"/>
        <path d="M15.9019 12.2428C15.8966 12.1859 15.931 12.1575 15.9517 12.1211C16.3061 11.5206 16.6635 10.9216 17.0148 10.3195C17.064 10.2341 17.1158 10.2028 17.2186 10.2031C18.4375 10.2067 19.6566 10.2067 20.876 10.2031C20.9826 10.2031 21.0132 10.2256 21.012 10.3337C21.0062 10.9333 21.0082 11.5331 21.012 12.1327C21.012 12.2095 21.0065 12.2499 20.9066 12.2496C19.2561 12.2466 17.6064 12.2457 15.9575 12.2471C15.9356 12.2471 15.9182 12.2442 15.9019 12.2428Z" fill="#E62B3B"/>
        <path d="M11.4426 12.8967H9.85027C9.846 12.8888 9.84323 12.8801 9.84212 12.8711L11.4505 12.8725C11.4504 12.8812 11.4476 12.8897 11.4426 12.8967Z" fill="#DEDFDE"/>
    </g>
    <defs>
        <filter id="filter0_d_5651_13969" x="0.6" y="0.6" width="26.8121" height="24.8" filterUnits="userSpaceOnUse" color-interpolation-filters="sRGB">
            <feFlood flood-opacity="0" result="BackgroundImageFix"/>
            <feColorMatrix in="SourceAlpha" type="matrix" values="0 0 0 0 0 0 0 0 0 0 0 0 0 0 0 0 0 0 127 0" result="hardAlpha"/>
            <feOffset/>
            <feGaussianBlur stdDeviation="3.2"/>
            <feComposite in2="hardAlpha" operator="out"/>
            <feColorMatrix type="matrix" values="0 0 0 0 0 0 0 0 0 0 0 0 0 0 0 0 0 0 0.16 0"/>
            <feBlend mode="normal" in2="BackgroundImageFix" result="effect1_dropShadow_5651_13969"/>
            <feBlend mode="normal" in="SourceGraphic" in2="effect1_dropShadow_5651_13969" result="shape"/>
        </filter>
    </defs>
</svg>
