<svg width="40" height="40" viewBox="0 0 40 40" fill="none"
    xmlns="http://www.w3.org/2000/svg">
    <rect width="40" height="40" rx="20" fill="#F35353"/>
    <path d="M16.1785 13.8202C15.5276 13.1693 14.4724 13.1693 13.8215 13.8202C13.1706 14.4711 13.1706 15.5263 13.8215 16.1772L17.643 19.9987L13.8215 23.8202C13.1706 24.4711 13.1706 25.5263 13.8215 26.1772C14.4724 26.8281 15.5276 26.8281 16.1785 26.1772L20 22.3557L23.8215 26.1772C24.4724 26.8281 25.5276 26.8281 26.1785 26.1772C26.8294 25.5263 26.8294 24.4711 26.1785 23.8202L22.357 19.9987L26.1785 16.1772C26.8294 15.5263 26.8294 14.4711 26.1785 13.8202C25.5276 13.1693 24.4724 13.1693 23.8215 13.8202L20 17.6417L16.1785 13.8202Z" fill="#fff"/>
</svg>
