<svg width="56" height="56" viewBox="0 0 56 56" fill="none" xmlns="http://www.w3.org/2000/svg">
<path d="M40 0H16C7.16344 0 0 7.16344 0 16V40C0 48.8366 7.16344 56 16 56H40C48.8366 56 56 48.8366 56 40V16C56 7.16344 48.8366 0 40 0Z" fill="#F0F0F0"/>
<path d="M38.6039 35.2078H38.0237V30.651C38.0237 25.1241 33.5269 20.6276 28 20.6276C22.4731 20.6276 17.9766 25.1241 17.9766 30.651V35.2078H17.3961C15.5235 35.2078 14 36.7315 14 38.6039C14 40.4762 15.5235 42 17.3961 42H38.6039C40.4765 42 42 40.4765 42 38.6039C42 36.7312 40.4765 35.2078 38.6039 35.2078ZM38.6039 39.9291H17.3961C16.6648 39.9291 16.0706 39.3352 16.0706 38.6039C16.0706 37.8725 16.6648 37.2784 17.3961 37.2784H38.6039C39.3352 37.2784 39.9294 37.8725 39.9294 38.6039C39.9294 39.3352 39.3352 39.9291 38.6039 39.9291ZM28 22.6979C32.3856 22.6979 35.9531 26.2654 35.9531 30.651V35.9531H20.0469V30.651C20.0469 26.2654 23.6144 22.6979 28 22.6979ZM29.0242 19.0226C29.0242 19.5883 28.5657 20.0469 28 20.0469C27.4343 20.0469 26.9758 19.5883 26.9758 19.0226V15.0242C26.9758 14.4586 27.4343 14 28 14C28.5657 14 29.0242 14.4586 29.0242 15.0242V19.0226ZM20.4705 23.1613C20.0705 23.5614 19.4219 23.5614 19.0218 23.1613L16.1735 20.3131C15.7851 19.9247 15.7851 19.2949 16.1735 18.9065C16.5852 18.4948 17.2528 18.4948 17.6645 18.9065L20.4705 21.7126C20.8706 22.1127 20.8706 22.7613 20.4705 23.1613ZM36.9785 23.1613C36.5784 23.5614 35.9298 23.5614 35.5298 23.1613C35.1297 22.7613 35.1297 22.1127 35.5298 21.7126L38.3569 18.8854C38.757 18.4854 39.4056 18.4854 39.8056 18.8854C40.2057 19.2855 40.2057 19.9341 39.8056 20.3342L36.9785 23.1613ZM22.6979 30.651H21.3724C21.3724 26.9917 24.3404 24.0234 27.9997 24.0234V25.349C25.0771 25.349 22.6979 27.7267 22.6979 30.651Z" fill="black" fill-opacity="0.8"/>
</svg>
