<svg width="56" height="56" viewBox="0 0 56 56" fill="none" xmlns="http://www.w3.org/2000/svg">
<path d="M40 0H16C7.16344 0 0 7.16344 0 16V40C0 48.8366 7.16344 56 16 56H40C48.8366 56 56 48.8366 56 40V16C56 7.16344 48.8366 0 40 0Z" fill="#F0F0F0"/>
<path d="M40.172 30.323H42.41C42.6752 30.323 42.9296 30.2177 43.1171 30.0301C43.3046 29.8426 43.41 29.5882 43.41 29.323C43.41 29.0578 43.3046 28.8034 43.1171 28.6159C42.9296 28.4284 42.6752 28.323 42.41 28.323H40.174C39.9088 28.323 39.6544 28.4284 39.4669 28.6159C39.2794 28.8034 39.174 29.0578 39.174 29.323C39.174 29.5879 39.2791 29.8419 39.4662 30.0294C39.6533 30.2169 39.9071 30.3225 40.172 30.323Z" fill="black" fill-opacity="0.8"/>
<path d="M39.748 36.577L39.788 36.597C39.6944 36.6896 39.6202 36.7999 39.5698 36.9214C39.5193 37.043 39.4935 37.1734 39.494 37.305C39.4955 37.5704 39.601 37.8246 39.788 38.013C39.8801 38.1073 39.9917 38.1803 40.115 38.227C40.235 38.28 40.3648 38.3072 40.496 38.307C40.629 38.306 40.7605 38.2789 40.883 38.227C41.0037 38.1787 41.113 38.1058 41.204 38.013C41.298 37.9207 41.3724 37.8105 41.4229 37.6889C41.4734 37.5672 41.499 37.4367 41.498 37.305C41.498 37.1734 41.472 37.0432 41.4215 36.9217C41.3711 36.8002 41.2972 36.6899 41.204 36.597C41.013 36.4023 40.7528 36.291 40.4801 36.2873C40.2074 36.2835 39.9443 36.3876 39.748 36.577Z" fill="black" fill-opacity="0.8"/>
<path d="M10.824 16.001H19.635C19.7629 15.5745 19.9748 15.1779 20.2581 14.8345C20.5415 14.491 20.8906 14.2077 21.285 14.001H9.79899C9.53393 14.007 9.28211 14.1181 9.0989 14.3097C8.91569 14.5014 8.81609 14.7579 8.82199 15.023V18.451H10.822L10.824 16.001Z" fill="black" fill-opacity="0.8"/>
<path d="M19.124 36.301C19.0568 36.3011 18.9898 36.3082 18.924 36.322C18.8591 36.3291 18.7959 36.347 18.737 36.375L18.563 36.469C18.494 36.4961 18.4288 36.5321 18.369 36.576L18.414 36.596C18.3208 36.6889 18.2469 36.7992 18.1965 36.9207C18.146 37.0422 18.12 37.1725 18.12 37.304C18.1215 37.5694 18.227 37.8236 18.414 38.012C18.5069 38.1052 18.6172 38.1791 18.7387 38.2296C18.8602 38.28 18.9904 38.306 19.122 38.306C19.255 38.305 19.3865 38.2779 19.509 38.226C19.6297 38.1777 19.739 38.1048 19.83 38.012C19.924 37.9197 19.9984 37.8095 20.0489 37.6879C20.0994 37.5663 20.125 37.4357 20.124 37.304C20.1244 37.1724 20.0988 37.0421 20.0487 36.9204C19.9987 36.7987 19.9251 36.6881 19.8322 36.595C19.7393 36.5018 19.6289 36.4279 19.5074 36.3774C19.3858 36.327 19.2556 36.301 19.124 36.301Z" fill="black" fill-opacity="0.8"/>
<path d="M48.54 24.12L45.54 19.5C45.2645 19.0852 44.8896 18.7459 44.4495 18.5129C44.0093 18.2799 43.5179 18.1607 43.02 18.166H36.686V15.001C36.686 14.7358 36.5806 14.4815 36.3931 14.2939C36.2056 14.1064 35.9512 14.001 35.686 14.001H24.654C24.9249 14.1449 25.1757 14.3238 25.4 14.533L26.867 16.001H34.708V30.983H24.108C23.8428 30.983 23.5884 31.0884 23.4009 31.2759C23.2134 31.4634 23.108 31.7178 23.108 31.983C23.108 32.2482 23.2134 32.5026 23.4009 32.6901C23.5884 32.8777 23.8428 32.983 24.108 32.983H35.708C35.9732 32.983 36.2276 32.8777 36.4151 32.6901C36.6026 32.5026 36.708 32.2482 36.708 31.983V20.226H43.02C43.1869 20.2266 43.351 20.2683 43.4979 20.3475C43.6448 20.4267 43.7699 20.5409 43.862 20.68L46.862 25.269C46.9582 25.4218 47.0453 25.5801 47.123 25.743H39.598V21.585C39.598 21.3198 39.4926 21.0654 39.3051 20.8779C39.1176 20.6904 38.8632 20.585 38.598 20.585C38.3328 20.585 38.0784 20.6904 37.8909 20.8779C37.7034 21.0654 37.598 21.3198 37.598 21.585V26.715C37.598 26.9802 37.7034 27.2346 37.8909 27.4221C38.0784 27.6097 38.3328 27.715 38.598 27.715H47.798C47.8511 28.0396 47.8779 28.3681 47.878 28.697V34.873C47.878 35.1382 47.7726 35.3926 47.5851 35.5801C47.3976 35.7676 47.1432 35.873 46.878 35.873H44.978C44.6737 34.9087 44.0699 34.0664 43.2543 33.4685C42.4387 32.8707 41.4538 32.5484 40.4425 32.5484C39.4313 32.5484 38.4463 32.8707 37.6307 33.4685C36.8151 34.0664 36.2113 34.9087 35.907 35.873H23.607C23.3027 34.9087 22.6989 34.0664 21.8833 33.4685C21.0677 32.8707 20.0827 32.5484 19.0715 32.5484C18.0603 32.5484 17.0753 32.8707 16.2597 33.4685C15.4441 34.0664 14.8403 34.9087 14.536 35.873H12.396L12.376 32.937H14.714C14.9792 32.937 15.2336 32.8316 15.4211 32.6441C15.6086 32.4566 15.714 32.2022 15.714 31.937C15.714 31.6718 15.6086 31.4174 15.4211 31.2299C15.2336 31.0424 14.9792 30.937 14.714 30.937H10.824V25.465H8.82401V31.941C8.82401 32.2062 8.92936 32.4606 9.1169 32.6481C9.30443 32.8356 9.55879 32.941 9.82401 32.941H10.38V36.811C10.38 37.0762 10.4854 37.3306 10.6729 37.5181C10.8604 37.7057 11.1148 37.811 11.38 37.811H14.366C14.5028 38.9657 15.0585 40.03 15.9277 40.8023C16.7969 41.5746 17.9193 42.0011 19.082 42.0011C20.2447 42.0011 21.3671 41.5746 22.2363 40.8023C23.1055 40.03 23.6612 38.9657 23.798 37.811H35.738C35.8748 38.9657 36.4305 40.03 37.2997 40.8023C38.1689 41.5746 39.2913 42.0011 40.454 42.0011C41.6167 42.0011 42.7391 41.5746 43.6083 40.8023C44.4775 40.03 45.0332 38.9657 45.17 37.811H46.87C47.6666 37.8089 48.43 37.4915 48.9932 36.9282C49.5565 36.3649 49.8739 35.6016 49.876 34.805V28.673C49.8827 27.0577 49.4185 25.4755 48.54 24.12ZM19.08 40.051C18.3513 40.051 17.6524 39.762 17.1365 39.2474C16.6206 38.7328 16.3299 38.0347 16.328 37.306V37.301C16.328 36.7567 16.4894 36.2246 16.7918 35.7721C17.0942 35.3195 17.524 34.9668 18.0269 34.7585C18.5297 34.5502 19.0831 34.4957 19.6169 34.6019C20.1507 34.7081 20.6411 34.9702 21.026 35.355C21.4108 35.7399 21.6729 36.2303 21.7791 36.7641C21.8853 37.298 21.8308 37.8513 21.6225 38.3542C21.4142 38.857 21.0615 39.2868 20.6089 39.5892C20.1564 39.8916 19.6243 40.053 19.08 40.053V40.051ZM40.455 40.051C39.7263 40.051 39.0274 39.762 38.5115 39.2474C37.9956 38.7328 37.7049 38.0347 37.703 37.306V37.301C37.703 36.7567 37.8644 36.2246 38.1668 35.7721C38.4692 35.3195 38.899 34.9668 39.4019 34.7585C39.9047 34.5502 40.4581 34.4957 40.9919 34.6019C41.5257 34.7081 42.0161 34.9702 42.401 35.355C42.7858 35.7399 43.0479 36.2303 43.1541 36.7641C43.2603 37.298 43.2058 37.8513 42.9975 38.3542C42.7892 38.857 42.4365 39.2868 41.9839 39.5892C41.5314 39.8916 40.9993 40.053 40.455 40.053V40.051Z" fill="black" fill-opacity="0.8"/>
<path d="M6.195 23.154H25.013L22.102 26.061C21.9305 26.2235 21.811 26.4333 21.7586 26.6637C21.7063 26.8941 21.7234 27.1348 21.8078 27.3555C21.8923 27.5762 22.0402 27.7669 22.233 27.9035C22.4258 28.0401 22.6548 28.1165 22.891 28.123H22.924C23.0877 28.1207 23.2493 28.0858 23.3993 28.0204C23.5494 27.955 23.6849 27.8604 23.798 27.742L28.682 22.853C28.7994 22.7306 28.8905 22.5855 28.9498 22.4266C29.0091 22.2677 29.0354 22.0984 29.027 21.929C29.0278 21.7728 28.9977 21.6179 28.9383 21.4734C28.8789 21.3288 28.7915 21.1975 28.681 21.087L23.781 16.193C23.6664 16.0854 23.5313 16.0021 23.3836 15.9481C23.236 15.8942 23.079 15.8706 22.922 15.879C22.7652 15.8853 22.6111 15.9227 22.4688 15.989C22.3265 16.0552 22.1988 16.1491 22.093 16.265C21.8904 16.4893 21.7794 16.7815 21.782 17.0837C21.7846 17.386 21.9006 17.6762 22.107 17.897L24.966 20.764H6.195C5.89693 20.7913 5.61983 20.929 5.41806 21.1501C5.21629 21.3712 5.10443 21.6597 5.10443 21.959C5.10443 22.2583 5.21629 22.5468 5.41806 22.7679C5.61983 22.989 5.89693 23.1267 6.195 23.154Z" fill="black" fill-opacity="0.8"/>
</svg>
